<?xml version="1.0" encoding="utf-8"?>
<!-- Generator: Adobe Illustrator 25.2.1, SVG Export Plug-In . SVG Version: 6.00 Build 0)  -->
<svg version="1.1" xmlns="http://www.w3.org/2000/svg" xmlns:xlink="http://www.w3.org/1999/xlink" x="0px" y="0px"
	 viewBox="0 0 100 100" style="enable-background:new 0 0 100 100;" xml:space="preserve">
<style type="text/css">
	.st0{fill-rule:evenodd;clip-rule:evenodd;fill:#676767;}
	.st1{fill-rule:evenodd;clip-rule:evenodd;fill:#FFFFFF;}
	.st2{opacity:0.6;}
	.st3{fill-rule:evenodd;clip-rule:evenodd;fill:#1E1E1C;}
	.st4{fill-rule:evenodd;clip-rule:evenodd;fill:#FFFFFF;filter:url(#Adobe_OpacityMaskFilter);}
	.st5{mask:url(#mask0_1_);}
	.st6{fill:#676767;}
	.st7{fill:#E9484A;}
	.st8{fill-rule:evenodd;clip-rule:evenodd;fill:#E9484A;}
	.st9{fill:none;stroke:#E9484A;stroke-width:0.5;}
	.st10{fill:#616160;}
	.st11{fill:#4D4C4C;}
	.st12{fill-rule:evenodd;clip-rule:evenodd;fill:#EB585B;}
	.st13{fill:#030304;}
</style>
<g id="Fitness_Event_Blue">
	<g id="Text_Top_1_">
	</g>
	<g id="Text_Bottom_1_">
	</g>
</g>
<g id="Fitness_Event_Yellow">
	<g id="Text_Top">
	</g>
	<g id="Text_Bottom">
	</g>
</g>
<g id="Live_Music_Promo_Dark">
	<g id="Text_1_">
	</g>
	<g id="Shapes_1_">
	</g>
</g>
<g id="Live_Music_Promo_Red">
	<g id="Text">
	</g>
	<g id="Shapes">
		<g>
			<path class="st0" d="M33.3,50.9c1.2,0.9,2.6-0.1,2.7-1.8c-0.1-0.3-0.3-0.7-0.6-1.1c-2.3-2.6-7.2-2.7-9.4,0
				c-0.4,0.5-0.5,1.9-0.1,2.3c0.4,0.5,1.7,0.8,2.1,0.5C29.8,49.6,31.4,49.6,33.3,50.9z"/>
			<path class="st0" d="M87.2,64.5V52.7c3.1,0.7,4.9,2.9,4.9,5.8C92.1,61.4,90.3,63.7,87.2,64.5z M83.3,38.7c0,0.9-0.1,1.9-0.2,2.8
				c-5.3-0.5-9.7-4.6-10.2-9.4c-0.4-4.1-0.4-8.2-0.6-12.5c-2-0.4-3.5-0.2-5.1,1.6c-10,11.5-27.5,14.7-41.4,7.7
				c-0.4-0.2-0.9-0.5-1.3-0.7c-5.5-2.9-6.8-3.1-12.7-1.4c0.3-3.7,3.8-7.1,8.2-7.4c2.2-0.1,4.6,0.2,6.7,0.9c6.6,2.1,12.5,0.9,17-4.1
				c0.4-0.4,0.5-1.8,0.2-2c-0.6-0.4-1.6-0.6-2.4-0.5c-0.5,0.1-1,0.8-1.5,1.3c-3.1,2.6-6.5,3.5-10.6,2.4c-7.4-1.9-7.4-1.9-14.3-0.7
				c1.8-4.3,4.9-7.1,9-9.1c10.2-4.9,20.7-5.3,31.5-2.2c4.4,1.2,8.7,3.1,13.1,4.4c1.2,0.4,2.7,0.4,3.9,0c4.5-1.4,9.9,1.4,10.4,6
				c0.4,3.8,0.3,7.6,0.4,11.4C83.4,31.1,83.4,34.9,83.3,38.7z M82.4,68.6c-1.6,12.6-13,23.1-26.1,25.1c-17,2.6-32.7-6.7-37.5-22.3
				c-0.8-2.8-1.3-5.7-1.3-8.6c-0.2-10.6-0.1-21.2-0.1-31.8c0-0.6,0.1-1.1,0.1-2.2c17.9,10.5,34.9,10.2,51-3.5
				c0.2,2.6,0.2,4.9,0.6,7.1c1.1,6.7,5.5,10.7,12,12.7c0.7,0.2,1.8,1.1,1.8,1.6C83,54.1,83.4,61.4,82.4,68.6z M13.6,64.4
				c-3-0.7-4.5-2.4-4.8-5.2C8.5,56,9.9,54,13.6,52.5V64.4z M87.1,48.3v-2.8c0-9.2,0.1-18.5,0-27.7c-0.1-7.5-6-12.4-13.7-12
				C71,6,68.5,5.6,66.2,5c-2.5-0.6-5-1.6-7.4-2.4c-9.2-2.9-18.5-3.6-28-1.1c-6.7,1.8-13.4,4.1-16.9,10.2c-3,5.1-4.7,10.8-6.9,16.3
				c-0.1,0.3-0.1,0.6-0.1,1c0.1,2.2,2.5,3.6,4.5,2.7c0.7-0.3,1.3-0.6,2.3-1.1c0,5.2-0.1,10.2,0,15.1c0.1,2-0.7,3-2.6,3.8
				c-4.2,1.8-6.4,5.1-6.2,9.5c0.2,4.3,2.5,7.5,6.9,9c1.8,0.6,2.7,1.6,3.2,3.3c6.4,22.3,30.5,32.7,52.3,22.6
				c9.6-4.5,15.2-12,18.2-21.6c0.7-2.2,1.6-3.8,4.2-4.6c3.3-1.1,5.3-3.8,5.9-7.1C96.5,56.1,94.7,50.8,87.1,48.3z"/>
			<path class="st0" d="M73.2,73c-11.7,8.2-26.5,8.2-38.3,0c-1.1-0.8-2.3-1.7-3.6-0.4c-1.3,1.2,0.1,2,1.1,2.7
				c6.2,4.6,13.5,6.9,24.4,6.9c5.8,0.1,12.6-2.6,18.8-6.8c1.1-0.8,2.5-1.6,1.3-2.9C75.6,71.3,74.4,72.2,73.2,73z"/>
			<path class="st0" d="M67.1,46.1c-1.8,0.7-3.4,1.2-4.8,2.1c-0.5,0.3-0.4,1.6-0.5,2.5c0.8,0.1,1.8,0.6,2.4,0.3
				c1.9-1,3.5-0.9,5.4,0.1c0.6,0.3,2.1,0.1,2.3-0.2c0.3-0.7,0.3-2.1-0.2-2.4C70.4,47.5,68.8,46.9,67.1,46.1z"/>
		</g>
	</g>
</g>
</svg>
