<svg width="12" height="13" viewBox="0 0 12 13" fill="none" xmlns="http://www.w3.org/2000/svg">
<path fill-rule="evenodd" clip-rule="evenodd" d="M7.19673 9.56041C6.74027 9.05969 6.20585 8.80786 5.75622 8.79137C4.96445 8.77964 4.35373 9.05346 3.91777 9.54539C3.75012 9.7349 3.59286 9.93761 3.7906 10.2254C3.96892 10.4853 4.14532 10.3617 4.32583 10.207C5.28772 9.3841 5.81338 9.38483 6.79004 10.2173C6.97657 10.3764 7.15571 10.4787 7.32036 10.2107C7.48254 9.9475 7.36138 9.7415 7.19673 9.56041Z" fill="#666666"/>
<path fill-rule="evenodd" clip-rule="evenodd" d="M9.79868 8.72785V6.76351C10.201 6.70218 10.7863 7.16308 10.8724 7.60754C10.9737 8.13292 10.4631 8.67 9.79868 8.72785ZM9.70398 5.73801C9.50709 5.51641 9.40738 5.30366 9.19814 5.09187C8.98226 4.87343 8.76068 4.65974 8.541 4.44446C8.27004 4.17829 7.85537 4.12929 7.52363 4.32781C6.67783 4.83233 5.76682 5.19587 4.78839 5.41525C4.06319 5.57773 3.32786 5.65265 2.58145 5.62863C2.48206 5.62547 2.38266 5.61662 2.28327 5.61598C1.93571 5.61409 1.75274 5.80565 1.64037 6.11007C1.62518 6.15085 1.60587 6.16729 1.55807 6.17456C1.43968 6.19226 1.21399 6.21977 1.0937 6.24379C1.09212 6.23083 1.08864 6.21787 1.08864 6.20522C1.08927 5.82178 1.08041 5.43801 1.09339 5.05488C1.11903 4.30347 1.35358 3.60644 1.792 2.97421C2.52416 1.91838 3.55862 1.25233 4.89728 1.03547C6.39484 0.792379 7.724 1.15907 8.84995 2.10363C9.65586 2.7798 10.1304 3.62952 10.2915 4.62433C10.3231 4.82064 10.3329 5.02074 10.338 5.21958C10.3456 5.52842 10.3399 5.83758 10.3399 6.14643V6.21818C10.2054 6.19448 9.96924 6.17235 9.83249 6.14801C9.82933 6.09838 9.83661 6.03926 9.8192 5.98742C9.79039 5.9008 9.7638 5.80534 9.70398 5.73801ZM9.06612 8.9889C9.05725 9.76148 8.75052 10.4332 8.18233 10.9981C7.62616 11.5507 6.93642 11.876 6.12449 11.9544C4.72727 12.0894 3.3712 11.4875 2.70804 10.2824C2.47475 9.85916 2.357 9.40775 2.35478 8.93358C2.3513 8.05161 2.35383 7.16965 2.35383 6.28769V6.21087C4.38445 6.29085 6.23939 5.79929 7.95917 4.81649C8.15542 5.01027 8.34978 5.20089 8.54319 5.39277C8.70431 5.55241 8.86575 5.71173 9.02307 5.87453C9.04871 5.90076 9.06675 5.94344 9.06675 5.97885C9.06897 6.9822 9.07751 7.98555 9.06612 8.9889ZM1.6669 8.68316C1.18164 8.64365 0.587808 8.29718 0.56565 7.71996C0.547923 7.25748 1.09206 6.76592 1.6669 6.72198V8.68316ZM11.0336 6.66768C11.0079 6.63859 10.9921 6.59339 10.9918 6.55545C10.9889 6.09867 10.9988 5.64125 10.9864 5.18478C10.9791 4.90723 10.9595 4.62715 10.9104 4.35371C10.718 3.27829 10.1884 2.35902 9.32298 1.62089C8.0451 0.530611 6.53013 0.113655 4.81447 0.36876C3.64991 0.541991 2.66261 1.04809 1.85891 1.84502C0.972905 2.7235 0.496825 3.7689 0.445228 4.96855C0.42212 5.50437 0.439214 6.04177 0.440163 6.57822C0.440163 6.63164 0.425919 6.67242 0.388884 6.71414C0.0808875 7.06566 -0.0447799 7.46713 0.0140971 7.91633C0.115707 8.6965 0.803238 9.3104 1.65094 9.37647C1.6981 9.37995 1.71171 9.39796 1.71836 9.43653C1.88296 10.4228 2.39513 11.2191 3.25201 11.8267C3.25201 11.8267 3.61793 12.1466 4.15352 12.3027C4.56788 12.3954 6.28829 12.6852 7.35219 12.279C7.35219 12.279 8.2249 11.7985 8.24674 11.7799C8.38285 11.6601 8.53068 11.5507 8.65983 11.4246C9.23625 10.8619 9.58445 10.1952 9.71043 9.42958C9.71613 9.39322 9.72911 9.37995 9.76867 9.37678C9.83388 9.37173 9.89909 9.36256 9.96367 9.35149C11.2919 9.11915 11.8803 7.64036 11.0336 6.66768Z" fill="#666666"/>
<path fill-rule="evenodd" clip-rule="evenodd" d="M7.79254 6.99647C7.64327 6.93363 7.4557 6.93842 7.28593 6.94607C7.05615 6.9566 6.76726 6.98562 6.78113 7.27524C6.79681 7.60568 7.10892 7.53998 7.34142 7.54667C7.36313 7.54731 7.38484 7.54699 7.40715 7.54667C7.51632 7.54667 7.63905 7.57697 7.73193 7.53902C7.84531 7.49245 8.02443 7.48352 8.01297 7.30873C8.00333 7.16009 7.89869 7.04112 7.79254 6.99647Z" fill="#666666"/>
<path fill-rule="evenodd" clip-rule="evenodd" d="M4.69707 6.95834C4.42478 6.92585 4.14042 6.94345 3.86874 6.98948C3.79357 7.002 3.6855 7.19255 3.69969 7.2836C3.71479 7.38141 3.84308 7.49209 3.94602 7.53473C4.04986 7.57772 4.18329 7.54421 4.30373 7.54455C4.41362 7.54489 4.53889 7.57975 4.62855 7.53643C4.7499 7.47787 4.8951 7.47686 4.92951 7.2616C4.94974 7.13569 4.79125 6.96951 4.69707 6.95834Z" fill="#666666"/>
</svg>
