<?xml version="1.0" encoding="utf-8"?>
<!-- Generator: Adobe Illustrator 25.2.1, SVG Export Plug-In . SVG Version: 6.00 Build 0)  -->
<svg version="1.1" xmlns="http://www.w3.org/2000/svg" xmlns:xlink="http://www.w3.org/1999/xlink" x="0px" y="0px"
	 viewBox="0 0 100 100" style="enable-background:new 0 0 100 100;" xml:space="preserve">
<style type="text/css">
	.st0{fill-rule:evenodd;clip-rule:evenodd;fill:#676767;}
	.st1{fill-rule:evenodd;clip-rule:evenodd;fill:#FFFFFF;}
	.st2{opacity:0.6;}
	.st3{fill-rule:evenodd;clip-rule:evenodd;fill:#1E1E1C;}
	.st4{fill-rule:evenodd;clip-rule:evenodd;fill:#FFFFFF;filter:url(#Adobe_OpacityMaskFilter);}
	.st5{mask:url(#mask0_1_);}
	.st6{fill:#676767;}
	.st7{fill:#E9484A;}
	.st8{fill-rule:evenodd;clip-rule:evenodd;fill:#E9484A;}
	.st9{fill:none;stroke:#E9484A;stroke-width:0.5;}
	.st10{fill:#616160;}
	.st11{fill:#4D4C4C;}
	.st12{fill-rule:evenodd;clip-rule:evenodd;fill:#EB585B;}
	.st13{fill:#030304;}
</style>
<g id="Fitness_Event_Blue">
	<g id="Text_Top_1_">
	</g>
	<g id="Text_Bottom_1_">
	</g>
</g>
<g id="Fitness_Event_Yellow">
	<g id="Text_Top">
	</g>
	<g id="Text_Bottom">
	</g>
</g>
<g id="Live_Music_Promo_Dark">
	<g id="Text_1_">
	</g>
	<g id="Shapes_1_">
	</g>
</g>
<g id="Live_Music_Promo_Red">
	<g id="Text">
	</g>
	<g id="Shapes">
		<g>
			<path class="st0" d="M9.5,51.5c-3.6,1.2-5.9,4.4-5.5,7.6c0.4,3.4,2.6,5.9,5.5,6.3V51.5z M90.6,65.5c3.6-0.9,5.8-4,5.5-7.5
				c-0.3-3.4-2.4-5.8-5.5-6.2V65.5z M50.8,9.2c1.5,1.1,2.6,1.9,3.6,2.8c4.8,4.4,7.8,9.7,6,16.4C59.1,33,55.8,36,51.1,37
				c-4.1,0.8-7.7-0.3-10.4-3.6c-2.4-3-3-6.5-1.3-10c1.3-2.9,3.7-4.8,7.1-4.7c0.8,0,1.2,1,2,1.6c-0.7,0.7-0.7,1.9-1.5,2.1
				c-3.1,1-4.3,2-4.5,4.4c-0.2,2.6,1.5,5.1,4.1,6.1c4,1.5,9-1.2,10.2-5.7C58.8,19,48,8.8,39.4,10.7c-12,2.6-24.1,15.7-25,27.9
				c-0.7,10-0.6,20.1-0.6,30.2c0,9.4,4.7,15.8,13.5,18.8c4.5,1.5,9.3,2.4,14.1,2.9c9.2,1,18.4,0.7,27.3-1.6
				c8.7-2.3,15.7-6.9,16.6-16.4c0.9-10.2,0.5-20.6,0.4-30.9c0-2.1-0.6-4.2-1.1-6.3C80.6,20.5,65.8,8.9,50.8,9.2z M99.5,62.8
				c-1.4,2.9-3.8,4.8-6.6,6.2c-1.8,0.9-2.6,2.2-3,4.2c-1.7,8.5-6.8,14.3-14.7,17.7c-8.3,3.6-17,4-25.9,4.1c-8.3,0-16.4-0.8-24.2-4
				c-8.5-3.5-13.8-9.5-15.2-18.8c-0.2-1-1.3-2.2-2.2-2.6C2.8,67.4,0,63.6,0,58.6c0-5,2.6-9.1,7.6-11c1.8-0.7,2-1.9,2.1-3.5
				C10.3,24.7,24,8.9,43.1,5.6C64.1,1.9,85,16,89.4,37c0.5,2.5,0.6,5.2,1.1,7.8c0.2,0.9,0.6,2.2,1.3,2.4c3.5,1.4,6,3.8,7.7,7.1
				C100.4,58.5,99.9,60.4,99.5,62.8z"/>
			<path class="st0" d="M51.6,72.1c-3.1-0.1-6.7-1-9.8-2.8c-1.1-0.7-2-1.4-0.8-2.3c1.1-1,2.3-0.6,3.6,0c6.7,3,10.2,3,16.8,0
				c1.2-0.6,2.4-1,3.6-0.1c1.3,1,0.3,1.8-0.9,2.5C61.1,71.2,57,72.1,51.6,72.1z"/>
			<path class="st0" d="M75.2,62.8c0,1.5-1.9,3.5-4.5,3.6c-2.6,0-5-1.3-5.1-2.9c0-1.5,2.3-2.9,5-2.9C73.3,60.7,75.2,61.3,75.2,62.8z
				"/>
			<path class="st0" d="M35.3,63.6c-0.1,1.6-2.3,2.8-5.1,2.8c-2.8,0-5-1.3-5-2.9c0-1.6,2.3-2.8,5.1-2.8
				C33.2,60.7,35.4,61.9,35.3,63.6z"/>
		</g>
	</g>
</g>
</svg>
