<svg width="27" height="24" viewBox="0 0 27 24" fill="none" xmlns="http://www.w3.org/2000/svg">
<path d="M21.6985 20.9188V1.73696C21.6985 1.43379 21.4412 1.16851 21.1471 1.16851H17.3235L9.89706 1.13062H6.07353C5.77941 1.13062 5.52206 1.39589 5.52206 1.69906V20.9946M25.3015 20.9946V10.4972C25.3015 10.232 25.1176 10.0046 24.8603 10.0046H21.6618V21.0325L25.3015 20.9946ZM5.52206 21.0325V10.0046H2.13971C1.91912 10.0046 1.69853 10.232 1.69853 10.4972V20.8051L5.52206 21.0325ZM8.75735 20.8051V15.2575H13.6103H18.4632V20.8051H8.75735ZM25.2647 21.0325H1.73529C1.33088 21.0325 1 21.4115 1 21.8662C1 22.321 1.33088 22.6999 1.73529 22.6999H25.2647C25.6691 22.6999 26 22.321 26 21.8662C26 21.4115 25.6324 21.0325 25.2647 21.0325ZM13.9412 9.90977H18.3529V12.9794H13.9412V9.90977ZM8.75735 9.90977H12.4706V12.9794H8.75735V9.90977ZM13.9416 4.90977H18.3534V7.97939H13.9416V4.90977ZM8.75781 4.90977H12.471V7.97939H8.75781V4.90977Z" stroke="#666666" stroke-miterlimit="10"/>
</svg>
