<svg width="84" height="84" viewBox="0 0 84 84" fill="none" xmlns="http://www.w3.org/2000/svg">
<path d="M31.153 10.9729L30.0085 10.4703L30.0073 10.4729L31.153 10.9729ZM28.5839 14.0496L28.8486 12.8279L28.8472 12.8276L28.5839 14.0496ZM23.9174 10.6407L23.9201 9.3907L23.9187 9.3907L23.9174 10.6407ZM19.6527 13.5329L20.7435 14.1433L20.7443 14.142L19.6527 13.5329ZM24.5103 16.8893L25.1427 17.9675L25.1437 17.9669L24.5103 16.8893ZM25.8457 15.9708L27.0457 15.6209L26.7721 14.6825L25.7955 14.7218L25.8457 15.9708ZM26.0626 18.0252L27.274 18.3334L27.2747 18.3304L26.0626 18.0252ZM25.1486 20.0796L23.9023 19.9833L23.8035 21.262L25.0844 21.3279L25.1486 20.0796ZM28.3989 20.8906L27.3729 21.6047L27.373 21.6048L28.3989 20.8906ZM29.782 23.7804L28.5381 23.9033L28.644 24.9745L29.7191 25.0288L29.782 23.7804ZM40.1111 22.752L39.7224 23.94L39.7232 23.9402L40.1111 22.752ZM45.0116 24.8295L45.6119 23.7331L45.6117 23.733L45.0116 24.8295ZM48.3035 27.7657L47.2497 28.438L47.2506 28.4395L48.3035 27.7657ZM49.1929 30.1853L48.2549 31.0115L48.2564 31.0132L49.1929 30.1853ZM54.374 31.4653L54.0363 32.6688L54.0402 32.6699L54.374 31.4653ZM59.876 33.9313L59.0211 34.8432L59.0211 34.8432L59.876 33.9313ZM57.9293 38.2403L58.8803 39.0516L58.8811 39.0507L57.9293 38.2403ZM56.8377 44.6673L55.6417 44.3041L55.6414 44.3048L56.8377 44.6673ZM51.5195 50.6032L50.3154 50.2673L50.3153 50.2677L51.5195 50.6032ZM46.2539 56.8225L46.576 55.6147L44.5743 55.0808L45.0352 57.1006L46.2539 56.8225ZM43.6419 60.7407L42.8147 59.8035L42.8135 59.8046L43.6419 60.7407ZM42.2085 62.7132L43.3961 63.1032L43.3977 63.0983L42.2085 62.7132ZM41.6339 65.2171L42.8762 65.3562L42.8764 65.354L41.6339 65.2171ZM42.3616 70.6706L43.3823 69.949L43.3821 69.9486L42.3616 70.6706ZM45.2995 73.4981L46.532 73.2897L46.5315 73.287L45.2995 73.4981ZM40.1527 74.6621L40.7084 73.5423L40.7035 73.5399L40.1527 74.6621ZM37.7895 71.9921L38.5805 71.0242L38.5775 71.0218L37.7895 71.9921ZM35.9383 69.8816L34.7455 70.2552L34.7462 70.2576L35.9383 69.8816ZM35.5989 60.6491L36.8476 60.5902L36.8475 60.589L35.5989 60.6491ZM35.7423 52.5183L36.9875 52.628L36.9876 52.627L35.7423 52.5183ZM35.9567 45.4416L37.1141 44.9695L37.1139 44.9691L35.9567 45.4416ZM31.9493 41.9851L32.7676 41.0402L32.7649 41.0379L31.9493 41.9851ZM28.3781 36.3716L29.6184 36.2165L29.6183 36.2156L28.3781 36.3716ZM28.6635 30.5175L29.7611 31.1157L29.7637 31.1109L28.6635 30.5175ZM30.6151 28.0491L29.3667 27.987L29.3666 27.988L30.6151 28.0491ZM29.2859 26.7361L28.8153 27.8942L28.8177 27.8951L29.2859 26.7361ZM24.3437 24.4631L23.4623 25.3495L23.4629 25.35L24.3437 24.4631ZM21.1278 21.9935L20.7692 23.1909L20.7712 23.1915L21.1278 21.9935ZM16.0423 21.2484L15.3178 22.2671L15.3195 22.2683L16.0423 21.2484ZM13.2404 18.4075L14.1965 17.6023L14.1953 17.6009L13.2404 18.4075ZM76.9076 64.0515C77.2771 63.4683 77.1038 62.6961 76.5207 62.3266C75.9375 61.9572 75.1652 62.1304 74.7958 62.7136L76.9076 64.0515ZM73.9103 64.0495C73.5171 64.617 73.6583 65.3957 74.2258 65.7889C74.7932 66.1821 75.572 66.0409 75.9652 65.4735L73.9103 64.0495ZM70.7301 71.6348C71.2262 71.1547 71.2392 70.3634 70.7591 69.8673C70.279 69.3712 69.4877 69.3582 68.9916 69.8382L70.7301 71.6348ZM14.1396 13.5073L13.2704 12.609L13.2704 12.609L14.1396 13.5073ZM70.7025 14.3464L69.8069 15.2184V15.2184L70.7025 14.3464ZM76.6107 59.517C76.2991 60.133 76.5459 60.885 77.1619 61.1966C77.778 61.5082 78.53 61.2614 78.8416 60.6454L76.6107 59.517ZM34.2333 2.25358C33.9116 2.96059 33.0462 4.59204 32.1453 6.29427C31.2718 7.9447 30.3579 9.67462 30.0085 10.4703L32.2974 11.4756C32.5998 10.7872 33.4532 9.16749 34.3549 7.4637C35.2292 5.81169 36.1469 4.08433 36.5088 3.28904L34.2333 2.25358ZM30.0073 10.4729C29.7859 10.9802 29.6778 11.5149 29.6006 11.9054C29.5119 12.3537 29.4626 12.6091 29.3855 12.8064C29.3225 12.9677 29.3056 12.9146 29.3854 12.8758C29.4342 12.8521 29.3273 12.9317 28.8486 12.8279L28.3192 15.2712C29.0692 15.4338 29.8178 15.4454 30.4786 15.1241C31.1704 14.7878 31.522 14.2075 31.7139 13.7166C31.8918 13.2616 31.984 12.7398 32.0531 12.3904C32.1336 11.9831 32.1996 11.6997 32.2986 11.4729L30.0073 10.4729ZM28.8472 12.8276C28.3038 12.7105 28.2284 12.4834 27.6791 11.5303C27.4282 11.0952 27.0592 10.517 26.4169 10.0746C25.7564 9.61952 24.9371 9.39295 23.9201 9.3907L23.9146 11.8907C24.554 11.8921 24.8473 12.0291 24.9986 12.1333C25.1683 12.2502 25.3104 12.4272 25.5132 12.7789C25.871 13.3996 26.4725 14.8732 28.3205 15.2715L28.8472 12.8276ZM23.9187 9.3907C22.5782 9.38929 21.4933 9.65971 20.5736 10.3484C19.7061 10.998 19.1149 11.9313 18.5611 12.9239L20.7443 14.142C21.287 13.1693 21.6636 12.6554 22.0721 12.3495C22.4284 12.0828 22.9276 11.8897 23.9161 11.8907L23.9187 9.3907ZM18.5619 12.9226C17.8969 14.111 17.569 15.2545 17.7097 16.2923C17.8602 17.4032 18.5233 18.2069 19.4178 18.6464C20.2612 19.0609 21.2604 19.1361 22.2142 19.0066C23.1833 18.875 24.1986 18.5213 25.1427 17.9675L23.8779 15.8111C23.1988 16.2094 22.4969 16.4453 21.8779 16.5293C21.2436 16.6154 20.7839 16.5322 20.5204 16.4027C20.3079 16.2983 20.2163 16.1724 20.187 15.9566C20.1479 15.6678 20.2153 15.0874 20.7435 14.1433L18.5619 12.9226ZM25.1437 17.9669C25.4366 17.7948 25.6416 17.5971 25.7922 17.4233C25.8622 17.3426 25.921 17.266 25.9588 17.2168C26.0032 17.1589 26.0191 17.1382 26.0341 17.1205C26.0507 17.1008 26.0109 17.152 25.9287 17.1938C25.8505 17.2337 25.8174 17.223 25.896 17.2198L25.7955 14.7218C25.4489 14.7358 25.1099 14.8052 24.7934 14.9665C24.473 15.1298 24.2627 15.3436 24.1253 15.506C23.8132 15.8751 23.9269 15.7823 23.8769 15.8117L25.1437 17.9669ZM24.6457 16.3208C24.7272 16.6001 24.8039 16.8382 24.8494 16.9865C24.9006 17.1536 24.917 17.2223 24.924 17.2649C24.9264 17.2799 24.9493 17.3272 24.8504 17.72L27.2747 18.3304C27.4037 17.8181 27.4756 17.3781 27.3913 16.8621C27.355 16.6392 27.2941 16.4315 27.2396 16.2536C27.1792 16.0569 27.1217 15.8814 27.0457 15.6209L24.6457 16.3208ZM24.8511 17.717C24.8127 17.8681 24.7324 17.9939 24.4915 18.3851C24.2898 18.7129 23.9582 19.261 23.9023 19.9833L26.3949 20.1759C26.4003 20.1055 26.4289 20.0068 26.6204 19.6958C26.7728 19.4482 27.1188 18.9432 27.274 18.3334L24.8511 17.717ZM25.0844 21.3279C25.4914 21.3488 25.8712 21.3339 26.1674 21.3238C26.487 21.3129 26.6962 21.3087 26.8745 21.3253C27.0375 21.3404 27.1162 21.3692 27.1617 21.3934C27.2002 21.4137 27.2727 21.4606 27.3729 21.6047L29.4248 20.1764C29.1251 19.7459 28.7634 19.4129 28.3326 19.1845C27.9089 18.9599 27.4832 18.8711 27.1058 18.836C26.7437 18.8023 26.3763 18.8153 26.0824 18.8253C25.7651 18.8361 25.4943 18.8457 25.2128 18.8312L25.0844 21.3279ZM27.373 21.6048C27.9086 22.3741 28.1276 22.6367 28.2964 22.9466C28.4054 23.1468 28.4841 23.3569 28.5381 23.9033L31.026 23.6574C30.9501 22.8896 30.8071 22.3296 30.4919 21.7509C30.2365 21.2818 29.8288 20.7567 29.4247 20.1763L27.373 21.6048ZM29.7191 25.0288C32.2644 25.1572 33.9063 24.3956 35.2329 23.9444C35.8953 23.719 36.4869 23.5612 37.16 23.529C37.8288 23.4969 38.642 23.5865 39.7224 23.94L40.4998 21.5639C39.174 21.1302 38.0558 20.9832 37.0403 21.0318C36.029 21.0803 35.1833 21.3206 34.4278 21.5775C32.9185 22.0909 31.802 22.6307 29.845 22.5319L29.7191 25.0288ZM39.7232 23.9402C41.2624 24.4427 42.9815 25.1434 44.4115 25.926L45.6117 23.733C44.0156 22.8594 42.1475 22.1018 40.499 21.5637L39.7232 23.9402ZM44.4113 25.926C44.7626 26.1183 45.3605 26.5556 45.9644 27.0856C46.5799 27.6257 47.0571 28.1361 47.2497 28.438L49.3573 27.0935C48.9655 26.4793 48.2642 25.7776 47.6134 25.2065C46.9512 24.6253 46.1953 24.0525 45.6119 23.7331L44.4113 25.926ZM47.2506 28.4395C47.3261 28.5575 47.3728 28.7448 47.4939 29.2819C47.5836 29.6799 47.7433 30.4306 48.2549 31.0115L50.131 29.3592C50.1323 29.3607 50.1044 29.3293 50.063 29.2166C50.0199 29.099 49.9821 28.9512 49.9327 28.7323C49.8547 28.386 49.7256 27.669 49.3564 27.092L47.2506 28.4395ZM48.2564 31.0132C49.126 31.9969 50.4696 32.225 51.4108 32.3372C51.8891 32.3942 52.4793 32.4385 52.8904 32.4805C53.3558 32.5281 53.7323 32.5835 54.0363 32.6688L54.7117 30.2618C54.193 30.1162 53.6413 30.0442 53.1446 29.9935C52.5934 29.9371 52.1874 29.9121 51.7068 29.8548C50.7304 29.7383 50.3061 29.5572 50.1295 29.3574L48.2564 31.0132ZM54.0402 32.6699C54.6909 32.8502 55.755 33.2037 56.7766 33.6289C57.853 34.0768 58.6803 34.5237 59.0211 34.8432L60.731 33.0194C60.0219 32.3545 58.7989 31.7626 57.7371 31.3207C56.6206 30.8561 55.4587 30.4688 54.7078 30.2607L54.0402 32.6699ZM59.0211 34.8432C59.5153 35.3065 59.4843 35.4754 59.4792 35.3923C59.4712 35.2619 59.561 35.2633 59.3575 35.4671C59.1399 35.6853 58.8308 35.8989 58.3596 36.2368C57.9446 36.5344 57.4022 36.9313 56.9776 37.43L58.8811 39.0507C59.0825 38.8141 59.3865 38.5767 59.8165 38.2684C60.1902 38.0004 60.7246 37.6364 61.1272 37.233C61.544 36.8154 62.0307 36.1512 61.9745 35.2387C61.9212 34.3735 61.397 33.6437 60.731 33.0194L59.0211 34.8432ZM56.9783 37.4291C55.8913 38.7034 55.7843 40.1845 55.7857 41.3592C55.7866 42.0417 55.8167 42.4385 55.8062 43.0177C55.7971 43.5233 55.7519 43.9409 55.6417 44.3041L58.0338 45.0304C58.2402 44.3506 58.2948 43.672 58.3058 43.0629C58.3155 42.5273 58.2863 41.7908 58.2857 41.3561C58.2844 40.2962 58.4066 39.6069 58.8803 39.0516L56.9783 37.4291ZM55.6414 44.3048C55.3036 45.4198 54.5825 45.9143 53.4713 46.6166C52.3972 47.2954 50.8919 48.2009 50.3154 50.2673L52.7235 50.9391C53.0132 49.9007 53.6813 49.4413 54.8069 48.7299C55.8954 48.042 57.4004 47.1209 58.034 45.0298L55.6414 44.3048ZM50.3153 50.2677C50.0521 51.2125 49.4589 52.8182 48.6463 54.0665C48.2384 54.693 47.8266 55.149 47.4441 55.4076C47.091 55.6464 46.8264 55.6815 46.576 55.6147L45.9317 58.0303C47.0412 58.3262 48.0439 58.0198 48.8444 57.4787C49.6156 56.9573 50.2438 56.1949 50.7415 55.4304C51.7399 53.8967 52.4196 52.03 52.7236 50.9387L50.3153 50.2677ZM45.0352 57.1006C45.1461 57.5868 45.1213 57.8324 45.092 57.9478C45.0687 58.0396 45.0251 58.1256 44.8899 58.2555C44.723 58.4156 44.496 58.5713 44.1046 58.8352C43.7422 59.0797 43.2828 59.3904 42.8147 59.8035L44.4691 61.6779C44.8022 61.3838 45.1389 61.1532 45.5026 60.9078C45.8373 60.682 46.2665 60.3995 46.6212 60.0589C47.0076 59.688 47.3509 59.2106 47.5153 58.5623C47.6737 57.9375 47.6373 57.2662 47.4725 56.5444L45.0352 57.1006ZM42.8135 59.8046C42.5464 60.041 42.3657 60.1793 42.2295 60.2821C42.1307 60.3565 41.9003 60.519 41.7193 60.727C41.4979 60.9815 41.3837 61.2482 41.301 61.4732C41.2256 61.6781 41.1339 61.9742 41.0193 62.3282L43.3977 63.0983C43.5324 62.6822 43.5946 62.4794 43.6474 62.3359C43.6927 62.2125 43.6808 62.2813 43.6055 62.3678C43.5706 62.408 43.5301 62.4324 43.7346 62.2781C43.9017 62.1522 44.1377 61.9711 44.4703 61.6768L42.8135 59.8046ZM41.0209 62.3232C40.7344 63.1958 40.497 64.1221 40.3914 65.0802L42.8764 65.354C42.9571 64.6217 43.1436 63.8722 43.3961 63.1032L41.0209 62.3232ZM40.3917 65.0779C40.2788 66.086 40.2132 67.2079 40.3146 68.282C40.4147 69.3439 40.6875 70.4686 41.3412 71.3925L43.3821 69.9486C43.0826 69.5253 42.8831 68.8912 42.8035 68.0472C42.725 67.2153 42.7722 66.2841 42.8762 65.3562L40.3917 65.0779ZM41.3409 71.3922C41.6118 71.7753 41.985 72.0968 42.2954 72.3424C42.6065 72.5885 42.988 72.8586 43.2658 73.0649C43.5768 73.2959 43.8076 73.4819 43.9647 73.6435C44.1409 73.8248 44.09 73.841 44.0675 73.7092L46.5315 73.287C46.425 72.6653 46.0462 72.1981 45.7573 71.9009C45.4492 71.584 45.0778 71.2966 44.7564 71.0579C44.4019 70.7946 44.121 70.5989 43.8466 70.3818C43.5715 70.1642 43.4361 70.0251 43.3823 69.949L41.3409 71.3922ZM44.067 73.7065C44.0122 73.3822 44.2691 73.2588 44.1221 73.3522C43.9614 73.4544 43.6263 73.5794 43.1276 73.6607C42.6511 73.7385 42.1231 73.7606 41.6509 73.7275C41.1508 73.6926 40.833 73.6042 40.7084 73.5423L39.5971 75.7818C40.1494 76.0558 40.8451 76.1773 41.4766 76.2215C42.1358 76.2675 42.8575 76.2379 43.5302 76.1281C44.1806 76.022 44.8943 75.8237 45.4632 75.4621C46.0459 75.0917 46.7136 74.3639 46.532 73.2897L44.067 73.7065ZM40.7035 73.5399C40.5611 73.4701 40.3636 73.2692 39.9796 72.7159C39.6758 72.2783 39.2042 71.534 38.5805 71.0242L36.9984 72.96C37.2789 73.1892 37.5124 73.5459 37.9259 74.1416C38.2591 74.6216 38.7912 75.3863 39.602 75.7842L40.7035 73.5399ZM38.5775 71.0218C38.248 70.7542 37.9828 70.5661 37.7815 70.4238C37.5633 70.2697 37.4827 70.211 37.423 70.1562C37.3987 70.1339 37.3155 70.0925 37.1304 69.5056L34.7462 70.2576C34.9825 71.0068 35.2332 71.5401 35.7332 71.9987C35.9357 72.1844 36.1649 72.3427 36.339 72.4657C36.5298 72.6004 36.7392 72.7494 37.0014 72.9624L38.5775 71.0218ZM37.1311 69.5079C36.7757 68.3733 36.7151 66.9451 36.7518 65.337C36.7865 63.8196 36.9163 62.0475 36.8476 60.5902L34.3503 60.708C34.4139 62.0562 34.2919 63.555 34.2525 65.2798C34.2151 66.9138 34.258 68.6992 34.7455 70.2552L37.1311 69.5079ZM36.8475 60.589C36.7201 57.9407 36.7565 55.252 36.9875 52.628L34.4971 52.4087C34.2552 55.1563 34.2181 57.959 34.3504 60.7092L36.8475 60.589ZM36.9876 52.627C37.0236 52.2141 37.0954 51.691 37.1798 51.0637C37.2622 50.4517 37.3535 49.7614 37.4172 49.0678C37.4807 48.3762 37.5198 47.6529 37.4913 46.9711C37.4635 46.3028 37.3684 45.593 37.1141 44.9695L34.7993 45.9137C34.8972 46.1537 34.971 46.5356 34.9935 47.0752C35.0154 47.6012 34.9862 48.202 34.9277 48.8391C34.8694 49.474 34.7848 50.1167 34.7022 50.7302C34.6216 51.3285 34.5394 51.9237 34.497 52.4097L36.9876 52.627ZM37.1139 44.9691C36.643 43.8158 35.6462 43.016 34.8421 42.4548C34.4287 42.1662 33.9861 41.8889 33.6343 41.6601C33.2581 41.4154 32.9739 41.2188 32.7676 41.0402L31.131 42.93C31.4797 43.232 31.893 43.5098 32.2712 43.7558C32.6737 44.0176 33.0424 44.2474 33.4112 44.5048C34.1715 45.0355 34.6235 45.4833 34.7994 45.9142L37.1139 44.9691ZM32.7649 41.0379C31.1211 39.6224 29.8432 38.0144 29.6184 36.2165L27.1377 36.5267C27.4814 39.2748 29.3619 41.4067 31.1337 42.9323L32.7649 41.0379ZM29.6183 36.2156C29.5213 35.4448 29.4055 34.4043 29.4037 33.3965C29.4018 32.3339 29.5313 31.5373 29.7611 31.1157L27.5659 29.9193C27.0128 30.9341 26.9017 32.2853 26.9037 33.4011C26.9058 34.5716 27.0388 35.74 27.1378 36.5276L29.6183 36.2156ZM29.7637 31.1109C29.9107 30.8383 30.0652 30.766 30.5924 30.3767C30.8271 30.2034 31.1512 29.9443 31.4106 29.5545C31.6847 29.1423 31.8366 28.6628 31.8636 28.1102L29.3666 27.988C29.3626 28.0694 29.3514 28.1143 29.345 28.1347C29.3392 28.1533 29.3339 28.1625 29.3291 28.1698C29.3144 28.1917 29.273 28.2432 29.1071 28.3658C28.833 28.5682 28.046 29.0291 27.5633 29.9242L29.7637 31.1109ZM31.8636 28.1112C31.8834 27.713 31.8887 27.2946 31.8029 26.9366C31.755 26.7369 31.6634 26.485 31.4719 26.2505C31.2677 26.0005 31.019 25.8544 30.7904 25.7728C30.5897 25.7012 30.4042 25.6802 30.3107 25.6707C30.2588 25.6654 30.2062 25.6613 30.17 25.6585C30.1292 25.6552 30.098 25.6527 30.0668 25.6496C29.9591 25.6389 29.8674 25.6229 29.754 25.5771L28.8177 27.8951C29.2244 28.0594 29.5689 28.1125 29.8204 28.1374C29.8789 28.1432 29.9327 28.1475 29.9722 28.1506C30.0163 28.1541 30.0393 28.156 30.0583 28.1579C30.1069 28.1628 30.045 28.1612 29.9504 28.1275C29.828 28.0838 29.6679 27.9939 29.5357 27.8321C29.4162 27.6858 29.38 27.5539 29.3718 27.5195C29.3642 27.488 29.3712 27.5006 29.3742 27.5922C29.3771 27.6789 29.3757 27.805 29.3667 27.987L31.8636 28.1112ZM29.7564 25.5781C29.1831 25.3451 28.6706 25.1836 28.2172 25.0499C27.7443 24.9104 27.3954 24.8172 27.0398 24.6962C26.4051 24.4801 25.8638 24.211 25.2245 23.5762L23.4629 25.35C24.4237 26.3042 25.3164 26.7503 26.2341 27.0628C26.6548 27.206 27.1119 27.3304 27.51 27.4478C27.9278 27.571 28.3516 27.7057 28.8153 27.8942L29.7564 25.5781ZM25.2251 23.5767C24.4514 22.8074 23.4037 21.3667 21.4843 20.7954L20.7712 23.1915C21.9048 23.529 22.3297 24.2232 23.4623 25.3495L25.2251 23.5767ZM21.4863 20.796C20.4077 20.473 19.2315 20.5723 18.5019 20.5803C17.6626 20.5896 17.1675 20.5138 16.765 20.2285L15.3195 22.2683C16.4165 23.0457 17.6219 23.0902 18.5294 23.0802C19.5465 23.069 20.1633 23.0095 20.7692 23.1909L21.4863 20.796ZM16.7667 20.2298C16.4943 20.0361 16.0183 19.5856 15.4846 19.0286C14.973 18.4947 14.4806 17.9397 14.1965 17.6023L12.2843 19.2127C12.6029 19.591 13.1311 20.1859 13.6795 20.7583C14.2058 21.3075 14.8294 21.9197 15.3178 22.2671L16.7667 20.2298ZM14.1953 17.6009C13.2394 16.4692 13.3431 16.5461 12.5162 15.2247L10.397 16.5508C11.224 17.8725 11.2028 17.9323 12.2855 19.2141L14.1953 17.6009ZM74.7958 62.7136C74.5109 63.1633 74.2153 63.6094 73.9103 64.0495L75.9652 65.4735C76.2899 65.0049 76.6045 64.5301 76.9076 64.0515L74.7958 62.7136ZM68.9916 69.8382C53.6346 84.6987 29.0993 84.3353 14.1936 69.0254L12.4023 70.7694C28.2694 87.0666 54.3833 87.4531 70.7301 71.6348L68.9916 69.8382ZM14.1936 69.0254C-0.710118 53.7177 -0.345876 29.2639 15.0089 14.4056L13.2704 12.609C-3.07868 28.4295 -3.46666 54.4702 12.4023 70.7694L14.1936 69.0254ZM15.0089 14.4056C31.0092 -1.07709 54.8881 -0.10487 69.8069 15.2184L71.5981 13.4744C55.7442 -2.80938 30.2872 -3.85733 13.2704 12.609L15.0089 14.4056ZM69.8069 15.2184C81.617 27.3485 83.8403 45.2237 76.6107 59.517L78.8416 60.6454C86.5389 45.4275 84.1753 26.3924 71.5981 13.4744L69.8069 15.2184Z" fill="#FF4445"/>
</svg>
