<?xml version="1.0" encoding="utf-8"?>
<!-- Generator: Adobe Illustrator 25.2.3, SVG Export Plug-In . SVG Version: 6.00 Build 0)  -->
<svg version="1.1" id="Camada_1" xmlns="http://www.w3.org/2000/svg" xmlns:xlink="http://www.w3.org/1999/xlink" x="0px" y="0px"
	 viewBox="0 0 100 100" style="enable-background:new 0 0 100 100;" xml:space="preserve">
<style type="text/css">
	.st0{fill:#FFFFFF;}
</style>
<g id="Fitness_Event_Blue">
	<g id="Text_Top_1_">
	</g>
	<g id="Text_Bottom_1_">
	</g>
</g>
<g id="Fitness_Event_Yellow">
	<g id="Text_Top">
	</g>
	<g id="Text_Bottom">
	</g>
</g>
<g id="Live_Music_Promo_Dark">
	<g id="Text_1_">
	</g>
	<g id="Shapes_1_">
	</g>
</g>
<g id="Live_Music_Promo_Red">
	<g id="Text">
	</g>
	<g id="Shapes">
		<path class="st0" d="M50,100c27.6,0,50-22.4,50-50S77.6,0,50,0S0,22.4,0,50S22.4,100,50,100z M70.3,73.6c-3.4,0-14-11.8-43.8-5.7
			c-0.8,0.2-1.8,0.5-2.4,0.5c-3.8,0-4.5-5.7-0.4-6.6c16.5-3.6,33.4-3.3,47.8,5.3C74.8,69.3,73.4,73.6,70.3,73.6z M75.7,60.4
			c-0.5-0.1-0.3,0.3-2.5-0.9C60.6,52,41.9,49,25.1,53.6c-1,0.3-1.5,0.5-2.4,0.5c-4.5,0-5.6-6.7-0.8-8.1c19.7-5.5,40.7-2.3,55.4,6.4
			c1.6,1,2.3,2.2,2.3,4C79.6,58.6,77.9,60.4,75.7,60.4z M18.9,29.2c18.9-5.5,47.4-3.8,65.1,6.6c4.5,2.6,2.8,9.3-2.1,9.3
			c-1,0-1.7-0.3-2.6-0.8c-14.3-8.6-40-10.6-56.6-6c-0.7,0.2-1.6,0.5-2.6,0.5c-2.7,0-4.7-2.1-4.7-4.8C15.4,31.2,17.1,29.7,18.9,29.2z
			"/>
	</g>
</g>
</svg>
