<?xml version="1.0" encoding="utf-8"?>
<!-- Generator: Adobe Illustrator 25.2.3, SVG Export Plug-In . SVG Version: 6.00 Build 0)  -->
<svg version="1.1" id="Camada_1" xmlns="http://www.w3.org/2000/svg" xmlns:xlink="http://www.w3.org/1999/xlink" x="0px" y="0px"
	 viewBox="0 0 100 100" style="enable-background:new 0 0 100 100;" xml:space="preserve">
<style type="text/css">
	.st0{fill:#FFFFFF;}
</style>
<g id="Fitness_Event_Blue">
	<g id="Text_Top_1_">
	</g>
	<g id="Text_Bottom_1_">
	</g>
</g>
<g id="Fitness_Event_Yellow">
	<g id="Text_Top">
	</g>
	<g id="Text_Bottom">
	</g>
</g>
<g id="Live_Music_Promo_Dark">
	<g id="Text_1_">
	</g>
	<g id="Shapes_1_">
	</g>
</g>
<g id="Live_Music_Promo_Red">
	<g id="Text">
	</g>
	<g id="Shapes">
		<path class="st0" d="M50,0C22.4,0,0,22.4,0,50s22.4,50,50,50s50-22.4,50-50S77.6,0,50,0z M70.1,42.1c0,0.4,0,0.9,0,1.3
			C70.1,57,60,72.7,41.6,72.7c-5.7,0-10.9-1.7-15.4-4.6c0.8,0.1,1.6,0.1,2.4,0.1c4.7,0,9-1.6,12.5-4.4c-4.4-0.1-8.1-3.1-9.4-7.1
			c0.6,0.1,1.2,0.2,1.9,0.2c0.9,0,1.8-0.1,2.6-0.4c-4.6-0.9-8.1-5.1-8.1-10.1v-0.1c1.4,0.8,2.9,1.2,4.5,1.3c-2.7-1.8-4.5-5-4.5-8.6
			c0-1.9,0.5-3.7,1.4-5.2c4.9,6.2,12.3,10.3,20.7,10.7c-0.2-0.7-0.3-1.5-0.3-2.3c0-5.7,4.5-10.3,10-10.3c2.9,0,5.5,1.3,7.3,3.2
			c2.3-0.5,4.4-1.3,6.4-2.5c-0.7,2.4-2.3,4.4-4.4,5.7c2-0.3,4-0.8,5.8-1.6C73.8,38.9,72.1,40.7,70.1,42.1z"/>
	</g>
</g>
</svg>
