<?xml version="1.0" encoding="utf-8"?>
<!-- Generator: Adobe Illustrator 25.2.3, SVG Export Plug-In . SVG Version: 6.00 Build 0)  -->
<svg version="1.1" id="Camada_1" xmlns="http://www.w3.org/2000/svg" xmlns:xlink="http://www.w3.org/1999/xlink" x="0px" y="0px"
	 viewBox="0 0 100 100" style="enable-background:new 0 0 100 100;" xml:space="preserve">
<style type="text/css">
	.st0{fill:#FFFFFF;}
</style>
<g id="Fitness_Event_Blue">
	<g id="Text_Top_1_">
	</g>
	<g id="Text_Bottom_1_">
	</g>
</g>
<g id="Fitness_Event_Yellow">
	<g id="Text_Top">
	</g>
	<g id="Text_Bottom">
	</g>
</g>
<g id="Live_Music_Promo_Dark">
	<g id="Text_1_">
	</g>
	<g id="Shapes_1_">
	</g>
</g>
<g id="Live_Music_Promo_Red">
	<g id="Text">
	</g>
	<g id="Shapes">
		<g>
			<polygon class="st0" points="43.6,60 60.1,50.5 43.6,41.1 			"/>
			<path class="st0" d="M49.9,0.5c-27.6,0-50,22.4-50,50s22.4,50,50,50s50-22.4,50-50S77.5,0.5,49.9,0.5z M81.5,50.6
				c0,0,0,10.3-1.3,15.2c-0.7,2.7-2.9,4.8-5.6,5.6c-4.9,1.3-24.7,1.3-24.7,1.3s-19.7,0-24.7-1.3c-2.7-0.7-4.8-2.9-5.6-5.6
				c-1.3-4.9-1.3-15.2-1.3-15.2s0-10.3,1.3-15.2c0.7-2.7,2.9-4.9,5.6-5.6c4.9-1.3,24.7-1.3,24.7-1.3s19.8,0,24.7,1.3
				c2.7,0.7,4.8,2.9,5.6,5.6C81.6,40.3,81.5,50.6,81.5,50.6z"/>
		</g>
	</g>
</g>
</svg>
