<svg width="70" height="72" viewBox="0 0 70 72" fill="none" xmlns="http://www.w3.org/2000/svg">
<path d="M54.8507 54.9904C54.2761 54.9904 53.806 55.4673 53.806 56.0502V67.1251C53.806 68.6089 52.3955 69.8276 50.6716 69.8276H19.3284C17.6045 69.8276 16.194 68.6089 16.194 67.1251V40.6301C16.194 39.1463 17.6045 37.9276 19.3284 37.9276C19.3806 37.9276 19.4851 37.9276 19.5373 37.9276L27.7388 36.2849C27.791 36.2849 27.8433 36.2849 27.8955 36.2319C28.4701 38.3515 30.194 40.1002 32.4403 40.789C32.4403 40.842 32.4403 40.895 32.4403 40.948V43.1206C32.4403 43.8095 32.7015 44.4983 33.1194 44.9753C32.7015 45.4522 32.4925 46.0351 32.4925 46.6709L31.7612 62.409V62.462C31.7612 63.7868 33.5373 67.2841 35.4179 67.2841C37.2985 67.2841 39.0746 63.7868 39.0746 62.462C39.0746 61.8791 38.6045 61.4022 38.0299 61.4022C37.4552 61.4022 36.9851 61.8791 36.9851 62.462C36.9328 63.0449 35.9925 64.7406 35.4179 65.1115C34.8433 64.7406 33.903 63.0449 33.8507 62.462L34.5299 46.7769V46.7239C34.5299 46.353 34.9478 46.088 35.4179 46.088C35.8881 46.088 36.306 46.406 36.306 46.7239V46.7769L36.9328 55.4143C36.9851 55.9972 37.4552 56.4211 38.0299 56.4211C38.6045 56.3681 39.0746 55.8912 39.0224 55.3083L38.3955 46.7239C38.3955 46.141 38.1866 45.6111 37.8731 45.1872C38.3955 44.6573 38.709 43.9684 38.709 43.1736V41.001C38.709 40.895 38.709 40.789 38.6567 40.683C40.6418 39.8882 42.1045 38.2985 42.6269 36.3379L46.2836 37.0797C46.3358 37.0797 46.4403 37.0797 46.4925 37.0797C46.9627 37.0797 47.4328 36.7088 47.5373 36.2319C47.6418 35.649 47.2761 35.1191 46.7015 35.0131L42.9403 34.2712C42.9403 34.2712 42.9403 34.2712 42.8881 34.2712V30.085C45.709 28.2304 47.5896 24.998 47.5896 21.3416V11.3795C47.5373 5.60356 42.9403 0.94043 37.2463 0.94043H33.2239C27.5821 0.94043 22.9851 5.60356 22.9851 11.3795V21.2887C22.9851 24.945 24.8657 28.1774 27.6866 30.032V34.2182C27.5821 34.2182 27.4776 34.2182 27.3209 34.2182L19.2239 35.8609C16.403 35.8609 14.1045 38.0335 14.1045 40.6301V67.1251C14.1045 69.7746 16.4552 71.9472 19.3284 71.9472H50.6716C53.5448 71.9472 55.8955 69.7746 55.8955 67.1251V56.0502C55.8955 55.4673 55.4254 54.9904 54.8507 54.9904ZM36.5672 41.2129V43.1736C36.5672 43.5445 36.2537 43.8625 35.8881 43.8625H35.209C34.8433 43.8625 34.5299 43.5445 34.5299 43.1736V41.2129H36.5672ZM25.0746 21.2357V11.3795C25.0746 6.76935 28.7313 3.06004 33.2761 3.06004H37.2985C41.791 3.06004 45.4478 6.76935 45.4478 11.3795V21.2887C45.4478 25.8458 41.791 29.5551 37.2463 29.5551H33.2239C28.7313 29.5551 25.0746 25.8458 25.0746 21.2357ZM33.2761 31.6747H37.2985C38.5 31.6747 39.7015 31.4628 40.7985 31.0388V34.7481C40.7985 37.1327 38.5522 39.0933 35.7836 39.0933H34.8955C32.1269 39.0933 29.8806 37.1327 29.8806 34.7481V31.0388C30.8731 31.4628 32.0224 31.6747 33.2761 31.6747Z" fill="#FF4445"/>
<path d="M22.5149 46.512C21.6269 46.512 20.8955 47.2538 20.8955 48.1547V53.3477C20.8955 54.2485 21.6269 54.9904 22.5149 54.9904H27.6343C28.5224 54.9904 29.2537 54.2485 29.2537 53.3477V48.1547C29.2537 47.2538 28.5224 46.512 27.6343 46.512H22.5149ZM27.1642 52.8708H22.9851V48.6316H27.1642V52.8708Z" fill="#FF4445"/>
<path d="M67.0746 37.5036H64.7761V35.1721C64.7761 33.5294 63.4701 32.2046 61.8507 32.2046H57.2537C55.6343 32.2046 54.3284 33.5294 54.3284 35.1721V37.5036H52.0298C50.4104 37.5036 49.1045 38.8284 49.1045 40.4711V45.1342C49.1045 46.7769 50.4104 48.1017 52.0298 48.1017H54.3284V50.4332C54.3284 52.0759 55.6343 53.4007 57.2537 53.4007H61.8507C63.4701 53.4007 64.7761 52.0759 64.7761 50.4332V48.1017H67.0746C68.694 48.1017 70 46.7769 70 45.1342V40.4711C70 38.8284 68.694 37.5036 67.0746 37.5036ZM67.9104 45.1342C67.9104 45.6111 67.5448 45.9821 67.0746 45.9821H63.7313C63.1567 45.9821 62.6866 46.459 62.6866 47.0419V50.4332C62.6866 50.9101 62.3209 51.2811 61.8507 51.2811H57.2537C56.7836 51.2811 56.4179 50.9101 56.4179 50.4332V47.0419C56.4179 46.459 55.9478 45.9821 55.3731 45.9821H52.0298C51.5597 45.9821 51.194 45.6111 51.194 45.1342V40.4711C51.194 39.9942 51.5597 39.6232 52.0298 39.6232H55.3731C55.9478 39.6232 56.4179 39.1463 56.4179 38.5634V35.1721C56.4179 34.6952 56.7836 34.3242 57.2537 34.3242H61.8507C62.3209 34.3242 62.6866 34.6952 62.6866 35.1721V38.5634C62.6866 39.1463 63.1567 39.6232 63.7313 39.6232H67.0746C67.5448 39.6232 67.9104 39.9942 67.9104 40.4711V45.1342Z" fill="#FF4445"/>
<path d="M11.9104 68.4499C10.9701 69.4037 9.76866 69.8806 8.51493 69.8806C5.85075 69.8806 3.70896 67.708 3.70896 65.0055V60.2894C3.70896 59.7065 3.23881 59.2296 2.66418 59.2296C2.08955 59.2296 1.6194 59.7065 1.6194 60.2894V65.0055C1.6194 68.8738 4.70149 72.0002 8.51493 72.0002C10.3433 72.0002 12.0672 71.2584 13.4254 69.9336C13.8433 69.5097 13.8433 68.8738 13.4254 68.4499C12.9552 68.079 12.2761 68.079 11.9104 68.4499Z" fill="#FF4445"/>
<path d="M2.61194 51.2811C2.03731 51.2811 1.56716 51.758 1.56716 52.3409V56.5801C1.56716 57.163 2.03731 57.6399 2.61194 57.6399C3.18657 57.6399 3.65672 57.163 3.65672 56.5801V52.3409C3.65672 51.758 3.18657 51.2811 2.61194 51.2811Z" fill="#FF4445"/>
<path d="M1.56716 48.1017C1.56716 48.6846 2.03731 49.1615 2.61194 49.1615C3.18657 49.1615 3.65672 48.6846 3.65672 48.1017V22.1365H13.0597V29.0252C13.0597 29.6081 13.5299 30.085 14.1045 30.085C14.6791 30.085 15.1493 29.6081 15.1493 29.0252V21.8186C16.0896 21.3416 16.7164 20.3878 16.7164 19.275V9.04792C16.7164 7.51121 15.4627 6.23945 13.9478 6.23945H2.76866C1.25373 6.23945 0 7.51121 0 9.04792V19.275C0 20.3878 0.626866 21.3416 1.56716 21.8186V48.1017ZM2.08955 9.04792C2.08955 8.67699 2.40299 8.35905 2.76866 8.35905H13.8955C14.2612 8.35905 14.5746 8.67699 14.5746 9.04792V19.275C14.5746 19.646 14.2612 19.9639 13.8955 19.9639H2.76866C2.40299 20.0169 2.08955 19.6989 2.08955 19.328V9.04792Z" fill="#FF4445"/>
<path d="M7.83582 27.9654H5.74627C5.17164 27.9654 4.70149 28.4423 4.70149 29.0252C4.70149 29.6081 5.17164 30.085 5.74627 30.085H7.83582C8.41045 30.085 8.8806 29.6081 8.8806 29.0252C8.8806 28.4423 8.41045 27.9654 7.83582 27.9654Z" fill="#FF4445"/>
<path d="M7.83582 33.2644H5.74627C5.17164 33.2644 4.70149 33.7413 4.70149 34.3242C4.70149 34.9071 5.17164 35.384 5.74627 35.384H7.83582C8.41045 35.384 8.8806 34.9071 8.8806 34.3242C8.8806 33.7413 8.41045 33.2644 7.83582 33.2644Z" fill="#FF4445"/>
<path d="M7.83582 37.5036H5.74627C5.17164 37.5036 4.70149 37.9805 4.70149 38.5634C4.70149 39.1463 5.17164 39.6232 5.74627 39.6232H7.83582C8.41045 39.6232 8.8806 39.1463 8.8806 38.5634C8.8806 37.9805 8.41045 37.5036 7.83582 37.5036Z" fill="#FF4445"/>
<path d="M7.83582 41.7429H5.74627C5.17164 41.7429 4.70149 42.2198 4.70149 42.8027C4.70149 43.3855 5.17164 43.8625 5.74627 43.8625H7.83582C8.41045 43.8625 8.8806 43.3855 8.8806 42.8027C8.8806 42.2198 8.41045 41.7429 7.83582 41.7429Z" fill="#FF4445"/>
<path d="M7.83582 47.0419H5.74627C5.17164 47.0419 4.70149 47.5188 4.70149 48.1017C4.70149 48.6846 5.17164 49.1615 5.74627 49.1615H7.83582C8.41045 49.1615 8.8806 48.6846 8.8806 48.1017C8.8806 47.5188 8.41045 47.0419 7.83582 47.0419Z" fill="#FF4445"/>
<path d="M7.83582 52.3409H5.74627C5.17164 52.3409 4.70149 52.8178 4.70149 53.4007C4.70149 53.9836 5.17164 54.4605 5.74627 54.4605H7.83582C8.41045 54.4605 8.8806 53.9836 8.8806 53.4007C8.8806 52.8178 8.41045 52.3409 7.83582 52.3409Z" fill="#FF4445"/>
</svg>
