<svg width="70" height="70" viewBox="0 0 70 70" fill="none" xmlns="http://www.w3.org/2000/svg">
<path d="M0.0489347 49.7725C0.0489347 44.6918 0.143053 39.6111 0.00187557 34.5304C-0.0687131 31.7313 1.86071 29.8966 4.51955 29.8966C11.8137 29.8731 19.1314 29.8496 26.4256 29.8966C28.8491 29.9202 30.5197 31.6608 30.5197 34.0835C30.5197 42.5278 30.5197 50.9485 30.5197 59.3928C30.5197 59.5575 30.5197 59.6986 30.5197 59.8633C30.4491 60.5689 30.2138 61.2275 29.3668 61.2275C28.4726 61.2275 28.1903 60.616 28.1903 59.8162C28.1903 57.464 28.1903 55.1354 28.1903 52.7832C28.1903 51.1367 28.1903 51.1367 26.5432 51.1367C25.0609 51.1367 23.5785 51.1602 22.0961 51.1367C21.3902 51.1132 21.1314 51.3719 21.155 52.0776C21.1785 56.9701 21.1785 61.8391 21.155 66.7316C21.155 67.3902 21.3902 67.6254 22.0491 67.6019C23.4608 67.5784 24.8726 67.6019 26.2609 67.5784C27.6021 67.5548 28.0962 67.1079 28.1903 65.7672C28.2374 64.9675 28.3079 64.1913 29.3432 64.2618C30.4256 64.3324 30.5903 65.1321 30.5432 66.026C30.4491 68.1664 28.755 69.907 26.6138 69.907C19.0373 69.9305 11.4608 69.9305 3.88425 69.907C1.64894 69.907 0.0959938 68.284 0.0724643 66.026C0.0489347 60.616 0.0489347 55.1824 0.0489347 49.7725ZM28.0726 39.2818C28.0726 37.5647 28.0256 36.0593 28.0962 34.5304C28.1668 33.025 27.6256 32.3664 26.0962 32.3664C22.755 32.3664 19.4138 32.3899 16.049 32.3664C14.5431 32.3664 13.0137 32.2253 11.5078 32.2018C9.0137 32.2018 6.51956 32.2488 4.04896 32.2488C3.01366 32.2488 2.42542 32.7192 2.42542 33.7542C2.40189 35.236 2.49601 36.7179 2.44895 38.1998C2.42542 38.9995 2.70777 39.2818 3.53131 39.2818C5.97838 39.2347 8.42546 39.2583 10.8725 39.2583C16.1667 39.2583 21.4844 39.2583 26.7785 39.2818C27.155 39.2818 27.5785 39.2818 28.0726 39.2818ZM9.39017 54.6885C9.39017 53.7947 9.36664 52.9008 9.39017 52.007C9.4137 51.419 9.1784 51.1602 8.56664 51.1602C6.80192 51.1838 5.06073 51.1838 3.29601 51.1602C2.66072 51.1602 2.37836 51.3719 2.40189 52.0541C2.42542 53.8182 2.42542 55.5588 2.40189 57.3229C2.40189 57.958 2.61366 58.2403 3.29601 58.2403C5.06073 58.2167 6.80192 58.2167 8.56664 58.2403C9.15488 58.2403 9.4137 58.005 9.4137 57.417C9.36664 56.4761 9.39017 55.5823 9.39017 54.6885ZM9.34311 41.7751C7.1078 41.7751 5.10779 41.7516 3.08425 41.7986C2.84895 41.7986 2.44895 42.2455 2.44895 42.5043C2.40189 44.3389 2.37836 46.1501 2.44895 47.9848C2.44895 48.2435 2.91954 48.714 3.17837 48.714C5.01367 48.7845 6.82545 48.761 8.66076 48.714C8.89605 48.714 9.31958 48.3376 9.31958 48.1495C9.36664 46.0795 9.34311 43.9861 9.34311 41.7751ZM9.36664 67.5784C9.36664 65.3438 9.39017 63.2739 9.34311 61.2275C9.34311 60.9923 8.87252 60.616 8.63722 60.616C6.80192 60.5689 4.96661 60.5454 3.15484 60.616C2.89601 60.616 2.47248 61.1099 2.44895 61.3922C2.37836 62.9446 2.40189 64.497 2.42542 66.0495C2.42542 66.8962 2.87248 67.5313 3.74308 67.5548C5.55485 67.6254 7.36663 67.5784 9.36664 67.5784ZM21.155 48.6669C23.5079 48.6669 25.7432 48.6669 27.9785 48.6669C27.9785 46.3618 27.9785 44.1273 27.9785 41.7751C25.8609 41.7751 23.8373 41.7516 21.8138 41.7986C21.5785 41.7986 21.1785 42.1749 21.1785 42.3866C21.1314 44.4566 21.155 46.5029 21.155 48.6669ZM18.6373 48.6199C18.6373 46.5029 18.6608 44.4801 18.6138 42.4572C18.6138 42.222 18.1432 41.8221 17.9079 41.8221C16.1432 41.7751 14.402 41.7751 12.6373 41.8221C12.3784 41.8221 11.8843 42.1279 11.8843 42.3161C11.8372 44.4095 11.8608 46.5029 11.8608 48.6199C14.1431 48.6199 16.2843 48.6199 18.6373 48.6199ZM18.6373 60.71C16.4726 60.71 14.4961 60.6865 12.5196 60.7571C12.2843 60.7571 11.8608 61.251 11.8372 61.5333C11.7667 63.2504 11.7667 64.9675 11.8372 66.6845C11.8608 66.9903 12.3078 67.5313 12.5902 67.5313C14.3784 67.6019 16.1667 67.6019 17.9785 67.5313C18.2138 67.5313 18.6138 67.0844 18.6373 66.8492C18.6608 64.8499 18.6373 62.874 18.6373 60.71ZM18.5902 51.2308C16.4961 51.2308 14.4726 51.2073 12.449 51.2543C12.2372 51.2543 11.8372 51.6542 11.8372 51.8894C11.7902 53.7476 11.7902 55.6294 11.8372 57.4876C11.8372 57.6757 12.1902 58.0286 12.402 58.0286C14.449 58.0756 16.4961 58.0521 18.5902 58.0521C18.5902 55.747 18.5902 53.63 18.5902 51.2308Z" fill="#FF4445"/>
<path d="M47.7434 2.61147C47.7198 3.03486 47.6728 3.38769 47.6728 3.74051C47.6728 6.79833 47.6728 9.83263 47.6728 12.8905C47.6728 14.7251 48.4728 15.5014 50.3316 15.5249C52.3551 15.5484 54.4022 15.5484 56.4258 15.5249C57.2728 15.5249 57.9787 15.7836 57.9787 16.7245C57.9787 17.6654 57.2493 17.877 56.4258 17.877C54.2846 17.8535 52.1199 17.9006 49.9787 17.877C47.2728 17.8535 45.3669 15.9247 45.3669 13.1962C45.3433 9.99728 45.3198 6.79833 45.3669 3.59938C45.3904 2.68204 45.108 2.39978 44.1669 2.39978C34.2374 2.4233 24.3079 2.4233 14.402 2.4233C12.1667 2.4233 11.1784 3.69347 11.249 5.92803C11.3667 9.05642 11.2961 12.1848 11.2961 15.2897C11.2961 18.4886 11.2961 21.6876 11.2961 24.91C11.2961 25.3569 11.2725 25.8979 11.0608 26.2508C10.849 26.6036 10.3549 27.0035 10.0255 26.9564C9.62547 26.9094 9.1784 26.486 8.94311 26.1096C8.75487 25.8274 8.82546 25.3569 8.82546 24.9806C8.82546 18.5827 8.87252 12.1613 8.80193 5.76338C8.70781 2.84669 10.9667 -0.0464774 14.4726 0.000566023C25.1079 0.118174 35.7197 0.0476094 46.3551 0.0240877C48.9198 0.0240877 51.061 0.89439 52.8493 2.70556C55.4375 5.31647 58.0493 7.90385 60.6376 10.4912C62.2611 12.1142 63.1082 14.0665 63.1317 16.3717C63.1552 19.6177 63.1317 22.8636 63.1552 26.0861C63.1552 26.9094 62.9435 27.6621 62.0258 27.6856C61.014 27.7091 60.8023 26.9329 60.8023 26.0626C60.8258 23.0048 60.8023 19.9705 60.8023 16.9127C60.8023 14.8663 60.1434 13.1257 58.6611 11.6673C56.1434 9.22107 53.6963 6.70425 51.1787 4.21095C50.261 3.31712 49.2022 2.65852 47.7434 2.61147Z" fill="#FF4445"/>
<path d="M48.4728 58.3343C52.3787 53.6535 56.1434 49.1609 59.9317 44.6683C60.7317 43.7039 61.5787 42.7865 62.3787 41.8456C62.8493 41.3046 63.414 41.093 64.0023 41.5634C64.614 42.0573 64.6611 42.6689 64.1435 43.304C62.3787 45.3739 60.614 47.4673 58.8728 49.5372C55.7669 53.2301 52.6846 56.923 49.5551 60.5924C49.2963 60.8982 48.9198 61.1805 48.5434 61.2981C46.4728 62.0037 44.4022 62.6859 42.3316 63.321C41.1551 63.6973 40.4727 63.0857 40.5904 61.8391C40.7786 60.169 41.061 58.5225 41.1315 56.8525C41.2021 54.5709 42.8727 53.2772 44.1198 51.7483C47.2492 47.9378 50.4493 44.1743 53.6257 40.3873C56.214 37.306 58.8258 34.2246 61.4376 31.1433C62.614 29.732 64.9199 28.9087 66.8023 30.6493C67.6023 31.3785 68.5435 31.9901 69.2258 32.8133C70.3082 34.1305 70.2141 35.9182 69.2023 37.2354C68.4964 38.1527 67.7435 39.0701 66.9905 39.9404C66.4494 40.5755 65.8141 40.8342 65.0846 40.1991C63.814 39.1171 62.4964 38.0822 61.2729 36.9767C60.5905 36.3651 60.214 36.224 59.5317 37.0707C55.9316 41.3987 52.261 45.6797 48.6139 49.9606C47.3904 51.419 46.1433 52.8773 44.9669 54.3592C44.8022 54.5709 44.708 55.1354 44.8492 55.253C45.9551 56.3115 47.1786 57.2759 48.4728 58.3343ZM65.6729 37.6117C66.1435 37.1884 66.4964 36.8826 66.8258 36.5768C67.6023 35.8241 67.7905 34.7656 67.2964 34.0364C66.4729 32.8839 64.5199 31.896 63.7435 32.2723C63.5787 32.3664 63.414 32.484 63.2964 32.6251C62.9905 32.978 62.7082 33.3543 62.3787 33.6836C61.8611 34.1776 61.9552 34.648 62.4493 35.0479C63.4846 35.9182 64.567 36.7414 65.6729 37.6117ZM43.5551 57.3229C43.4139 58.5696 43.2963 59.4869 43.1551 60.6159C44.261 60.2631 45.1316 59.9809 46.2845 59.6045C45.2963 58.7813 44.5433 58.1462 43.5551 57.3229Z" fill="#FF4445"/>
<path d="M46.5433 69.9541C42.8727 69.9541 39.2021 69.9541 35.5315 69.9541C35.2256 69.9541 34.8256 70.0717 34.6139 69.9305C34.1433 69.6012 33.7903 69.1543 33.3903 68.7545C33.7668 68.3781 34.1197 67.9312 34.5668 67.6489C34.8256 67.4843 35.2492 67.6019 35.6021 67.6019C42.8257 67.6019 50.0492 67.6019 57.2964 67.6019C59.8611 67.6019 60.8258 66.614 60.8258 64.0736C60.8258 59.8868 60.8258 55.7234 60.8258 51.5366C60.8258 50.6428 60.9434 49.7725 62.0493 49.8195C63.0611 49.843 63.1787 50.6898 63.1787 51.5366C63.1552 55.9116 63.1787 60.2867 63.1552 64.6617C63.1317 67.743 60.9199 69.9305 57.814 69.9541C54.0493 69.9776 50.2845 69.9541 46.5433 69.9541Z" fill="#FF4445"/>
<path d="M37.4609 25.1217C31.4138 25.1217 25.3432 25.1217 19.2961 25.1217C19.0608 25.1217 18.8255 25.1217 18.5902 25.1217C17.7432 25.1453 17.0138 24.8395 17.0373 23.9221C17.0608 23.0283 17.7667 22.7696 18.6138 22.7696C31.2021 22.7931 43.7669 22.7931 56.3552 22.7696C57.2022 22.7696 57.9317 23.0048 57.9552 23.9221C57.9787 24.9336 57.2022 25.1217 56.3316 25.1217C50.0493 25.1217 43.7669 25.1217 37.4609 25.1217Z" fill="#FF4445"/>
<path d="M45.7669 29.8731C49.2022 29.8731 52.6375 29.8731 56.0728 29.8731C56.4493 29.8731 56.9199 29.8496 57.2022 30.0378C57.5317 30.273 57.9552 30.7199 57.9317 31.0727C57.9081 31.4726 57.5081 31.943 57.1552 32.2018C56.8728 32.3899 56.4022 32.3664 56.0258 32.3664C49.1081 32.3664 42.1904 32.3664 35.2727 32.3664C35.0844 32.3664 34.8727 32.3899 34.6844 32.3664C33.9786 32.2723 33.3433 32.0371 33.3668 31.1668C33.3903 30.32 33.9315 29.8966 34.7315 29.8966C36.1668 29.8731 37.6256 29.8966 39.061 29.8966C41.3198 29.8731 43.5551 29.8731 45.7669 29.8731Z" fill="#FF4445"/>
<path d="M29.3903 15.5249C32.9433 15.5249 36.4962 15.5484 40.0492 15.5249C40.9433 15.5249 41.7198 15.7131 41.7198 16.701C41.7198 17.7124 40.8963 17.877 40.0492 17.877C32.9433 17.877 25.8373 17.877 18.7314 17.877C17.8608 17.877 17.0373 17.6889 17.0608 16.701C17.0608 15.7131 17.8608 15.5249 18.7314 15.5249C22.2844 15.5484 25.8373 15.5249 29.3903 15.5249Z" fill="#FF4445"/>
<path d="M42.261 37.1178C44.6375 37.1178 47.0139 37.1178 49.3904 37.1178C50.2375 37.1178 51.0845 37.2824 51.0845 38.2704C51.0845 39.1877 50.3551 39.4935 49.4375 39.47C44.6375 39.4464 39.8374 39.4464 35.0374 39.47C34.1197 39.47 33.4139 39.1642 33.4139 38.2233C33.4139 37.2824 34.1668 37.0943 34.9903 37.1178C37.4139 37.1413 39.8374 37.1413 42.261 37.1178Z" fill="#FF4445"/>
<path d="M39.1551 44.3625C40.5668 44.3625 41.9551 44.3625 43.3669 44.3625C44.1669 44.3625 44.8022 44.6683 44.8257 45.515C44.8728 46.4324 44.1669 46.6911 43.4139 46.6911C40.5668 46.7146 37.7198 46.7146 34.8727 46.6911C34.1197 46.6911 33.3903 46.4559 33.4139 45.5621C33.4374 44.6447 34.0962 44.3625 34.9433 44.3625C36.3315 44.3625 37.7433 44.3625 39.1551 44.3625Z" fill="#FF4445"/>
</svg>
