<svg width="70" height="58" viewBox="0 0 70 58" fill="none" xmlns="http://www.w3.org/2000/svg">
<path d="M8.00995 30.3894H6.19901C5.57214 30.3894 5.08458 30.8073 5.15423 31.5038C5.08458 31.7824 5.22388 32.061 5.36318 32.27C5.57214 32.4789 5.85075 32.6182 6.19901 32.6182H8.00995C8.63682 32.6182 9.05473 32.2003 9.05473 31.5038C9.12438 30.9466 8.56716 30.3894 8.00995 30.3894Z" fill="#FF4445"/>
<path d="M8.00995 35.3346H6.19901C5.57214 35.3346 5.08458 35.7525 5.15423 36.4491C5.08458 36.7277 5.22388 37.0063 5.36318 37.2152C5.57214 37.4242 5.85075 37.5635 6.19901 37.5635H8.00995C8.63682 37.5635 9.05473 37.1456 9.05473 36.4491C9.12438 35.8918 8.56716 35.3346 8.00995 35.3346Z" fill="#FF4445"/>
<path d="M2.50746 44.5287C3.13433 44.5287 3.62189 44.1107 3.62189 43.4142V39.653C3.62189 39.0262 3.13433 38.5386 2.50746 38.5386C1.8806 38.5386 1.46269 38.9565 1.46269 39.653V43.3446C1.46269 44.0411 1.8806 44.5287 2.50746 44.5287Z" fill="#FF4445"/>
<path d="M14.4876 1.20563C14 0.718063 13.3035 0.369805 12.5373 0.369805H2.64677C1.18408 0.369805 0 1.55388 0 3.01657V11.0962C0 12.0713 0.557214 12.9071 1.39303 13.3947V35.8225C1.39303 36.4494 1.8806 36.937 2.43781 36.937C3.06468 36.937 3.55224 36.5191 3.55224 35.8225V13.8126H11.5622V23.1459C11.5622 23.7728 12.0498 24.2604 12.607 24.2604C13.2338 24.2604 13.7214 23.8424 13.7214 23.1459V13.4643C14.5572 13.0464 15.1144 12.0713 15.1144 11.0962V3.08622C15.1841 2.32005 14.9751 1.69319 14.4876 1.20563ZM2.22886 3.01657C2.22886 2.80762 2.50746 2.52901 2.64677 2.52901H12.5373C12.8159 2.52901 12.9552 2.73796 12.9552 3.01657V11.0962C12.9552 11.3748 12.7463 11.5837 12.5373 11.5837H2.64677C2.36816 11.5837 2.22886 11.3748 2.22886 11.0962V3.01657Z" fill="#FF4445"/>
<path d="M6.19901 24.26H8.00995C8.63682 24.26 9.05473 23.8421 9.05473 23.1456C9.05473 22.5187 8.56716 22.0311 8.00995 22.0311H6.19901C5.57214 22.0311 5.08458 22.4491 5.15423 23.1456C5.08458 23.4242 5.22388 23.7028 5.36318 23.9117C5.57214 24.1207 5.9204 24.26 6.19901 24.26Z" fill="#FF4445"/>
<path d="M11.4229 53.4441C11.1443 53.4441 10.8657 53.5834 10.7264 53.862C9.89055 54.6282 8.91542 55.0461 7.87065 55.0461C5.64179 55.0461 3.76119 53.1655 3.76119 50.9366V46.7575C3.76119 46.1306 3.27363 45.6431 2.64677 45.6431C2.0199 45.6431 1.60199 46.061 1.60199 46.7575V50.9366C1.60199 54.4888 4.45771 57.3446 7.87065 57.3446C9.54229 57.3446 11.1443 56.6481 12.3284 55.464C12.7463 55.0461 12.7463 54.3495 12.3284 53.9316C11.9801 53.5834 11.7015 53.4441 11.4229 53.4441Z" fill="#FF4445"/>
<path d="M5.36318 28.5784C5.57214 28.857 5.9204 28.9963 6.19901 28.9963H8.00995C8.63682 28.9963 9.05473 28.5784 9.05473 27.8819C9.05473 27.255 8.56716 26.7675 8.00995 26.7675H6.19901C5.57214 26.7675 5.08458 27.1854 5.15423 27.8819C5.08458 28.0908 5.15423 28.3695 5.36318 28.5784Z" fill="#FF4445"/>
<path d="M8.00995 41.255H6.199C5.57214 41.255 5.08458 41.6729 5.08458 42.3695C5.08458 42.9963 5.57214 43.4839 6.199 43.4839H8.00995C8.63682 43.4839 9.05473 43.066 9.05473 42.3695C9.12438 41.7426 8.56716 41.255 8.00995 41.255Z" fill="#FF4445"/>
<path d="M54.8159 16.9466H25.5622C24.9353 16.9466 24.5174 17.3645 24.5174 18.061C24.5174 18.6879 25.005 19.1754 25.5622 19.1754H54.8159C55.4428 19.1754 55.8607 18.7575 55.8607 18.061C55.9303 17.4341 55.4428 16.9466 54.8159 16.9466Z" fill="#FF4445"/>
<path d="M54.8159 25.3048H25.5622C24.9353 25.3048 24.5174 25.7227 24.5174 26.4192C24.5174 27.0461 25.005 27.5336 25.5622 27.5336H54.8159C55.4428 27.5336 55.8607 27.1157 55.8607 26.4192C55.9303 25.7923 55.4428 25.3048 54.8159 25.3048Z" fill="#FF4445"/>
<path d="M53.0746 34.3595H25.5622C24.9353 34.3595 24.5174 34.7774 24.5174 35.4739C24.5174 36.1008 25.005 36.5884 25.5622 36.5884H53.0746C53.7015 36.5884 54.1194 36.1704 54.1194 35.4739C54.1891 34.8471 53.7015 34.3595 53.0746 34.3595Z" fill="#FF4445"/>
<path d="M69.7214 48.9864C69.7214 48.9167 69.7214 48.8471 69.6517 48.8471C69.6517 48.7774 69.6517 48.7774 69.6517 48.6381C69.6517 48.5685 69.5821 48.4988 69.5124 48.4292L67.8408 44.9466C67.7015 44.668 67.4925 44.459 67.2139 44.3894C66.9353 44.3197 66.6567 44.3197 66.4478 44.459C66.2388 44.5983 66.0298 44.8073 65.8905 45.0859C65.8209 45.3645 65.8209 45.6431 65.8905 45.9217L67.4925 49.3346C67.4925 49.4043 67.4925 49.4739 67.5622 49.6132C67.7711 50.1008 67.7711 50.5187 67.7711 51.0063C67.7711 53.5834 65.6816 55.7426 63.1045 55.7426C60.5274 55.7426 58.4378 53.653 58.4378 51.0063C58.4378 50.3794 58.5075 49.9615 58.7164 49.4043V49.3346C58.7164 49.265 58.7861 49.1257 58.8557 49.056C58.9254 48.9864 58.9254 48.8471 58.995 48.7774H59.0647L63.0348 39.9316L64.2886 42.4391C64.4279 42.7177 64.6368 42.9267 64.9154 42.9963C65.194 43.066 65.4726 43.066 65.6816 42.9267C65.8905 42.7874 66.0995 42.5784 66.2388 42.2998C66.3085 42.0212 66.3085 41.7426 66.2388 41.464L64.8458 38.5386C64.4975 37.7724 63.8706 37.3545 63.1741 37.3545C62.408 37.3545 61.7114 37.8421 61.5025 38.5386L57.3234 47.663C57.1841 47.8719 57.0448 48.1505 56.9055 48.4988V48.5685C56.6269 49.265 56.4876 50.0311 56.4876 50.867C56.4876 54.6282 59.4826 57.6928 63.2438 57.6928C67.005 57.6928 70 54.6282 69.9303 50.867C70.0696 50.2401 69.9303 49.5436 69.7214 48.9864Z" fill="#FF4445"/>
<path d="M50.4279 47.3147C51.0547 47.3147 51.5423 46.8968 51.5423 46.2003C51.5423 45.5734 51.0547 45.0859 50.4279 45.0859H25.5622C24.9353 45.0859 24.5174 45.5038 24.5174 46.2003C24.5174 46.8272 25.005 47.3147 25.5622 47.3147H50.4279Z" fill="#FF4445"/>
<path d="M31.2736 6.42916C31.2736 5.73264 30.7164 5.17543 30.0199 5.17543C29.3234 5.17543 28.7662 5.73264 28.7662 6.42916C28.7662 7.12567 29.3234 7.68289 30.0199 7.68289C30.7164 7.68289 31.2736 7.12567 31.2736 6.42916Z" fill="#FF4445"/>
<path d="M53.4229 55.9515C53.0746 55.6033 52.6567 55.3943 52.1692 55.3943H19.8507C19.0846 55.3943 18.4577 54.7675 18.4577 54.0709V12.4889H25.7711C26.3284 12.4889 26.8159 12.0013 26.8159 11.5137C26.8159 10.8869 26.3284 10.5386 25.7711 10.5386H18.4577V3.99135C18.4577 3.29483 19.0846 2.66796 19.8507 2.66796H60.6667C61.4328 2.66796 62.0597 3.29483 62.0597 3.99135V10.469H31.4129C30.8557 10.469 30.4378 10.9565 30.4378 11.4441C30.4378 12.0013 30.8557 12.4192 31.4129 12.4192H62.0597V34.2898C62.0597 34.9167 62.5473 35.4043 63.2438 35.4043C63.9403 35.4043 64.4279 34.9167 64.4279 34.2898V3.92169C64.4279 1.90179 62.8259 0.299805 60.806 0.299805H19.8507C17.8308 0.299805 16.2289 1.97145 16.2289 3.92169V54.0013C16.2289 56.0212 17.8308 57.6232 19.8507 57.6232H53.8408V56.9963C53.8408 56.6481 53.7015 56.2998 53.4229 55.9515Z" fill="#FF4445"/>
<path d="M25.1443 6.42916C25.1443 7.12567 25.7015 7.68289 26.398 7.68289C27.0945 7.68289 27.6517 7.12567 27.6517 6.42916C27.6517 5.73264 27.0945 5.17543 26.398 5.17543C25.7015 5.17543 25.1443 5.80229 25.1443 6.42916Z" fill="#FF4445"/>
<path d="M21.3831 6.42916C21.3831 7.12567 21.9403 7.68289 22.6368 7.68289C23.3333 7.68289 23.8905 7.12567 23.8905 6.42916C23.8905 5.73264 23.3333 5.17543 22.6368 5.17543C21.9403 5.17543 21.3831 5.80229 21.3831 6.42916Z" fill="#FF4445"/>
</svg>
