<svg width="15" height="17" viewBox="0 0 15 17" fill="none" xmlns="http://www.w3.org/2000/svg">
<path d="M3.71513 9.97056C3.71513 9.67247 3.50266 9.49495 3.12817 9.49495C2.97531 9.49495 2.87176 9.50947 2.81749 9.52361V10.4797C2.88169 10.4938 2.96041 10.4983 3.06932 10.4983C3.46827 10.4986 3.71513 10.3021 3.71513 9.97056Z" fill="white"/>
<path d="M6.03393 9.505C5.86618 9.505 5.75765 9.51914 5.69383 9.53366V11.6512C5.75803 11.6657 5.86159 11.6657 5.95521 11.6657C6.6358 11.6705 7.07946 11.3054 7.07946 10.5325C7.08443 9.8604 6.67974 9.505 6.03393 9.505Z" fill="white"/>
<path d="M10.3425 0.119629H2.94245C1.86139 0.119629 0.981708 0.977056 0.981708 2.02912V7.3979H0.790258C0.353858 7.39827 0 7.74251 0 8.16788V12.8346C0 13.26 0.353858 13.6042 0.790258 13.6042H0.981708V14.4598C0.981708 15.5129 1.86177 16.3696 2.94283 16.3696H13.0396C14.1199 16.3696 15 15.5133 15 14.4598V4.63936L10.3425 0.119629ZM2.07309 9.01004C2.30466 8.97208 2.63024 8.94306 3.08881 8.94306C3.55234 8.94306 3.88251 9.0294 4.10453 9.20207C4.31661 9.36507 4.45953 9.63414 4.45953 9.9512C4.45953 10.2679 4.351 10.537 4.15382 10.7197C3.89741 10.9549 3.51795 11.0606 3.07391 11.0606C2.97531 11.0606 2.88666 11.0557 2.81749 11.0464V12.2038H2.07309V9.01004ZM13.0396 15.2H2.94245C2.52401 15.2 2.18315 14.868 2.18315 14.4598V13.6042H11.5955C12.0319 13.6042 12.3858 13.26 12.3858 12.8346V8.16788C12.3858 7.74251 12.0319 7.39827 11.5955 7.39827H2.18315V2.02912C2.18315 1.62199 2.52401 1.29003 2.94245 1.29003L9.89313 1.28296V3.78528C9.89313 4.51618 10.5019 5.10975 11.2532 5.10975L13.7699 5.10268L13.7982 14.4598C13.7982 14.868 13.4581 15.2 13.0396 15.2ZM4.93949 12.1889V9.01004C5.21578 8.96725 5.57537 8.94306 5.95521 8.94306C6.5865 8.94306 6.99577 9.05321 7.31638 9.28841C7.66145 9.53812 7.87812 9.93669 7.87812 10.5083C7.87812 11.1276 7.64655 11.5552 7.32594 11.819C6.9759 12.1022 6.4432 12.2366 5.79281 12.2366C5.40264 12.2369 5.12674 12.2131 4.93949 12.1889ZM10.3211 10.307V10.9024H9.12771V12.2038H8.37337V8.96725H10.4048V9.56715H9.12771V10.307H10.3211Z" fill="white"/>
</svg>
