<svg width="80" height="80" viewBox="0 0 80 80" fill="none" xmlns="http://www.w3.org/2000/svg">
<path d="M5.09994 73.9634C5.73158 73.9444 6.36321 73.9599 6.99485 73.9599C7.60626 73.9599 8.21887 73.9456 8.83028 73.9634C9.5654 73.9848 10.0424 74.4179 10.0638 75.0457C10.084 75.6331 9.58206 76.2146 8.90522 76.2371C7.60388 76.2787 6.29898 76.281 4.99883 76.2312C4.3101 76.2039 3.84619 75.6129 3.89496 75.0053C3.94849 74.3586 4.36363 73.9848 5.09994 73.9634Z" fill="#FF4445"/>
<path d="M0.00971446 67.3665C0.00971446 64.1031 0.0346944 60.8397 0.000198292 57.5763C-0.0200236 55.6408 1.5097 54.3924 3.08581 54.4315C5.6754 54.4956 8.26856 54.441 10.8593 54.4564C11.2459 54.4588 11.6575 54.4944 12.012 54.6333C13.3918 55.1732 13.9711 56.2697 13.9628 57.6961C13.9604 58.1589 14.0877 58.3168 14.5611 58.3085C16.0445 58.2824 17.529 58.3227 19.0111 58.2812C19.3418 58.2717 19.7153 58.0937 19.9841 57.8836C20.9572 57.1277 21.8719 56.297 22.8521 55.5518C23.5087 55.0522 24.2236 54.6309 24.9468 54.1645C25.0372 54.1064 25.0444 53.9758 24.9623 53.907C17.7609 47.8987 13.8355 40.273 13.6607 30.8779C13.4822 21.3653 17.1412 13.4702 24.3199 7.27685C35.869 -2.68549 53.6131 -2.67956 65.2192 8.91212C71.8591 15.5434 74.8103 23.6521 74.0157 33.0318C73.2199 42.4138 68.7105 49.6883 61.1927 55.1697C61.1249 55.2195 61.1071 55.3132 61.1511 55.3844C61.3533 55.7084 61.5377 56.0063 61.7387 56.3291C61.791 56.4145 61.9088 56.4299 61.9837 56.3635C62.1241 56.2353 62.2549 56.119 62.3798 55.9968C64.9908 53.4442 67.6125 50.9035 70.2045 48.3319C71.7461 46.8034 73.5494 46.3121 75.6228 46.8651C77.871 47.4656 79.3162 48.9561 79.8349 51.1847C80.3571 53.43 79.6148 55.3536 77.9745 56.9829C72.8988 62.024 67.7886 67.0331 62.814 72.1727C60.1816 74.8926 57.1507 76.192 53.3692 76.173C42.4423 76.1196 31.1668 76.1303 20.2387 76.1374C19.475 76.1374 19.2038 75.5275 19.2038 74.7644C19.2038 74.7644 19.0528 73.8827 20.1126 73.8554C31.5546 73.5599 43.0038 73.8519 54.4493 73.8436C56.9223 73.8424 58.9338 72.8194 60.6634 71.0643C64.8541 66.8124 69.0935 62.6091 73.3187 58.3915C74.4226 57.2903 75.6763 56.3124 76.6315 55.0973C78.1957 53.1072 78.2635 50.7005 75.6359 49.2907C74.6379 48.7555 72.8524 48.8647 71.902 49.82C68.7842 52.9565 65.6046 56.0336 62.4595 59.1439C62.2883 59.3124 62.1408 59.5628 62.1003 59.7954C61.7173 62.0323 59.6011 64.0509 57.2923 64.1043C54.9596 64.1589 52.6258 64.1399 50.2919 64.1435C46.9292 64.1482 43.5676 64.1494 40.2048 64.1411C39.2282 64.1387 38.8047 63.6949 38.9178 62.8191C38.9832 62.3088 39.2889 62.0074 39.8016 61.9469C40.0359 61.9196 40.275 61.9255 40.5129 61.9255C45.8527 61.9243 51.1924 61.9303 56.5334 61.9208C58.0024 61.9184 59.0944 61.2788 59.7225 59.9176C60.6063 58.0011 59.1586 55.5684 57.046 55.534C53.625 55.4794 50.2015 55.4438 46.7829 55.5162C45.1687 55.5506 43.6758 55.1768 42.1485 54.7757C40.7841 54.4173 39.3769 54.1954 37.9768 54.0067C36.8064 53.8489 35.6168 53.7504 34.438 53.761C31.4809 53.7871 28.7545 54.714 26.1804 56.1071C24.2747 57.1396 22.5773 58.458 21.0833 60.0327C20.7419 60.3935 20.3481 60.562 19.8283 60.5549C17.9643 60.5288 16.0992 60.543 14.1365 60.5442C14.0484 60.5442 13.9759 60.6154 13.9759 60.7044V61.2123C13.9759 65.2068 13.9854 69.2012 13.964 73.1944C13.964 73.2917 13.9687 73.3748 13.9806 73.4472C13.9818 73.4543 13.983 73.4626 13.983 73.4697V76.5801C13.9806 76.6382 13.9783 76.694 13.9783 76.7498C13.9687 78.5405 12.4866 79.9764 10.6952 79.9859C8.19481 80.0001 5.69324 80.0144 3.19287 79.9705C2.62428 79.961 2.0093 79.8115 1.50494 79.5528C0.390361 78.9796 0.00971446 77.9483 0.0120935 76.7391C0.013283 73.6157 0.00971446 70.4911 0.00971446 67.3665ZM15.9469 32.1762C16.305 34.1698 16.531 36.1979 17.0448 38.1512C17.9013 41.4063 19.4489 44.3576 21.4699 47.0562C22.0337 47.8097 22.0135 47.7813 22.8842 47.3968C24.9052 46.5044 26.9417 45.644 29.0447 44.7409C29.1161 44.7101 29.1565 44.6318 29.1375 44.5558C28.8913 43.5471 28.5915 42.4755 28.3857 41.3873C28.0681 39.7058 27.7707 38.0159 27.5614 36.3177C27.377 34.8296 27.314 33.3273 27.2224 31.8285C27.1986 31.4475 26.9845 31.438 26.7085 31.438C25.3441 31.4404 23.9809 31.4392 22.6166 31.4392C20.6205 31.4392 18.6233 31.4606 16.6273 31.425C16.0254 31.4131 15.8482 31.6255 15.9469 32.1762ZM21.8624 13.0846C19.7522 15.776 18.1844 18.7487 17.1721 22.0251C16.5643 23.9939 16.205 25.9994 16.0028 28.0393C15.9719 28.3526 15.9909 28.6719 15.9957 29.0041C15.9969 29.0919 16.0682 29.1631 16.1563 29.1631H27.0106C27.0939 29.1631 27.1641 29.0991 27.17 29.0148C27.2212 28.3823 27.2652 27.7676 27.3259 27.1541C27.5186 25.1913 27.6387 23.2178 27.9397 21.2716C28.2037 19.5651 28.6593 17.8871 29.0626 16.2044C29.1458 15.8579 29.1232 15.7546 28.7545 15.6324C26.5753 14.9097 24.4341 14.0861 22.4203 12.9635C22.2906 12.8923 21.9564 12.9647 21.8624 13.0846ZM23.7763 10.8844C23.699 10.9627 23.724 11.0945 23.8227 11.1419C24.7934 11.6059 25.6724 12.0545 26.5812 12.4354C27.4853 12.814 28.4262 13.1035 29.3457 13.4429C29.7049 13.5758 29.8964 13.6031 30.0796 13.1273C31.3964 9.71907 33.0368 6.49719 35.6656 3.87577C35.7834 3.7571 35.662 3.55892 35.5014 3.60995C30.9729 5.07315 27.1439 7.45011 23.7763 10.8844ZM29.9892 29.1916C30.0677 29.1833 30.1474 29.1904 30.2259 29.1904C39.321 29.1904 48.4173 29.1845 57.5123 29.2035C58.1 29.2047 58.2284 29.0326 58.2165 28.4665C58.1523 25.4369 57.8133 22.4452 57.1257 19.4939C56.8974 18.5161 56.6713 17.5382 56.4406 16.545C56.4204 16.4595 56.3347 16.4061 56.2491 16.4251C47.9629 18.3037 39.817 18.3226 31.5582 16.4322C31.4749 16.4132 31.3928 16.4619 31.369 16.5438C31.1585 17.2843 30.9016 18.0307 30.7636 18.7973C30.3925 20.8515 30.0392 22.9116 29.7608 24.9788C29.5955 26.2094 29.5883 27.4602 29.5063 28.7015C29.4848 29.0528 29.6252 29.2284 29.9892 29.1916ZM49.9232 4.89752C48.246 3.37735 46.3285 2.33662 44.0006 2.30932C41.4205 2.27966 39.3376 3.44381 37.5486 5.1847C35.2005 7.46909 33.6541 10.2673 32.4896 13.297C32.398 13.5367 32.2957 13.7717 32.1803 14.047C32.141 14.1395 32.1958 14.2451 32.2933 14.2665C40.0478 16.0098 47.7226 16.0038 55.4937 14.2653C55.5913 14.244 55.6448 14.1383 55.6067 14.047C55.2582 13.202 54.9513 12.3998 54.5909 11.6225C53.4251 9.11148 51.9942 6.77487 49.9232 4.89752ZM52.5342 3.6942C52.3879 3.64673 52.2654 3.81525 52.3558 3.94104C53.3895 5.36982 54.491 6.76301 55.3879 8.27724C56.3478 9.89827 57.0758 11.657 57.9346 13.4346C57.9691 13.5058 58.05 13.5414 58.1261 13.5189C60.0686 12.935 62.0194 12.1589 63.9405 11.1182C64.0345 11.0672 64.0535 10.939 63.9786 10.8631C60.6539 7.47859 56.8581 5.10519 52.5342 3.6942ZM71.8068 28.7051C71.488 26.7446 71.2965 24.7522 70.8171 22.8321C69.9238 19.2506 68.2216 16.0347 65.9627 13.113C65.7795 12.8757 65.6439 12.7665 65.337 12.9433C63.3374 14.0956 61.1939 14.9204 59.0076 15.6324C58.6091 15.7617 58.6329 15.9362 58.7007 16.2317C59.1063 18.0141 59.6214 19.7799 59.8783 21.5837C60.1959 23.8064 60.3089 26.0587 60.4861 28.3004C60.5563 29.1869 60.5266 29.1892 61.4378 29.1892C63.0186 29.1892 64.6007 29.1892 66.1816 29.1892C67.8814 29.1892 69.5812 29.1833 71.281 29.194C71.6379 29.1976 71.8758 29.1252 71.8068 28.7051ZM66.046 47.4241C67.7743 45.32 69.1387 43.006 70.0439 40.4475C70.9087 38.0029 71.5951 35.5037 71.7235 32.8882C71.7271 32.817 71.739 32.7007 71.7497 32.6295C71.9805 31.2209 71.8639 31.4428 70.6506 31.4404C67.5257 31.4309 64.402 31.4511 61.2772 31.425C60.6907 31.4202 60.4838 31.5816 60.4778 32.1845C60.4493 35.0741 60.0757 37.9328 59.5428 40.7667C59.2978 42.0697 58.9255 43.3489 58.6115 44.6068C58.5924 44.684 58.6329 44.7647 58.7078 44.7943C60.2066 45.3948 61.7113 45.9822 63.2018 46.6017C63.8727 46.8806 64.5293 47.1962 65.1598 47.5593C65.5475 47.7836 65.7462 47.7896 66.046 47.4241ZM56.5667 53.2353C57.341 53.3267 58.1047 53.4988 58.8743 53.6269C59.0135 53.6507 59.1979 53.6827 59.299 53.6163C61.019 52.4853 62.6546 51.2464 64.0404 49.7085C64.0523 49.6954 64.0499 49.6705 64.0725 49.5744C62.1824 48.4767 60.1281 47.7279 58.0714 47.0574C57.9953 47.0325 57.912 47.0681 57.8763 47.1416C56.9556 49.0807 56.0433 51.0008 55.0988 52.9909C55.0476 53.0989 55.1273 53.2235 55.2463 53.2211C55.6924 53.2104 56.1349 53.1843 56.5667 53.2353ZM34.4083 51.1776C34.4963 51.3473 34.8758 51.441 35.1196 51.441C37.2215 51.4387 39.2996 51.6487 41.3396 52.1566C42.2924 52.394 43.2226 52.7215 44.1707 52.9766C44.5846 53.0882 45.0188 53.1736 45.4446 53.1796C47.4609 53.2069 49.4771 53.189 51.4922 53.2187C51.9466 53.2258 52.2083 53.055 52.4545 52.693C53.6964 50.8667 54.6718 48.9051 55.4723 46.8521C55.5734 46.5934 55.6353 46.3738 55.2356 46.2836C51.0164 45.3307 46.7436 44.9178 42.4256 45.053C39.8027 45.1361 37.1834 45.3284 34.6081 45.8932C33.8801 46.0522 33.1438 46.1733 32.2398 46.3406C32.1351 46.3596 32.078 46.4747 32.1256 46.5696C32.9178 48.193 33.6398 49.6966 34.4083 51.1776ZM39.7873 42.9134C43.3309 42.58 46.8602 42.7461 50.3788 43.1365C52.1559 43.3335 53.9093 43.7536 55.6733 44.0716C55.8494 44.1037 56.0254 44.1322 56.2788 44.1749C56.3633 44.1891 56.4453 44.1334 56.4632 44.0491C56.8081 42.3937 57.1436 40.775 57.485 39.1575C57.9739 36.8352 58.163 34.4855 58.2118 32.1156C58.2237 31.5377 58.0333 31.4285 57.5123 31.4297C48.4161 31.4428 39.321 31.4428 30.2247 31.4285C29.6478 31.4274 29.473 31.6006 29.5098 32.1762C29.7073 35.2497 29.9428 38.3161 30.7053 41.3149C30.9039 42.0958 31.0788 42.8826 31.2608 43.6682C31.3583 44.0894 31.5689 44.2259 32.0209 44.1108C34.5701 43.4581 37.1727 43.1603 39.7873 42.9134ZM26.6871 52.3655C27.1843 52.8176 27.6292 52.9553 28.3048 52.712C29.3718 52.3275 30.4936 52.0914 31.5903 51.7876C31.6581 51.7686 31.7223 51.7389 31.7925 51.7045C31.8698 51.6665 31.9043 51.5751 31.8698 51.4956C31.2346 50.0479 30.6054 48.6155 29.9166 47.0479C29.8821 46.9684 29.7894 46.9304 29.7097 46.9636C27.7077 47.7824 25.6831 48.612 23.6574 49.4415C23.5468 49.4865 23.523 49.6337 23.6134 49.7108C24.6411 50.5926 25.6855 51.4553 26.6871 52.3655ZM2.26267 76.6169C2.26267 77.5021 2.44466 77.6991 3.34275 77.7027C5.77413 77.7122 8.20551 77.711 10.6369 77.7003C11.5005 77.6968 11.6777 77.5045 11.6777 76.6382C11.6801 70.3535 11.6801 64.0687 11.6777 57.7851C11.6777 56.9272 11.4041 56.6601 10.537 56.6578C8.16507 56.6542 5.79316 56.6542 3.42007 56.6578C2.51128 56.659 2.26148 56.9141 2.26148 57.8219C2.26029 60.9643 2.26148 64.1067 2.26148 67.2491C2.26267 70.3713 2.26148 73.4947 2.26267 76.6169Z" fill="#FF4445"/>
<path d="M13.467 73.9243C14.0987 73.9053 13.5432 73.9207 14.1748 73.9207C14.7862 73.9207 14.6863 73.9065 15.2977 73.9243C16.0328 73.9456 16.5098 74.3788 16.5312 75.0065C16.5514 75.5939 16.0495 76.1754 15.3726 76.198C14.0713 76.2395 14.6661 76.2419 13.3659 76.192C12.6772 76.1647 12.2133 75.5738 12.262 74.9662C12.3156 74.3194 12.7307 73.9456 13.467 73.9243Z" fill="#FF4445"/>
</svg>
