<svg width="25" height="25" viewBox="0 0 25 25" fill="none" xmlns="http://www.w3.org/2000/svg">
<path d="M12.5 0C5.59667 0 0 5.59667 0 12.5C0 19.4033 5.59667 25 12.5 25C19.4033 25 25 19.4033 25 12.5C25 5.59667 19.4033 0 12.5 0ZM15.1367 8.85333C14.6167 8.85333 14.0733 8.85333 13.55 8.85333C13.3033 8.85333 13.1533 8.99 13.1533 9.25C13.1533 9.29667 13.1533 9.75333 13.1533 10.44H15.14L14.7433 12.8233H13.1567C13.1567 15.3833 13.1567 18.38 13.1567 18.38H10.7867C10.7867 18.38 10.7867 15.4367 10.7867 12.8233H9.58333V10.44H10.7867C10.7867 9.56 10.7867 8.94667 10.7867 8.87C10.7867 8.56 10.7267 6.47 13.3133 6.47C13.66 6.47 14.45 6.47 15.1433 6.47C15.1367 7.38 15.1367 8.57 15.1367 8.85333Z" fill="#4B4B4B"/>
</svg>
