<svg width="255" height="397" viewBox="0 0 255 397" fill="none" xmlns="http://www.w3.org/2000/svg">
<path fill-rule="evenodd" clip-rule="evenodd" d="M230.044 0.975907L229.104 0.585544C161.399 116.914 193.371 157.707 199.013 172.345C204.655 187.179 230.044 223.483 237.191 234.218C241.517 240.659 245.09 247.49 248.851 254.321C271.42 296.285 226.847 335.321 196.192 355.23C153.876 382.751 100.464 400.512 49.8734 396.413C45.5478 396.023 41.0342 395.437 36.7085 394.657C24.6721 392.51 12.4475 386.264 5.86508 375.334C-0.341226 365.379 -1.09351 352.693 1.16333 340.982C6.05315 315.413 23.7317 294.919 40.2819 275.206C59.6531 252.174 78.272 228.362 92.9415 201.817C107.799 175.468 118.519 146.191 121.152 115.743C124.349 162.976 104.79 208.649 80.7169 249.051C65.4832 274.62 48.1808 299.213 38.4012 327.319C35.7682 334.931 33.5114 343.714 35.7682 351.717C38.025 360.109 45.1717 364.794 52.5064 368.112C91.813 385.288 139.019 372.016 174 350.155C189.233 340.591 208.793 326.929 214.435 308.386C218.76 294.333 215.187 279.109 210.485 265.837C202.586 243.781 189.609 224.459 179.266 203.769C172.495 189.911 166.853 175.273 165.16 159.854C164.972 157.316 164.784 154.779 164.784 152.437C165.16 88.6123 214.999 18.347 228.54 0.390363H228.728L227.6 0" fill="#D23132"/>
</svg>
