<svg width="25" height="25" viewBox="0 0 25 25" fill="none" xmlns="http://www.w3.org/2000/svg">
<path d="M14.1433 12.4267C14.1433 13.4633 13.32 14.3033 12.3033 14.3033C11.2867 14.3033 10.4667 13.4633 10.4667 12.4267C10.4667 11.39 11.29 10.55 12.3067 10.55C13.32 10.55 14.1433 11.39 14.1433 12.4267ZM16.9567 9.88667V14.9667C16.9567 16.13 16.0267 17.08 14.89 17.08H9.72333C8.58667 17.08 7.65667 16.13 7.65667 14.9667V9.88667C7.65667 8.72333 8.58667 7.77333 9.72333 7.77333H14.89C16.0267 7.77333 16.9567 8.72667 16.9567 9.88667ZM15.1533 12.4267C15.1533 10.82 13.8767 9.51667 12.3033 9.51667C10.73 9.51667 9.45333 10.82 9.45333 12.4267C9.45333 14.0333 10.73 15.3367 12.3033 15.3367C13.8767 15.3367 15.1533 14.0367 15.1533 12.4267ZM15.95 9.36C15.95 8.99667 15.6633 8.70333 15.3067 8.70333C14.95 8.70333 14.6633 8.99667 14.6633 9.36C14.6633 9.72333 14.95 10.0167 15.3067 10.0167C15.6633 10.02 15.95 9.72333 15.95 9.36ZM25 12.5C25 19.4033 19.4033 25 12.5 25C5.59667 25 0 19.4033 0 12.5C0 5.59667 5.59667 0 12.5 0C19.4033 0 25 5.59667 25 12.5ZM17.97 9.81C17.97 8.13333 16.6267 6.76 14.9833 6.76H9.62667C7.98333 6.76 6.64 8.13333 6.64 9.81V15.04C6.64 16.7167 7.98333 18.09 9.62667 18.09H14.9867C16.63 18.09 17.9733 16.7167 17.9733 15.04V9.81H17.97Z" fill="#4B4B4B"/>
</svg>
