<svg width="25" height="25" viewBox="0 0 25 25" fill="none" xmlns="http://www.w3.org/2000/svg">
<path d="M12.5 0C5.59667 0 0 5.59667 0 12.5C0 19.4033 5.59667 25 12.5 25C19.4033 25 25 19.4033 25 12.5C25 5.59667 19.4033 0 12.5 0ZM9.63333 17.5633H7.16333V9.73333H9.63333V17.5633ZM8.33667 8.75333H8.32C7.42667 8.75333 6.84667 8.15333 6.84667 7.39667C6.84667 6.62333 7.44333 6.03667 8.35667 6.03667C9.27 6.03667 9.83 6.62 9.84667 7.39333C9.84333 8.15333 9.26333 8.75333 8.33667 8.75333ZM19.52 17.5633H16.7167V13.51C16.7167 12.45 16.28 11.7267 15.3133 11.7267C14.5767 11.7267 14.1667 12.2167 13.9767 12.6867C13.9067 12.8567 13.9167 13.09 13.9167 13.3267V17.5633H11.14C11.14 17.5633 11.1767 10.3867 11.14 9.73333H13.9167V10.9633C14.08 10.4267 14.9667 9.66 16.3833 9.66C18.14 9.66 19.52 10.7867 19.52 13.21V17.5633Z" fill="#4B4B4B"/>
</svg>
