<svg width="25" height="25" viewBox="0 0 25 25" fill="none" xmlns="http://www.w3.org/2000/svg">
<path d="M12.5 0C5.59667 0 0 5.59667 0 12.5C0 19.4033 5.59667 25 12.5 25C19.4033 25 25 19.4033 25 12.5C25 5.59667 19.4033 0 12.5 0ZM17.5333 10.5367C17.5367 10.6467 17.54 10.7567 17.54 10.87C17.54 14.2667 15.02 18.1867 10.4067 18.1867C8.99 18.1867 7.67333 17.76 6.56333 17.0333C6.76 17.0567 6.96 17.07 7.16 17.07C8.33333 17.07 9.41667 16.66 10.2733 15.97C9.17667 15.95 8.25 15.2067 7.93 14.1867C8.08333 14.2167 8.24 14.2333 8.40333 14.2333C8.63333 14.2333 8.85333 14.2033 9.06333 14.1433C7.91667 13.9067 7.05 12.87 7.05 11.6233V11.5933C7.39 11.7833 7.77667 11.9 8.18667 11.9133C7.51333 11.4533 7.07 10.6633 7.07 9.77334C7.07 9.30334 7.19333 8.86001 7.41 8.48001C8.64667 10.0367 10.4933 11.06 12.58 11.1667C12.5367 10.98 12.5167 10.7833 12.5167 10.58C12.5167 9.16 13.64 8.01 15.0233 8.01C15.7467 8.01 16.3967 8.32334 16.8533 8.82C17.4267 8.70667 17.9633 8.49 18.4467 8.19667C18.26 8.79667 17.8633 9.30001 17.3433 9.62001C17.85 9.55667 18.3333 9.42 18.7833 9.21667C18.45 9.72334 18.0233 10.1767 17.5333 10.5367Z" fill="#4B4B4B"/>
</svg>
