<svg width="25" height="25" viewBox="0 0 25 25" fill="none" xmlns="http://www.w3.org/2000/svg">
<path d="M10.9267 14.8668L15.0367 12.5001L10.9267 10.1335V14.8668Z" fill="#4B4B4B"/>
<path d="M12.5 0C5.59667 0 0 5.59666 0 12.5C0 19.4033 5.59667 25 12.5 25C19.4033 25 25 19.4033 25 12.5C25 5.59666 19.4033 0 12.5 0ZM20.3967 12.5133C20.3967 12.5133 20.3967 15.0767 20.07 16.3133C19.8867 16.99 19.3533 17.5233 18.6767 17.7067C17.44 18.0333 12.4967 18.0333 12.4967 18.0333C12.4967 18.0333 7.56667 18.0333 6.31667 17.6967C5.64 17.5133 5.10667 16.98 4.92333 16.3033C4.59667 15.08 4.59667 12.5033 4.59667 12.5033C4.59667 12.5033 4.59667 9.93999 4.92333 8.70333C5.10667 8.02666 5.65333 7.47999 6.31667 7.29666C7.55333 6.97 12.4967 6.97 12.4967 6.97C12.4967 6.97 17.44 6.97 18.6767 7.30666C19.3533 7.49 19.8867 8.02333 20.07 8.7C20.41 9.93666 20.3967 12.5133 20.3967 12.5133Z" fill="#4B4B4B"/>
</svg>
