<?xml version="1.0" encoding="utf-8"?>
<!-- Generator: Adobe Illustrator 25.2.3, SVG Export Plug-In . SVG Version: 6.00 Build 0)  -->
<svg version="1.1" id="Camada_1" xmlns="http://www.w3.org/2000/svg" xmlns:xlink="http://www.w3.org/1999/xlink" x="0px" y="0px"
	 viewBox="0 0 15 15" style="enable-background:new 0 0 15 15;" xml:space="preserve">
<style type="text/css">
	.st0{fill-rule:evenodd;clip-rule:evenodd;fill:#8C8C8E;}
</style>
<path class="st0" d="M9.4,1.4V0.5C9.4,0.2,9.6,0,9.8,0c0.3,0,0.5,0.2,0.5,0.5v0.9h3.8c0.5,0,0.9,0.4,0.9,0.9V14
	c0,0.5-0.4,0.9-0.9,0.9H0.9C0.4,15,0,14.6,0,14V2.4c0-0.5,0.4-0.9,0.9-0.9h3.7V0.5C4.7,0.2,4.9,0,5.2,0c0.3,0,0.5,0.2,0.5,0.5v0.9
	H9.4z M4.7,2.4H0.9V14h13.1V2.4h-3.8v0.5c0,0.3-0.2,0.5-0.5,0.5c-0.3,0-0.5-0.2-0.5-0.5V2.4H5.6v0.5c0,0.3-0.2,0.5-0.5,0.5
	c-0.3,0-0.5-0.2-0.5-0.5V2.4z M11.7,11.2h-0.9c-0.3,0-0.5-0.2-0.5-0.5V9.8c0-0.3,0.2-0.5,0.5-0.5h0.9c0.3,0,0.5,0.2,0.5,0.5v0.9
	C12.2,11,12,11.2,11.7,11.2z M8,11.2H7c-0.3,0-0.5-0.2-0.5-0.5V9.8c0-0.3,0.2-0.5,0.5-0.5H8c0.3,0,0.5,0.2,0.5,0.5v0.9
	C8.4,11,8.2,11.2,8,11.2z M4.2,11.2H3.3c-0.3,0-0.5-0.2-0.5-0.5V9.8c0-0.3,0.2-0.5,0.5-0.5h0.9c0.3,0,0.5,0.2,0.5,0.5v0.9
	C4.7,11,4.5,11.2,4.2,11.2z M11.7,7.5h-0.9c-0.3,0-0.5-0.2-0.5-0.5V6.1c0-0.3,0.2-0.5,0.5-0.5h0.9c0.3,0,0.5,0.2,0.5,0.5V7
	C12.2,7.3,12,7.5,11.7,7.5z M8,7.5H7C6.8,7.5,6.6,7.3,6.6,7V6.1c0-0.3,0.2-0.5,0.5-0.5H8c0.3,0,0.5,0.2,0.5,0.5V7
	C8.4,7.3,8.2,7.5,8,7.5z M4.2,7.5H3.3C3,7.5,2.8,7.3,2.8,7V6.1c0-0.3,0.2-0.5,0.5-0.5h0.9c0.3,0,0.5,0.2,0.5,0.5V7
	C4.7,7.3,4.5,7.5,4.2,7.5z"/>
</svg>
