<svg width="10" height="10" viewBox="0 0 10 10" fill="none" xmlns="http://www.w3.org/2000/svg">
<path d="M0.454545 0.909091V3.63636C0.454545 3.90909 0.636364 4.09091 0.909091 4.09091H3.63636C3.90909 4.09091 4.09091 3.90909 4.09091 3.63636V0.909091C4.09091 0.636364 3.90909 0.454545 3.63636 0.454545H0.909091C0.636364 0.454545 0.454545 0.636364 0.454545 0.909091ZM0 0.909091C0 0.409091 0.409091 0 0.909091 0H3.63636C4.13636 0 4.54545 0.409091 4.54545 0.909091V3.63636C4.54545 4.13636 4.13636 4.54545 3.63636 4.54545H0.909091C0.409091 4.54545 0 4.13636 0 3.63636V0.909091ZM0.454545 6.36364V9.09091C0.454545 9.36364 0.636364 9.54545 0.909091 9.54545H3.63636C3.90909 9.54545 4.09091 9.36364 4.09091 9.09091V6.36364C4.09091 6.09091 3.90909 5.90909 3.63636 5.90909H0.909091C0.636364 5.90909 0.454545 6.09091 0.454545 6.36364ZM0 6.36364C0 5.86364 0.409091 5.45455 0.909091 5.45455H3.63636C4.13636 5.45455 4.54545 5.86364 4.54545 6.36364V9.09091C4.54545 9.59091 4.13636 10 3.63636 10H0.909091C0.409091 10 0 9.59091 0 9.09091V6.36364ZM5.90909 6.36364V9.09091C5.90909 9.36364 6.09091 9.54545 6.36364 9.54545H9.09091C9.36364 9.54545 9.54545 9.36364 9.54545 9.09091V6.36364C9.54545 6.09091 9.36364 5.90909 9.09091 5.90909H6.36364C6.09091 5.90909 5.90909 6.09091 5.90909 6.36364ZM5.45455 6.36364C5.45455 5.86364 5.86364 5.45455 6.36364 5.45455H9.09091C9.59091 5.45455 10 5.86364 10 6.36364V9.09091C10 9.59091 9.59091 10 9.09091 10H6.36364C5.86364 10 5.45455 9.59091 5.45455 9.09091V6.36364ZM5.90909 0.909091V3.63636C5.90909 3.90909 6.09091 4.09091 6.36364 4.09091H9.09091C9.36364 4.09091 9.54545 3.90909 9.54545 3.63636V0.909091C9.54545 0.636364 9.36364 0.454545 9.09091 0.454545H6.36364C6.09091 0.454545 5.90909 0.636364 5.90909 0.909091ZM5.45455 0.909091C5.45455 0.409091 5.86364 0 6.36364 0H9.09091C9.59091 0 10 0.409091 10 0.909091V3.63636C10 4.13636 9.59091 4.54545 9.09091 4.54545H6.36364C5.86364 4.54545 5.45455 4.13636 5.45455 3.63636V0.909091Z" fill="white"/>
<path d="M7.72727 9C7.63636 9 7.54545 8.90909 7.54545 8.81818V6.63636C7.54545 6.54545 7.63636 6.45455 7.72727 6.45455C7.81818 6.45455 7.90909 6.54545 7.90909 6.63636V8.81818C7.90909 8.90909 7.81818 9 7.72727 9Z" fill="white"/>
<path d="M8.81818 7.90909H6.63636C6.54545 7.90909 6.45455 7.81818 6.45455 7.72727C6.45455 7.63636 6.54545 7.54545 6.63636 7.54545H8.81818C8.90909 7.54545 9 7.63636 9 7.72727C9 7.81818 8.90909 7.90909 8.81818 7.90909Z" fill="white"/>
<path d="M9.01346 0H6.32287C5.8296 0 5.38117 0.44843 5.38117 0.941704V3.63229C5.38117 4.1704 5.8296 4.57399 6.32287 4.57399H9.01346C9.55157 4.57399 10 4.12556 10 3.63229V0.941704C10 0.44843 9.55157 0 9.01346 0ZM9.41704 0.941704V3.63229C9.41704 3.8565 9.23767 4.03587 9.01346 4.03587H6.32287C6.09866 4.03587 5.96413 3.8565 5.96413 3.67713V0.986547C5.96413 0.762332 6.1435 0.627803 6.32287 0.627803H9.01346C9.23767 0.58296 9.41704 0.762332 9.41704 0.941704Z" fill="white"/>
<path d="M9.01346 5.38117H6.32287C5.8296 5.38117 5.38117 5.8296 5.38117 6.32287V9.01346C5.38117 9.55157 5.8296 10 6.32287 10H9.01346C9.55157 10 10 9.55157 10 9.01346V6.32287C10 5.8296 9.55157 5.38117 9.01346 5.38117ZM9.41704 6.32287V9.01346C9.41704 9.23767 9.23767 9.3722 9.0583 9.3722H6.36772C6.1435 9.3722 6.00897 9.19283 6.00897 9.01346V6.32287C6.00897 6.09866 6.18834 5.96413 6.36772 5.96413H9.0583C9.23767 5.96413 9.41704 6.1435 9.41704 6.32287Z" fill="white"/>
<path d="M3.67713 5.38117H0.986547C0.44843 5.38117 0 5.8296 0 6.32287V9.01346C0 9.55157 0.44843 10 0.941704 10H3.63229C4.1704 10 4.57399 9.55157 4.57399 9.01346V6.32287C4.61883 5.8296 4.1704 5.38117 3.67713 5.38117ZM0.58296 6.32287C0.58296 6.09866 0.762332 5.96413 0.941704 5.96413H3.63229C3.8565 5.96413 3.99103 6.1435 3.99103 6.32287V9.01346C4.03587 9.23767 3.8565 9.41704 3.67713 9.41704H0.986547C0.762332 9.41704 0.627803 9.23767 0.627803 9.0583V6.32287H0.58296Z" fill="white"/>
<path d="M3.67713 0H0.986547C0.44843 0 0 0.44843 0 0.941704V3.63229C0 4.1704 0.44843 4.57399 0.941704 4.57399H3.63229C4.1704 4.57399 4.57399 4.12556 4.57399 3.63229V0.941704C4.61883 0.44843 4.1704 0 3.67713 0ZM0.58296 0.941704C0.58296 0.717489 0.762332 0.58296 0.941704 0.58296H3.63229C3.8565 0.58296 4.03587 0.762332 4.03587 0.941704V3.63229C4.03587 3.8565 3.8565 4.03587 3.67713 4.03587H0.986547C0.762332 4.03587 0.58296 3.8565 0.58296 3.67713V0.941704Z" fill="white"/>
<path d="M8.74441 7.44396H7.89239V6.59194C7.89239 6.45741 7.8027 6.36772 7.66817 6.36772C7.53364 6.36772 7.44396 6.45741 7.44396 6.59194V7.44396H6.59194C6.45741 7.44396 6.36772 7.53364 6.36772 7.66817C6.36772 7.8027 6.45741 7.89239 6.59194 7.89239H7.44396V8.74441C7.44396 8.87894 7.53364 8.96862 7.66817 8.96862C7.8027 8.96862 7.89239 8.87894 7.89239 8.74441V7.89239H8.74441C8.87894 7.89239 8.96862 7.8027 8.96862 7.66817C8.96862 7.53364 8.87894 7.44396 8.74441 7.44396Z" fill="white"/>
</svg>
