<?xml version="1.0" encoding="utf-8"?>
<!-- Generator: Adobe Illustrator 25.2.3, SVG Export Plug-In . SVG Version: 6.00 Build 0)  -->
<svg version="1.1" id="Camada_1" xmlns="http://www.w3.org/2000/svg" xmlns:xlink="http://www.w3.org/1999/xlink" x="0px" y="0px"
	 viewBox="0 0 15 15" style="enable-background:new 0 0 15 15;" xml:space="preserve">
<style type="text/css">
	.st0{fill:#8C8C8E;}
</style>
<g>
	<path class="st0" d="M0.7,1.4v4.1c0,0.4,0.3,0.7,0.7,0.7h4.1c0.4,0,0.7-0.3,0.7-0.7V1.4c0-0.4-0.3-0.7-0.7-0.7H1.4
		C1,0.7,0.7,1,0.7,1.4z M0,1.4C0,0.6,0.6,0,1.4,0h4.1c0.8,0,1.4,0.6,1.4,1.4v4.1c0,0.8-0.6,1.4-1.4,1.4H1.4C0.6,6.8,0,6.2,0,5.5V1.4
		z M0.7,9.5v4.1c0,0.4,0.3,0.7,0.7,0.7h4.1c0.4,0,0.7-0.3,0.7-0.7V9.5c0-0.4-0.3-0.7-0.7-0.7H1.4C1,8.9,0.7,9.1,0.7,9.5z M0,9.5
		c0-0.8,0.6-1.4,1.4-1.4h4.1c0.8,0,1.4,0.6,1.4,1.4v4.1c0,0.8-0.6,1.4-1.4,1.4H1.4C0.6,15,0,14.4,0,13.6V9.5z M8.9,9.5v4.1
		c0,0.4,0.3,0.7,0.7,0.7h4.1c0.4,0,0.7-0.3,0.7-0.7V9.5c0-0.4-0.3-0.7-0.7-0.7H9.5C9.1,8.9,8.9,9.1,8.9,9.5z M8.2,9.5
		c0-0.8,0.6-1.4,1.4-1.4h4.1c0.8,0,1.4,0.6,1.4,1.4v4.1c0,0.8-0.6,1.4-1.4,1.4H9.5c-0.8,0-1.4-0.6-1.4-1.4V9.5z M8.9,1.4v4.1
		c0,0.4,0.3,0.7,0.7,0.7h4.1c0.4,0,0.7-0.3,0.7-0.7V1.4c0-0.4-0.3-0.7-0.7-0.7H9.5C9.1,0.7,8.9,1,8.9,1.4z M8.2,1.4
		C8.2,0.6,8.8,0,9.5,0h4.1C14.4,0,15,0.6,15,1.4v4.1c0,0.8-0.6,1.4-1.4,1.4H9.5c-0.8,0-1.4-0.6-1.4-1.4V1.4z"/>
	<path class="st0" d="M11.6,13.5c-0.1,0-0.3-0.1-0.3-0.3V10c0-0.1,0.1-0.3,0.3-0.3c0.1,0,0.3,0.1,0.3,0.3v3.3
		C11.9,13.4,11.7,13.5,11.6,13.5z"/>
	<path class="st0" d="M13.2,11.9H10c-0.1,0-0.3-0.1-0.3-0.3c0-0.1,0.1-0.3,0.3-0.3h3.3c0.1,0,0.3,0.1,0.3,0.3
		C13.5,11.7,13.4,11.9,13.2,11.9z"/>
	<path class="st0" d="M13.5,0h-4C8.7,0,8.1,0.7,8.1,1.4v4c0,0.8,0.7,1.4,1.4,1.4h4c0.8,0,1.5-0.7,1.5-1.4v-4C15,0.7,14.3,0,13.5,0z
		 M14.1,1.4v4c0,0.3-0.3,0.6-0.6,0.6h-4c-0.3,0-0.5-0.3-0.5-0.5v-4c0-0.3,0.3-0.5,0.5-0.5h4C13.9,0.9,14.1,1.1,14.1,1.4z"/>
	<path class="st0" d="M13.5,8.1h-4c-0.7,0-1.4,0.7-1.4,1.4v4c0,0.8,0.7,1.5,1.4,1.5h4c0.8,0,1.5-0.7,1.5-1.5v-4
		C15,8.7,14.3,8.1,13.5,8.1z M14.1,9.5v4c0,0.3-0.3,0.5-0.5,0.5h-4c-0.3,0-0.5-0.3-0.5-0.5v-4c0-0.3,0.3-0.5,0.5-0.5h4
		C13.9,8.9,14.1,9.2,14.1,9.5z"/>
	<path class="st0" d="M5.5,8.1h-4C0.7,8.1,0,8.7,0,9.5v4C0,14.3,0.7,15,1.4,15h4c0.8,0,1.4-0.7,1.4-1.5v-4C6.9,8.7,6.3,8.1,5.5,8.1z
		 M0.9,9.5c0-0.3,0.3-0.5,0.5-0.5h4C5.8,8.9,6,9.2,6,9.5v4c0.1,0.3-0.2,0.6-0.5,0.6h-4c-0.3,0-0.5-0.3-0.5-0.5L0.9,9.5L0.9,9.5z"/>
	<path class="st0" d="M5.5,0h-4C0.7,0,0,0.7,0,1.4v4c0,0.8,0.7,1.4,1.4,1.4h4c0.8,0,1.4-0.7,1.4-1.4v-4C6.9,0.7,6.3,0,5.5,0z
		 M0.9,1.4c0-0.3,0.3-0.5,0.5-0.5h4c0.3,0,0.6,0.3,0.6,0.5v4c0,0.3-0.3,0.6-0.5,0.6h-4c-0.3,0-0.6-0.3-0.6-0.5V1.4z"/>
	<path class="st0" d="M13.1,11.2h-1.3V9.9c0-0.2-0.1-0.3-0.3-0.3c-0.2,0-0.3,0.1-0.3,0.3v1.3H9.9c-0.2,0-0.3,0.1-0.3,0.3
		c0,0.2,0.1,0.3,0.3,0.3h1.3v1.3c0,0.2,0.1,0.3,0.3,0.3c0.2,0,0.3-0.1,0.3-0.3v-1.3h1.3c0.2,0,0.3-0.1,0.3-0.3
		C13.5,11.3,13.3,11.2,13.1,11.2z"/>
</g>
</svg>
