<svg width="50" height="50" viewBox="0 0 50 50" fill="none" xmlns="http://www.w3.org/2000/svg">
<path d="M19.7992 34.8002L20.2492 34.7502C21.4492 34.5502 22.5992 34.2502 23.6992 33.8502L23.7992 33.8002H23.8492C24.2492 33.7002 26.4492 32.3502 28.3992 31.1502C29.5992 30.2002 30.6992 29.0002 31.6492 27.7002L33.3492 24.8002C33.8492 23.7002 34.2492 22.5502 34.4992 21.3502L34.8992 18.4502C34.8992 18.1502 34.8992 17.8502 34.8992 17.5502C34.8992 15.6002 34.5992 13.7002 33.9492 11.8502C33.5992 10.8002 33.5992 10.8002 32.5492 8.8502C29.4492 3.5002 23.6992 0.200195 17.5492 0.200195C7.94922 0.200195 0.199219 8.0002 0.199219 17.6002C0.199219 20.5002 0.949219 23.4002 2.29922 25.9002L2.34922 25.9502L1.24922 32.4502C1.19922 32.8502 1.29922 33.2502 1.59922 33.5502C1.89922 33.8502 2.29922 33.9502 2.69922 33.9002L9.14922 32.8002L9.19922 32.8502C11.5492 34.1502 14.1992 34.8502 16.9492 34.9502C18.0492 35.0502 18.8992 34.9502 19.7992 34.8002ZM9.19922 30.2502L4.04922 31.1002L4.89922 25.9502C4.94922 25.6502 4.89922 25.3502 4.74922 25.1002C3.44922 22.8502 2.74922 20.2502 2.74922 17.6002C2.74922 9.4002 9.39922 2.7502 17.5492 2.7502C25.6992 2.7502 32.3492 9.4002 32.3492 17.6002C32.3492 25.8002 25.6992 32.4002 17.5492 32.4002C14.8992 32.4002 12.3492 31.7002 10.0492 30.3502C9.79922 30.2502 9.49922 30.2002 9.19922 30.2502Z" fill="#FF4445"/>
<path d="M38.2992 14.4002C37.7992 14.3002 37.3992 14.4002 37.0992 14.7502C36.8492 15.0502 36.7492 15.4502 36.8992 15.8502C37.0992 16.5002 37.8992 17.0502 39.0492 17.3002C45.4492 19.3502 48.3992 25.4502 46.9492 33.7002C46.4992 36.3002 45.3492 38.7502 43.6492 40.7502C43.4492 40.9502 43.3492 41.2502 43.3492 41.5502L43.2992 46.0002C43.2992 46.2002 43.1992 46.3502 43.0492 46.4502C42.8992 46.5502 42.6992 46.6002 42.5492 46.5002L38.3492 45.0002C38.0992 44.9002 37.7492 44.9002 37.4992 45.0002C35.0492 45.9002 32.3492 46.1502 29.7492 45.7002C25.6492 45.0002 21.5492 43.7002 19.3492 39.1502C18.7492 37.6502 17.7992 37.2002 17.1492 37.4502C16.5992 37.6502 16.2992 38.2502 16.4992 38.9502C18.4992 44.1002 22.5492 47.0502 29.2992 48.2502C32.0992 48.7502 35.0492 48.5502 37.7492 47.6502C37.7992 47.6502 37.8492 47.6002 37.9492 47.6002C37.9992 47.6002 38.0492 47.6002 38.0992 47.6002L44.1492 49.7002C44.5492 49.8502 44.9492 49.8002 45.2992 49.5502C45.6492 49.3002 45.8492 48.9002 45.8492 48.5002L45.8992 42.1002C45.8992 42.0002 45.9492 41.8502 45.9992 41.7502C47.7492 39.5002 48.9492 36.8002 49.4492 34.0002C51.1492 24.1502 46.6992 16.2502 38.2992 14.4002Z" fill="#FF4445"/>
<path d="M19.8492 13.5502C19.8492 14.8502 18.7992 15.9002 17.4992 15.9002C16.7492 15.9002 16.1492 16.5002 16.1492 17.2502V21.5002C16.1492 22.2502 16.7492 22.8502 17.4992 22.8502C18.2492 22.8502 18.8492 22.2502 18.8492 21.5002V18.3502L18.9492 18.3002C21.0492 17.6502 22.4992 15.7002 22.4992 13.5002C22.4992 10.7502 20.2492 8.50019 17.4992 8.50019C14.7492 8.50019 12.4992 10.7502 12.4992 13.5002C12.4992 14.2502 13.0992 14.8502 13.8492 14.8502C14.5992 14.8502 15.1992 14.2502 15.1992 13.5002C15.1992 12.2002 16.2492 11.1502 17.5492 11.1502C18.8492 11.1502 19.8492 12.2502 19.8492 13.5502Z" fill="#FF4445"/>
<path d="M18.8492 25.5002C18.7992 24.7502 18.2492 24.1502 17.4992 24.1502C17.1492 24.1502 16.7992 24.3002 16.4992 24.6002C16.2492 24.8502 16.1492 25.1502 16.1492 25.5002C16.1992 26.2502 16.7492 26.8502 17.4992 26.8502C17.8492 26.8502 18.1992 26.7002 18.4492 26.4502C18.7492 26.1502 18.8492 25.8502 18.8492 25.5002Z" fill="#FF4445"/>
<path d="M35.5992 28.6502H39.9992C40.4992 28.6502 40.9492 28.2502 40.9492 27.7002C40.9492 27.2002 40.4992 26.7502 39.9992 26.7502H35.5992C35.0992 26.7502 34.6492 27.1502 34.6492 27.7002C34.6492 28.2002 35.0992 28.6502 35.5992 28.6502Z" fill="#FF4445"/>
<path d="M39.9992 31.8002H32.4992C31.9992 31.8002 31.5492 32.2002 31.5492 32.7502C31.5492 33.2502 31.9992 33.7002 32.4992 33.7002H39.9992C40.4992 33.7002 40.9492 33.3002 40.9492 32.7502C40.9492 32.2002 40.4992 31.8002 39.9992 31.8002Z" fill="#FF4445"/>
<path d="M39.9992 36.8002H25.6492C25.1492 36.8002 24.6992 37.2002 24.6992 37.7502C24.6992 38.2502 25.1492 38.7002 25.6492 38.7002H39.9992C40.4992 38.7002 40.9492 38.3002 40.9492 37.7502C40.9492 37.2002 40.4992 36.8002 39.9992 36.8002Z" fill="#FF4445"/>
</svg>
