<svg width="49" height="50" viewBox="0 0 49 50" fill="none" xmlns="http://www.w3.org/2000/svg">
<path d="M37.4078 17.2877C37.3861 19.0687 37.104 20.579 36.4856 22.0267C36.1818 22.7245 35.7261 22.964 35.1077 22.7349C34.4893 22.4954 34.3049 22.0163 34.5761 21.3288C36.1927 17.1315 35.1728 12.7884 31.8095 9.98666C28.7174 7.41409 25.137 6.70586 21.2963 8.03901C17.3905 9.39299 15.0578 12.153 14.4394 16.1108C13.4847 22.2975 18.6382 27.7967 25.1587 27.6092C26.6234 27.5676 28.0121 27.2135 29.3466 26.6406C30.1061 26.3177 30.7679 26.651 30.8764 27.4009C30.9524 27.9321 30.6486 28.2446 30.1712 28.4425C26.2979 30.0568 22.4789 30.0256 18.7575 28.0571C14.1031 25.5887 11.5751 20.5998 12.4106 15.6525C13.246 10.6636 17.1843 6.71627 22.3378 5.67475C30.041 4.11246 37.397 9.8825 37.4078 17.2877Z" fill="#FF4445"/>
<path d="M34.2723 25.0888C34.2723 25.5991 33.8058 26.047 33.2633 26.0574C32.6883 26.0678 32.2217 25.6199 32.2326 25.0783C32.2434 24.5576 32.6991 24.1097 33.2308 24.0993C33.7732 24.0889 34.2723 24.5576 34.2723 25.0888Z" fill="#FF4445"/>
<path d="M47.845 41.3053C47.27 40.722 46.5648 40.2221 45.8379 39.8367C43.9718 38.8265 41.9104 38.264 39.8164 37.8474C38.1239 37.5037 36.3988 37.2433 34.6303 36.9413C34.4459 36.91 34.3808 36.7017 34.511 36.5768C34.6303 36.4518 34.7497 36.3372 34.8582 36.2122C36.2144 34.6291 37.6682 33.1189 38.8833 31.4525C43.2991 25.37 44.3623 18.7667 41.65 11.7885C39.0244 5.01859 34.0336 0.873325 26.4173 0.102597C21.3071 -0.418165 16.7612 1.05038 12.9313 4.35201C6.88815 9.57005 4.30597 19.3395 8.28774 27.3593C9.96941 30.7546 12.3021 33.6917 14.971 36.3997C15.0361 36.4726 15.1121 36.5455 15.188 36.6184C15.3074 36.7538 15.2314 36.9621 15.047 36.983C12.02 37.3475 9.01466 37.8578 6.12869 38.8473C4.66401 39.3472 3.23187 39.9305 2.08183 41.0032C0.595444 42.3885 0.617143 44.107 2.12522 45.4714C2.39646 45.7213 2.6894 45.9921 3.01488 46.1379C4.29512 46.7212 5.56452 47.3878 6.90985 47.8044C11.2714 49.1792 15.7956 49.6479 20.3524 49.877C23.987 50.0645 27.6216 50.0437 31.2344 49.7729C31.7986 49.7312 32.2434 49.2729 32.2434 48.7313C32.2434 48.1585 31.7335 47.7002 31.1368 47.7419C29.1947 47.8773 27.4697 47.971 26.4173 48.0439C26.4064 48.0439 26.4064 48.0439 26.3956 48.0439C19.8099 47.9814 14.8083 47.669 9.89347 46.5754C8.0599 46.1692 6.25888 45.6693 4.60976 44.7631C4.16493 44.5132 3.7418 44.2007 3.37292 43.8466C2.90639 43.3883 2.88469 42.9196 3.40547 42.5447C4.18663 41.9823 5.03289 41.4407 5.92255 41.0657C8.33114 40.045 10.9133 39.5659 13.4955 39.1806C14.6239 39.0139 15.7522 38.9098 16.8805 38.764C17.2169 38.7223 17.4773 38.7952 17.7485 39.0348C19.5821 40.597 21.4482 42.1385 23.3035 43.6904C23.4662 43.8258 23.6398 43.9612 23.8134 44.0861C24.5511 44.6173 25.0177 44.6382 25.7554 44.0445C27.2527 42.8676 28.7174 41.6594 30.1929 40.4616C30.7896 39.9825 31.3429 39.4618 31.9397 38.9827C32.1024 38.8577 32.3519 38.7535 32.5581 38.7744C36.3771 39.1285 40.1636 39.6597 43.7439 41.0657C44.4708 41.3573 45.1652 41.7427 45.8162 42.1802C46.5973 42.7009 46.6516 43.6279 45.9247 44.2111C44.9265 45.0235 43.7114 45.4505 42.4962 45.8463C42.0405 45.9921 41.574 46.1379 41.1075 46.2629C40.6193 46.3983 40.2829 46.8149 40.2829 47.3045C40.2829 47.919 40.9013 48.3668 41.5198 48.2002C42.659 47.8981 43.7765 47.5336 44.8614 47.0753C45.9572 46.617 47.0096 46.065 47.8233 45.1902C48.9517 43.982 49.0059 42.4926 47.845 41.3053ZM28.9777 38.8681C27.6541 39.9825 26.2871 41.0553 24.8549 42.2322C24.7681 42.3051 24.6379 42.3051 24.5511 42.2322C22.3921 40.3679 20.2439 38.5765 18.1716 36.7017C15.5678 34.3375 13.2243 31.7337 11.369 28.7653C9.27505 25.4012 8.1033 21.808 8.47218 17.8606C8.98211 12.3926 11.1737 7.72655 15.9909 4.5499C23.6723 -0.491072 34.1421 1.97734 38.5036 9.89292C42.3335 16.8399 41.867 23.6619 37.3102 30.2131C35.0101 33.5147 32.0807 36.2747 28.9777 38.8681Z" fill="#FF4445"/>
<path d="M37.4078 48.2418C37.4078 48.7522 36.9413 49.2 36.3988 49.2104C35.8238 49.2209 35.3573 48.773 35.3681 48.2314C35.3789 47.7106 35.8346 47.2628 36.3663 47.2524C36.9087 47.242 37.4078 47.7107 37.4078 48.2418Z" fill="#FF4445"/>
<path fill-rule="evenodd" clip-rule="evenodd" d="M29.5193 10.0537L29.47 10.0374C26.859 12.9262 28.3343 13.7263 28.5832 14.2499C28.8788 14.8717 30.209 16.3934 30.5834 16.8434C30.81 17.1134 30.9972 17.3997 31.1943 17.6861C32.3766 19.445 30.0415 21.0813 28.4354 21.9158C26.2185 23.0694 23.4203 23.8139 20.7698 23.6421C20.5432 23.6257 20.3067 23.6012 20.0801 23.5684C19.4495 23.4784 18.8091 23.2166 18.4642 22.7585C18.1391 22.3412 18.0996 21.8095 18.2179 21.3186C18.4741 20.2468 19.6269 19.3473 20.2673 18.5615C20.9078 17.7756 21.3155 17.3395 21.8742 16.5468C22.6426 15.4565 23.2638 15.0046 23.4017 13.7283C23.4017 15.88 22.8487 16.8434 22.3857 17.4652C21.5876 18.5369 20.6811 19.5678 20.1688 20.7459C20.0308 21.065 19.9126 21.4331 20.0308 21.7685C20.1491 22.1203 20.5235 22.3167 20.9078 22.4558C22.967 23.1757 25.4401 22.6194 27.2728 21.7031C28.0709 21.3022 29.0956 20.7295 29.3912 19.9523C29.6178 19.3632 29.4306 18.7251 29.1843 18.1688C28.7705 17.2443 28.0906 16.4343 27.5487 15.5671C27.194 14.9862 26.8984 14.3726 26.8097 13.7263C26.7999 13.6199 26.79 13.5136 26.79 13.4154C26.79 11.8773 28.731 10.7819 29.4405 10.0292H29.4503L29.3912 10.0128" fill="#FF4445"/>
</svg>
