<svg width="50" height="50" viewBox="0 0 50 50" fill="none" xmlns="http://www.w3.org/2000/svg">
<path d="M15.3 25.6C15.7 26.35 19.9 32.2 25.7 34.75C27 35.3 28.25 35.75 29.2 35.95C30.45 36.3 31.85 36.4 32.95 36.15C34.1 35.95 36.4 34.8 36.75 33.6C37.15 32.05 37.1 31.2 37 30.9C36.9 30.8 36.6 30.65 36 30.45C35.5 30.3 33.85 29.45 32.35 28.65C32.1 28.5 31.9 28.4 31.8 28.35C31.3 28.2 31.1 28.25 30.9 28.4C30.7 28.7 30.35 29.1 30 29.55C29.6 30 29.15 30.6 29.05 30.8L29 30.85V31C28.4 31.6 28 31.6 27.25 31.35C26.8 31.2 24.55 30.4 22.05 28.1C20.35 26.6 19.1 24.7 18.6 23.9L18.45 23.65C18 23 18.1 22.4 18.7 21.75C18.9 21.55 19.25 21.2 19.45 20.85L19.5 20.7L19.65 20.65C19.9 20.5 20.1 20.2 20.25 19.85C20.3 19.7 20.3 19.55 20.25 19.35C20.25 19.3 20.25 19.25 20.2 19.2C20.05 18.95 19.8 18.4 19.25 17.1C18.85 16.25 18.45 15.25 18.15 14.7L18.1 14.65C17.85 13.9 17.6 13.95 17.45 13.95C17.4 13.95 17.35 13.95 17.35 13.95H16.1C15.95 13.95 15.4 14 14.8 14.65C14.2 15.25 12.85 16.6 12.85 19.5C12.85 22 14.45 24.4 15.05 25.35C15.15 25.4 15.25 25.55 15.3 25.6Z" fill="#E9484A"/>
<path d="M42.1 7.65C37.7 3.05 31.55 0.5 24.9 0.5C11.45 0.5 0.5 11.4 0.5 24.8C0.5 28.9 1.6 32.95 3.8 36.85L3.9 37L0.5 49.3L13.05 46.15L13.2 46.25C16.7 48.1 20.85 49.1 24.9 49.1C38.35 49.1 49.3 38.2 49.3 24.8C49.3 18.35 46.75 12.25 42.1 7.65ZM24.9 47.15C20.6 47.15 17 46.1 12.9 43.65L3.65 46.15L6.15 37.4C3.9 33.5 2.4 29.85 2.4 24.85C2.45 12.45 12.5 2.4 24.9 2.4C37.3 2.4 47.35 12.45 47.35 24.8C47.35 37.15 37.3 47.15 24.9 47.15Z" fill="#E9484A"/>
</svg>
