<svg width="12" height="11" viewBox="0 0 12 11" fill="none" xmlns="http://www.w3.org/2000/svg">
<path fill-rule="evenodd" clip-rule="evenodd" d="M2.89697 2.1728C2.81147 2.1767 2.70201 2.14471 2.64449 2.19038C2.20555 2.53966 1.98799 3.06334 1.76818 3.57969C1.69476 3.75189 1.79124 3.91138 2.00925 3.9087C2.0473 3.85667 2.12721 3.77826 2.17198 3.68056C2.37029 3.24995 2.49564 2.77317 2.8822 2.46785C2.92831 2.43146 2.89406 2.27416 2.89697 2.1728Z" fill="#666666"/>
<path fill-rule="evenodd" clip-rule="evenodd" d="M10.8145 8.20278C10.4871 8.72948 9.80933 8.88539 9.31311 8.52564C9.22961 8.46478 9.17941 8.29487 9.18443 8.17881C9.2164 7.44719 9.26819 6.71637 9.3139 5.98555C9.31839 5.91527 9.32685 5.84526 9.33451 5.76313C9.40295 5.77013 9.45685 5.78817 9.50573 5.77848C9.59557 5.76044 9.72425 5.75155 9.75886 5.69177C9.79454 5.63038 9.76996 5.47473 9.71553 5.42653C9.47719 5.21596 9.24071 4.98384 8.96274 4.84301C8.29238 4.50291 7.84478 3.98994 7.62071 3.26693C7.60485 3.21577 7.59772 3.15599 7.56654 3.11668C7.49731 3.02916 7.42174 2.89776 7.33692 2.88779C7.26585 2.87945 7.14853 3.0025 7.10308 3.09406C6.88562 3.52867 6.67608 3.97594 6.22161 4.19836C5.94099 4.33569 5.63475 4.45525 5.32903 4.49457C4.65049 4.58208 3.96085 4.58235 3.28389 4.67821C2.69492 4.76169 2.23278 5.12467 1.83617 5.56413C1.70564 5.70874 1.75795 5.89184 1.95771 5.92793C2.13263 5.95943 2.1395 6.04937 2.14611 6.18913C2.17623 6.82085 2.21032 7.45257 2.25259 8.08376C2.27743 8.45482 2.13633 8.6285 1.71858 8.70471C1.19197 8.80111 0.693103 8.50571 0.518182 7.99355C0.358587 7.52689 0.573142 6.96626 1.00965 6.70937C1.31405 6.53003 1.33122 6.48425 1.1777 6.16462C0.326351 4.39116 0.773429 2.6274 2.1728 1.37446C2.69412 0.90807 3.34017 0.664375 4.02875 0.599479C4.9385 0.51358 5.81522 0.637447 6.58704 1.19135C6.74505 1.30498 6.87796 1.45793 7.04363 1.55568C7.18658 1.6405 7.37101 1.74175 7.51713 1.71644C8.18643 1.60011 8.74607 1.85512 9.24652 2.23964C10.1217 2.91176 10.3743 3.88277 10.3523 4.94103C10.3439 5.36164 10.2614 5.78359 10.1814 6.19882C10.1335 6.44844 10.1843 6.58954 10.4139 6.71394C10.941 6.99992 11.1202 7.71135 10.8145 8.20278ZM8.85136 6.38363C8.84079 7.14056 8.86801 7.76852 8.6405 8.38462C8.22408 9.51182 7.09158 10.3568 5.90862 10.4055C5.01341 10.4422 4.22283 10.237 3.57308 9.62168C2.97777 9.05781 2.63718 8.28311 2.59384 7.44754C2.56478 6.88475 2.58988 6.31954 2.57641 5.75567C2.57086 5.53325 2.65383 5.32241 2.85226 5.26236C3.22985 5.14819 3.60955 5.07279 3.99744 5.02243C4.47332 4.96104 4.96056 4.94057 5.43935 4.89614C6.15462 4.8299 6.72245 4.5372 7.13729 3.93482C7.27152 3.74014 7.34075 3.74391 7.44275 3.95691C7.70063 4.49546 8.09487 4.89157 8.62729 5.14065C8.79772 5.22035 8.96498 5.3418 8.96075 5.52598C8.95283 5.85315 8.85136 6.18086 8.85136 6.38363ZM11.0026 6.63227C10.7217 6.377 10.6805 6.10934 10.7405 5.76574C10.7949 5.45419 10.8102 5.13563 10.8277 4.96626C10.8242 3.61287 10.42 2.59097 9.46953 1.84076C8.91834 1.40561 8.30639 1.12799 7.57631 1.21712C7.45345 1.2322 7.29227 1.16784 7.19159 1.08571C6.44858 0.480379 5.61229 0.120087 4.65894 0.0993527C3.22417 0.0681166 2.06155 0.642753 1.18483 1.80334C0.520556 2.68252 0.183926 3.66835 0.328724 4.7845C0.383156 5.20295 0.484621 5.61791 0.600618 6.02398C0.673282 6.27764 0.618322 6.43543 0.43521 6.61612C-0.123375 7.16706 -0.12998 7.95954 0.333481 8.58238C0.808304 9.22029 1.63112 9.37755 2.25259 8.96448C2.45023 8.83307 2.51735 8.88854 2.61723 9.06438C3.01014 9.75696 3.56476 10.2643 4.30302 10.5589C4.9702 10.8246 5.67306 10.9682 6.36482 10.8249C7.36704 10.6176 8.19435 10.0688 8.73893 9.15701C8.88214 8.91736 8.99365 8.87481 9.25101 8.99464C10.2107 9.44056 11.13 8.99195 11.3807 7.96789C11.506 7.4568 11.3857 6.98045 11.0026 6.63227Z" fill="#666666"/>
<path fill-rule="evenodd" clip-rule="evenodd" d="M6.6903 8.56092C6.291 8.72577 5.9072 8.70516 5.50582 8.56855C5.44414 8.54744 5.26803 8.58891 5.24449 8.69728C5.2126 8.84762 5.24449 8.91122 5.29902 8.93335C5.54753 9.03434 5.75612 9.15696 6.08629 9.13584C6.48111 9.10557 6.62206 9.04248 6.86998 8.9392C6.93435 8.91224 7.02493 8.79598 6.94328 8.67642C6.90723 8.62325 6.74513 8.53828 6.6903 8.56092Z" fill="#666666"/>
<path fill-rule="evenodd" clip-rule="evenodd" d="M5.01114 6.24879C4.754 6.21816 4.48607 6.23475 4.22985 6.27814C4.15871 6.28994 4.05709 6.46957 4.07033 6.55539C4.0848 6.64759 4.20552 6.75192 4.30284 6.79212C4.40077 6.83296 4.52642 6.80105 4.64005 6.80137C4.74353 6.80169 4.86178 6.83455 4.94678 6.79372C5.06072 6.73884 5.19776 6.73788 5.2301 6.53465C5.24919 6.41629 5.10014 6.25932 5.01114 6.24879Z" fill="#666666"/>
<path fill-rule="evenodd" clip-rule="evenodd" d="M7.34867 6.28473C7.2078 6.22549 7.03094 6.23 6.871 6.23722C6.65416 6.24714 6.38196 6.27451 6.39488 6.54755C6.40995 6.85907 6.70399 6.79713 6.92329 6.80344C6.9439 6.80404 6.96451 6.80344 6.98511 6.80344C7.08815 6.80344 7.2038 6.83201 7.29146 6.79593C7.39819 6.75202 7.56704 6.7439 7.55659 6.57882C7.54736 6.43899 7.44863 6.32683 7.34867 6.28473Z" fill="#666666"/>
</svg>
