<svg width="101" height="86" viewBox="0 0 101 86" fill="none" xmlns="http://www.w3.org/2000/svg">
<path d="M52.2658 86C48.4319 82.7211 44.5893 79.5476 40.8839 76.2307C37.5222 73.2203 34.2159 70.14 31.0556 66.9298C27.8287 63.6521 24.8057 60.1819 22.4009 56.2567C20.4858 53.1286 19.0946 49.8105 19.0581 46.1171C18.9951 39.8229 21.6316 34.6592 26.4525 30.5931C33.5007 24.6496 43.4486 23.8574 51.5556 28.4803C52.1121 28.7979 52.5025 28.7991 53.0363 28.4778C55.4147 27.0468 58.0033 26.1076 60.7682 25.7618C63.4147 25.4307 66.0663 25.4245 68.7053 26.0426C76.9244 27.9665 82.2868 32.8849 84.8074 40.6837C86.2855 45.2575 85.5717 49.705 83.4464 53.9772C81.4722 57.9465 78.599 61.2867 75.6968 64.6171C70.0688 71.0756 63.4349 76.5005 56.9343 82.0663C55.4197 83.3649 53.8836 84.6389 52.2658 86ZM52.3199 32.7868C51.9585 32.5354 51.6564 32.3257 51.3542 32.1148C44.3538 27.221 34.7724 27.6232 28.3247 33.1902C24.4468 36.539 22.2699 40.7793 22.2813 45.9074C22.2888 49.266 23.641 52.2445 25.4365 55.0403C28.2731 59.4547 31.7557 63.3933 35.5568 66.9984C40.5729 71.7574 45.8924 76.2135 51.0848 80.7971C51.47 81.138 51.8817 81.4507 52.3086 81.799C52.3123 81.8014 52.3174 81.8014 52.3199 81.799C54.1078 80.2833 55.8465 78.8278 57.5651 77.3502C63.2208 72.4895 68.8942 67.6483 73.7529 61.9869C76.3604 58.9495 78.9578 55.9122 80.6878 52.2862C81.9632 49.613 82.6305 46.8172 82.1949 43.8596C81.5162 39.2429 79.221 35.5078 75.5395 32.5612C73.8725 31.227 71.9637 30.2853 69.9631 29.5606C68.8702 29.1658 67.6855 28.9303 66.5233 28.8224C65.01 28.6814 63.4538 28.5588 61.958 28.7427C58.3974 29.1805 55.1679 30.5011 52.3312 32.7856C52.3275 32.7892 52.3224 32.7892 52.3199 32.7868Z" fill="#FF4445"/>
<path d="M53.4165 8.19496C53.4165 11.9693 53.4153 15.7436 53.4178 19.5179C53.4178 20.0844 53.2692 20.5443 52.646 20.7319C52.1109 20.8937 51.6702 20.7454 51.3693 20.31C51.2384 20.1212 51.1792 19.8502 51.1779 19.6172C51.1691 13.2212 51.1716 11.2496 51.1729 4.85359C51.1729 3.74631 51.1704 2.63903 51.1704 1.53298C51.1704 0.431832 51.4738 0.0112376 52.2733 0.000201561C53.0753 -0.0108344 53.4102 0.430606 53.4102 1.49987C53.4102 5.20675 53.4102 4.48809 53.4102 8.19373C53.4128 8.19496 53.4165 8.19496 53.4165 8.19496Z" fill="#FF4445"/>
<path d="M97.8468 31.7413L97.8455 31.7462C97.746 31.8639 97.5761 32.2011 97.2991 32.3593C91.2619 35.794 95.5711 32.8248 89.5238 36.2423C89.4231 36.2987 89.3224 36.3551 89.2191 36.4042C88.5871 36.7034 87.9412 36.5415 87.6466 36.0118C87.3482 35.4771 87.5232 34.8567 88.1313 34.5035C89.3853 33.7776 90.657 33.0811 91.9211 32.3711C96.7584 29.6562 91.2329 33.3195 96.0753 30.612C96.9717 30.1117 97.8644 30.5752 97.8468 31.7413Z" fill="#FF4445"/>
<path d="M17.3256 35.314L17.3268 35.319C17.2991 36.3796 16.4241 36.8272 15.5931 36.3784C14.1742 35.612 12.7766 34.8052 11.3702 34.0167C10.8721 34.1174 11.5164 34.0744 7.13491 31.6207C6.36689 31.1903 6.13019 30.5992 6.47517 30.0131C6.82519 29.4184 7.48116 29.2958 8.22526 29.7127C13.5951 32.7145 10.0507 30.7599 15.4156 33.7702C15.9167 34.051 16.4165 34.3453 16.866 34.6936C17.1065 34.8824 17.245 35.1988 17.3256 35.314Z" fill="#FF4445"/>
<path d="M97.8267 57.2855C96.132 57.2855 92.2573 57.2879 90.5638 57.2843C89.6963 57.2818 89.2443 56.9238 89.2267 56.2432C89.2066 55.4952 89.6309 55.1041 90.5286 55.1016C93.9633 55.093 90.7423 55.0943 94.177 55.1016C95.0747 55.1041 95.533 55.4916 95.5317 56.1991C95.5305 56.8747 95.0206 57.2818 94.1442 57.2843C92.4256 57.2892 99.544 57.2855 97.8267 57.2855Z" fill="#FF4445"/>
<path d="M10.4957 57.2855C8.8728 57.2855 9.83961 57.2965 8.21669 57.2806C7.24218 57.2708 6.6265 56.5179 7.04324 55.7859C7.22077 55.4732 7.70047 55.1372 8.04671 55.1323C11.4084 55.0832 10.8855 55.093 14.2472 55.109C14.9711 55.1127 15.4005 55.5676 15.3942 56.2052C15.3879 56.86 14.8905 57.2794 14.0684 57.2843C12.4467 57.2928 12.1187 57.2855 10.4957 57.2855Z" fill="#FF4445"/>
<path d="M75.0887 19.5448L75.0824 19.5473C73.9291 19.5117 73.452 18.6252 73.9392 17.8073C74.8218 16.3248 75.7434 14.8643 76.6474 13.3941C77.1599 12.5615 77.6673 11.7264 78.1822 10.8963C78.6229 10.1863 79.2651 9.96801 79.8644 10.315C80.4221 10.6375 80.548 11.3046 80.1363 11.9766C78.7236 14.2819 77.3122 16.5872 75.8643 18.8716C75.6591 19.1953 75.2587 19.4026 75.0887 19.5448Z" fill="#FF4445"/>
<path d="M31.3087 18.2058V18.2094C31.2621 18.8679 31.1664 19.3511 30.5457 19.4994C29.9313 19.6466 29.5133 19.3609 29.2262 18.8704C27.8727 16.5614 26.523 14.25 25.1834 11.9324C24.7968 11.2641 24.9618 10.5946 25.5485 10.2893C26.1239 9.98886 26.7396 10.1875 27.1198 10.8337C28.4544 13.101 29.7802 15.3744 31.0997 17.6503C31.2168 17.8575 31.2696 18.1003 31.3087 18.2058Z" fill="#FF4445"/>
<path d="M1.60972 57.7331C0.69061 57.7196 -0.0245362 57.0084 0.00064504 56.1341C0.0233081 55.3076 0.773708 54.6087 1.63365 54.6099C2.52128 54.6111 3.23769 55.3383 3.22258 56.2224C3.20621 57.0807 2.49736 57.7466 1.60972 57.7331Z" fill="#FF4445"/>
<path d="M24.4405 5.56832C24.4393 6.37886 23.7204 7.09742 22.9146 7.09252C22.0634 7.08884 21.3596 6.42423 21.3445 5.61247C21.3281 4.7492 22.0068 4.08336 22.9095 4.07355C23.7758 4.0662 24.4431 4.71732 24.4405 5.56832Z" fill="#FF4445"/>
<path d="M97.9769 56.2984C97.9127 55.5026 98.5335 54.7804 99.3506 54.7203C100.242 54.6541 101.006 55.3346 101 56.1549C100.994 56.979 100.27 57.6804 99.4488 57.6558C98.6543 57.6325 98.0386 57.0538 97.9769 56.2984Z" fill="#FF4445"/>
<path d="M82.4429 4.12138C83.2613 4.13487 83.926 4.80684 83.9097 5.60633C83.8946 6.38131 83.1782 7.05818 82.3799 7.05205C81.5389 7.04469 80.8577 6.34329 80.888 5.51314C80.9169 4.70751 81.5867 4.10789 82.4429 4.12138Z" fill="#FF4445"/>
<path d="M46.5962 60.123C48.0907 54.1905 49.5374 48.4469 50.9966 42.653C50.9979 42.6493 51.0017 42.6469 51.0054 42.6469C51.7206 42.6469 52.4118 42.6248 53.0993 42.664C53.2566 42.6726 53.4996 42.8774 53.5349 43.0294C54.5724 47.4304 55.5884 51.8349 56.6083 56.2395C57.2302 58.9262 57.8522 61.6128 58.478 64.2995C58.4956 64.3755 58.5497 64.443 58.6391 64.606C58.6429 64.6134 58.6542 64.6134 58.6567 64.606C59.0319 63.5159 59.3694 62.5239 59.7144 61.5356C59.946 60.8722 60.7229 60.329 61.4418 60.329C65.0301 60.3241 68.6184 60.3265 72.2067 60.3278C72.2672 60.3278 72.3289 60.3511 72.5014 60.3878C72.5077 60.3891 72.5114 60.3976 72.5077 60.4026C71.8202 61.191 71.2373 61.9917 70.502 62.6269C70.2162 62.8734 69.5841 62.7704 69.1095 62.7728C66.9275 62.7827 64.7456 62.79 62.5649 62.7594C62.1103 62.7532 61.9076 62.882 61.7691 63.2977C61.1195 65.251 60.4282 67.1909 59.7836 69.1467C59.6401 69.5833 59.46 69.7439 58.9614 69.7169C57.1509 69.6176 57.1471 69.6397 56.7518 67.934C55.2648 61.5282 53.7804 55.1224 52.2922 48.7179C52.2834 48.6799 52.2406 48.6492 52.1348 48.5131C51.8717 49.5272 51.6211 50.464 51.3844 51.4045C50.3331 55.5921 49.2843 59.7809 48.2431 63.9709C48.1511 64.34 48.0152 64.5545 47.5619 64.5509C46.9437 64.5447 46.3242 64.6244 45.696 64.6686C45.6922 64.6686 45.6884 64.6661 45.6872 64.6624C45.0602 63.1137 44.4545 61.6202 43.7998 60.0028C43.7973 59.9954 43.786 59.9954 43.7835 60.0028C43.5405 60.5239 43.3453 60.8992 43.1892 61.2903C42.7825 62.3118 42.0346 62.79 40.9053 62.7802C38.8391 62.7618 36.773 62.7949 34.7082 62.7606C34.3896 62.7557 34.0018 62.5754 33.7752 62.3522C33.1809 61.7649 32.6572 61.1101 31.9836 60.3425C31.9785 60.3363 31.9836 60.3278 31.9911 60.3278C32.3776 60.3278 32.6118 60.3278 32.846 60.3278C35.3062 60.3278 37.7677 60.313 40.2279 60.3412C40.7315 60.3474 40.9644 60.1757 41.1445 59.7416C41.5625 58.7374 42.0397 57.7564 42.469 56.757C42.6251 56.394 42.8404 56.2653 43.2572 56.2726C45.0148 56.3057 45.0148 56.291 45.6532 57.8532C45.9377 58.551 46.221 59.2487 46.5798 60.1279C46.5824 60.1316 46.5949 60.1316 46.5962 60.123Z" fill="#FF4445"/>
<path d="M40.729 33.3926C34.9688 33.6967 30.8177 36.398 28.2152 41.3937C28.078 41.6549 27.9672 41.9307 27.8186 42.1846C27.4459 42.8198 26.7005 43.0552 26.0244 42.7658C25.3911 42.496 24.9492 41.7566 25.269 41.1484C26.0244 39.7101 26.7408 38.2067 27.7607 36.9523C31.2256 32.6924 35.7998 30.544 41.4164 30.5931C41.6708 30.5955 41.9301 30.6004 42.1782 30.6507C42.9336 30.8028 43.373 31.3901 43.3088 32.1295C43.2509 32.8003 42.6956 33.3423 41.9817 33.3876C41.5663 33.4146 41.147 33.3926 40.729 33.3926Z" fill="#FF4445"/>
</svg>
