<svg width="18" height="18" viewBox="0 0 18 18" fill="none" xmlns="http://www.w3.org/2000/svg">
<path fill-rule="evenodd" clip-rule="evenodd" d="M17.2486 2.527C17.1939 2.69154 17.1235 2.85098 17.059 3.01212C17.0493 3.03587 17.034 3.05749 17.0213 3.08039H17.003C16.7567 2.32049 16.2537 1.81714 15.4815 1.56822C15.5095 1.54999 15.5248 1.53769 15.5422 1.52921C15.8174 1.39563 16.1036 1.29259 16.4073 1.24594C16.548 1.22474 16.6893 1.2205 16.8305 1.24976C17.1235 1.30912 17.3041 1.50504 17.3376 1.83113C17.3622 2.06987 17.3236 2.30183 17.2486 2.527ZM16.4013 4.03273C16.2436 4.20447 16.0931 4.383 15.9285 4.54753C14.3718 6.10677 12.8122 7.66305 11.2538 9.22059C10.5185 9.9559 9.78359 10.6921 9.0487 11.4278C8.85364 11.6233 8.65518 11.8154 8.46478 12.0151C8.0755 12.4226 7.63279 12.7636 7.16252 13.071C6.48658 13.5129 5.77629 13.8937 5.04819 14.2414C4.65001 14.4318 4.24461 14.6082 3.84261 14.7909C3.81886 14.8015 3.79384 14.8096 3.75271 14.8253C3.76374 14.7905 3.76798 14.7727 3.77519 14.7562C4.2268 13.7071 4.7204 12.6792 5.31959 11.7055C5.58547 11.2734 5.87213 10.8566 6.20967 10.4766C6.26819 10.4101 6.32883 10.3456 6.39117 10.2833C7.73372 8.94157 9.07711 7.60114 10.4188 6.25901C11.5803 5.09753 12.7397 3.93266 13.9024 2.77203C14.1013 2.57314 14.3137 2.38783 14.5181 2.19489C14.5724 2.14358 14.6335 2.12535 14.7073 2.12577C15.0338 2.12831 15.3472 2.18471 15.6347 2.3467C16.0829 2.59986 16.3331 2.99211 16.4179 3.49249C16.4412 3.62904 16.4391 3.76982 16.4476 3.90849C16.4505 3.95598 16.4344 3.99711 16.4013 4.03273ZM14.5027 12.2463C14.6071 12.8887 14.7101 13.5307 14.8148 14.1727C14.9141 14.7829 15.0146 15.3932 15.1147 16.0034C15.1359 16.1327 15.1566 16.2625 15.1778 16.3918C15.2228 16.6734 15.0231 16.9287 14.7385 16.9414C14.5727 16.949 14.4366 16.8795 14.3378 16.7442C14.2068 16.5644 14.077 16.3842 13.9464 16.2039C12.7442 14.5438 11.5416 12.8836 10.3398 11.2239C10.3212 11.198 10.3029 11.1713 10.2877 11.1497C11.4462 9.99115 12.5979 8.83985 13.7526 7.68473C13.7568 7.69873 13.7636 7.71781 13.767 7.73689C13.8913 8.50019 14.0151 9.2639 14.1398 10.0276C14.2606 10.7672 14.3823 11.5067 14.5027 12.2463ZM14.6991 9.08117C14.9861 8.7962 15.2707 8.50912 15.5582 8.22458C15.6706 8.11263 15.816 8.08719 15.9487 8.14867C16.0734 8.20719 16.1527 8.33526 16.1464 8.47223C16.143 8.54644 16.1171 8.61301 16.0696 8.67068C16.0509 8.69358 16.0302 8.71436 16.0094 8.73514C15.6311 9.11424 15.252 9.49292 14.8734 9.8716C14.853 9.89195 14.8318 9.91104 14.7962 9.94454C14.7712 9.79527 14.7487 9.66636 14.7275 9.53745C14.708 9.41871 14.6923 9.29913 14.6698 9.18082C14.6622 9.13926 14.669 9.11127 14.6991 9.08117ZM7.4283 16.4847C7.46477 16.6085 7.46689 16.7268 7.40328 16.8422C7.26164 17.1 6.90671 17.136 6.71759 16.9105C6.69893 16.8884 6.68239 16.8638 6.66543 16.8392C6.22611 16.2053 5.78679 15.5709 5.3479 14.9361C5.33136 14.9127 5.31652 14.8877 5.30125 14.864C5.77873 14.6155 6.24986 14.37 6.72734 14.121C6.73709 14.1482 6.74642 14.1723 6.75405 14.1974C6.9788 14.9598 7.2027 15.7227 7.4283 16.4847ZM3.651 13.2356C3.00814 12.7908 2.3657 12.3455 1.72241 11.9011C1.63124 11.8384 1.56169 11.7608 1.53244 11.6518C1.44211 11.3134 1.75633 11.0645 2.01331 11.131C2.18378 11.1751 2.35255 11.2269 2.52175 11.2765C3.13959 11.458 3.75744 11.6399 4.37486 11.8218C4.4003 11.8295 4.42532 11.8384 4.44695 11.8451C4.44992 11.8528 4.45119 11.8549 4.45161 11.8574C4.45246 11.86 4.45331 11.863 4.45246 11.8651C4.45034 11.8731 4.4478 11.8808 4.4444 11.8875C4.201 12.3459 3.95802 12.8043 3.70994 13.2717C3.69129 13.2606 3.67051 13.2492 3.651 13.2356ZM1.85085 4.25286C1.73932 4.17187 1.66596 4.07052 1.64052 3.93313C1.59217 3.67233 1.79954 3.40221 2.06457 3.39755C2.17567 3.39543 2.28804 3.41705 2.39872 3.43444C2.71591 3.48405 3.03226 3.53706 3.34902 3.58879C3.66282 3.64011 3.97705 3.69184 4.29127 3.74315C4.59998 3.79361 4.90869 3.84365 5.21782 3.89411C5.53459 3.94542 5.85136 3.99716 6.16813 4.04889C6.47938 4.09935 6.79106 4.14982 7.10274 4.20028C7.41654 4.25116 7.73076 4.3029 8.04498 4.35421C8.32189 4.39958 8.59922 4.44411 8.87655 4.48948C9.15897 4.53528 9.44096 4.58193 9.72381 4.62772C10.0351 4.67819 10.3467 4.72865 10.658 4.77953C10.7364 4.79183 10.8149 4.80583 10.8967 4.8194C9.73737 5.97918 8.58565 7.13048 7.42841 8.28772C7.41314 8.27754 7.38897 8.26185 7.36565 8.24532C5.52738 6.91421 3.68954 5.58311 1.85085 4.25286ZM8.69163 3.71686C9.08134 3.32674 9.47146 2.93661 9.86117 2.54648C9.93241 2.47566 10.0143 2.42944 10.1169 2.43071C10.2543 2.43326 10.3594 2.49432 10.4213 2.6173C10.482 2.7373 10.4714 2.85604 10.3955 2.96714C10.3777 2.99343 10.3548 3.01633 10.3319 3.0388C10.0596 3.31189 9.78569 3.58329 9.51514 3.85765C9.47316 3.90048 9.43457 3.91362 9.37478 3.90302C9.14367 3.86147 8.91129 3.82585 8.67933 3.7881C8.67001 3.78641 8.6611 3.78132 8.64287 3.77496C8.66195 3.75164 8.67552 3.73298 8.69163 3.71686ZM17.9706 1.63943C17.8811 1.12336 17.5792 0.781572 17.0712 0.633578C16.8227 0.561065 16.5687 0.558096 16.3143 0.592869C16.0047 0.635698 15.7096 0.728141 15.4238 0.853661C14.8788 1.09283 14.3861 1.41553 13.9502 1.81711C13.5482 2.18688 13.1669 2.57955 12.7785 2.96459C12.3655 3.37423 11.9546 3.78598 11.5441 4.19816C11.5076 4.23506 11.4707 4.24523 11.422 4.23718C11.087 4.18163 10.7515 4.12735 10.4165 4.07264C10.3703 4.06459 10.3245 4.05399 10.2664 4.04211C10.2957 4.01073 10.3148 3.98868 10.3351 3.96833C10.5018 3.80125 10.6718 3.63757 10.8347 3.4671C11.0759 3.21521 11.1684 2.91244 11.0976 2.57192C11.0174 2.189 10.7825 1.92694 10.4081 1.81541C10.0324 1.70389 9.69353 1.79124 9.40857 2.06688C9.33139 2.14151 9.25676 2.21826 9.18085 2.29417C8.74874 2.72628 8.31579 3.15796 7.88537 3.59177C7.83958 3.63799 7.79675 3.65114 7.73568 3.63629C7.67377 3.62103 7.60932 3.61509 7.54613 3.60491C7.23445 3.5536 6.9232 3.50229 6.61195 3.45141C6.33165 3.40603 6.05177 3.36193 5.77232 3.31656C5.48693 3.26991 5.20197 3.22327 4.91701 3.17662C4.63968 3.13167 4.36277 3.0863 4.08544 3.04135L3.23818 2.90353C2.95831 2.85773 2.67843 2.81321 2.39898 2.76529C2.22088 2.73518 2.04448 2.72034 1.8651 2.75723C1.28203 2.87894 0.890629 3.45141 0.990706 4.03787C1.04371 4.34997 1.19934 4.5955 1.45504 4.78039C2.52959 5.55852 3.60372 6.33666 4.67827 7.11437C5.414 7.64741 6.14973 8.18044 6.88546 8.71347C6.91048 8.73171 6.93465 8.75164 6.97833 8.78599C6.94398 8.81016 6.91641 8.82373 6.89564 8.84451C6.58056 9.15831 6.26549 9.47295 5.9517 9.78845C5.87409 9.86605 5.79861 9.94619 5.72525 10.0276C5.40679 10.3847 5.13115 10.7739 4.87291 11.1759C4.85467 11.2044 4.83432 11.2315 4.81481 11.2595C4.78725 11.2523 4.76604 11.2476 4.74611 11.2417C3.91455 10.9978 3.08298 10.754 2.25141 10.5093C2.08688 10.4606 1.92108 10.4504 1.75146 10.478C1.20655 10.5662 0.757901 11.0945 0.876636 11.7399C0.930914 12.0338 1.08654 12.2636 1.33207 12.4337C2.00589 12.9001 2.68013 13.367 3.35437 13.8339C3.38024 13.8517 3.40484 13.8712 3.4324 13.8916C3.41968 13.9217 3.4095 13.9463 3.3989 13.9705C3.26575 14.2804 3.13132 14.59 2.99987 14.9008C2.94135 15.0386 2.8841 15.1777 2.83321 15.3185C2.7624 15.5149 2.87392 15.7125 3.07535 15.7583C3.15465 15.7765 3.22928 15.7574 3.30179 15.7269C3.73602 15.5441 4.16983 15.3609 4.60406 15.1782C4.63035 15.1671 4.65706 15.157 4.68717 15.1447C4.70922 15.1756 4.7283 15.2011 4.74611 15.2273C5.20833 15.8948 5.6714 16.5618 6.13234 17.2301C6.26253 17.4188 6.42875 17.5596 6.6412 17.6457C6.66283 17.6546 6.68191 17.6699 6.70184 17.6822H7.37736C7.4045 17.6661 7.43037 17.647 7.45878 17.6347C7.6301 17.5613 7.7747 17.4524 7.88665 17.3039C8.11563 16.9999 8.16779 16.664 8.06051 16.3002C7.81837 15.4809 7.57836 14.6617 7.3375 13.842C7.32987 13.8148 7.32393 13.7868 7.31714 13.7584C7.42401 13.688 7.52493 13.6227 7.62543 13.5557C8.08765 13.247 8.52188 12.904 8.91073 12.5037C9.18128 12.2251 9.45946 11.9532 9.73467 11.6784C9.75502 11.6581 9.77622 11.6386 9.80294 11.6136C9.82499 11.6416 9.84365 11.6636 9.86019 11.6869C10.1214 12.0474 10.3826 12.4074 10.6434 12.7678C11.6951 14.2198 12.745 15.673 13.7988 17.1233C14.0727 17.5003 14.4493 17.6517 14.909 17.583C15.4653 17.5003 15.8839 16.9749 15.8372 16.4126C15.8202 16.2048 15.78 15.9991 15.7469 15.793C15.6812 15.3809 15.6125 14.9687 15.5455 14.5565C15.4789 14.1469 15.4127 13.7372 15.3462 13.3272C15.2783 12.9124 15.2105 12.4977 15.1426 12.083C15.0756 11.6704 15.0099 11.2578 14.9399 10.8465C14.9285 10.7786 14.9416 10.7332 14.9916 10.6836C15.498 10.1811 16.0022 9.67735 16.5051 9.17188C16.7608 8.9149 16.8515 8.60365 16.7824 8.25041C16.7048 7.8501 16.3626 7.49008 15.8665 7.4587C15.5679 7.43962 15.3088 7.54139 15.0951 7.75342C14.9297 7.91795 14.7656 8.08333 14.6002 8.24829C14.582 8.2661 14.5629 8.28306 14.5379 8.30638C14.5286 8.28052 14.5209 8.26652 14.5184 8.25168C14.4586 7.887 14.3997 7.52231 14.3395 7.15763C14.331 7.10589 14.3411 7.06688 14.3806 7.02871C14.487 6.92652 14.5888 6.8205 14.6931 6.71576C15.2622 6.14796 15.8317 5.57973 16.4008 5.01192C16.7171 4.69685 17.0063 4.36015 17.2561 3.98953C17.5237 3.59219 17.7446 3.17196 17.885 2.71101C17.9918 2.35947 18.0338 2.0003 17.9706 1.63943Z" fill="#666666"/>
<path fill-rule="evenodd" clip-rule="evenodd" d="M12.6647 5.51197C12.557 5.51151 12.4722 5.56021 12.3975 5.63601C12.0712 5.96448 11.7431 6.29203 11.4159 6.62051C11.4017 6.63475 11.3866 6.64853 11.3742 6.66415C11.2802 6.78175 11.2647 6.91268 11.3252 7.04729C11.3852 7.18097 11.4961 7.24667 11.6418 7.25034C11.7546 7.25448 11.8416 7.20532 11.9186 7.12768C12.2449 6.79875 12.5731 6.4712 12.8998 6.14319C12.9186 6.12435 12.9374 6.10598 12.9525 6.0853C13.0378 5.96678 13.0524 5.83861 12.9874 5.70814C12.9218 5.57813 12.8109 5.51243 12.6647 5.51197Z" fill="#666666"/>
<path fill-rule="evenodd" clip-rule="evenodd" d="M9.12462 8.98926C8.8757 8.98646 8.67734 9.19943 8.68128 9.42136C8.68577 9.66459 8.86839 9.85571 9.10833 9.85851C9.35782 9.86131 9.54887 9.67412 9.54999 9.42697C9.56291 9.18542 9.3404 8.9915 9.12462 8.98926Z" fill="#666666"/>
<path fill-rule="evenodd" clip-rule="evenodd" d="M11.038 8.13759C10.8986 8.09536 10.7752 8.12933 10.672 8.23306C10.3358 8.5695 9.99964 8.90593 9.66346 9.24237C9.64924 9.2566 9.63502 9.27174 9.62356 9.28827C9.54054 9.40485 9.5277 9.5297 9.58824 9.65821C9.6497 9.78765 9.75748 9.85099 9.89966 9.85833C10.0051 9.86154 10.0923 9.82253 10.1657 9.74955C10.5037 9.41082 10.8422 9.07255 11.1802 8.73381C11.1921 8.72142 11.204 8.70857 11.2146 8.6948C11.3659 8.49698 11.2769 8.21057 11.038 8.13759Z" fill="#666666"/>
</svg>
