<svg width="46" height="48" viewBox="0 0 46 48" fill="none" xmlns="http://www.w3.org/2000/svg">
<path d="M22.9478 47.6858C18.9974 47.6858 15.047 47.6858 11.0834 47.6858C10.0793 47.6858 9.934 47.5362 9.934 46.6139C9.934 45.6791 9.934 46.9564 9.934 46.0216C9.934 45.3735 9.63012 45.6699 8.92988 45.6574C8.12395 45.645 7.3048 45.6076 6.49887 45.645C4.80773 45.7197 3.73756 45.8762 2.94484 44.7046C0.936609 41.7366 4.58226 40.2153 6.32668 38.004C6.49844 37.6675 6.86881 37.4282 6.51208 37.0542C5.53439 36.0571 4.54349 35.0476 3.75077 33.9258C3.03732 32.9163 2.54848 31.7571 1.99357 30.6479C1.61042 29.8876 1.20085 29.1148 0.936609 28.3171C0.672368 27.507 0.645944 26.6221 0.408128 25.7995C-0.252473 23.6183 0.0778275 21.3873 0.117464 19.1812C0.130676 18.3461 0.4874 17.5111 0.698793 16.6884C0.857337 16.1151 1.01588 15.5542 1.22727 15.0058C1.57079 14.1209 1.9143 13.236 2.32387 12.376C2.70702 11.5783 3.15623 10.7931 3.63186 10.0453C4.0018 9.45946 4.4378 8.89859 4.91343 8.37511C6.01003 7.16612 7.14626 5.99453 8.46746 4.99743C10.1454 3.73859 11.9422 2.64177 13.9769 1.9438C15.4698 1.43279 17.0288 1.61698 18.4822 1.03118C19.1824 0.744518 19.8562 0.707127 20.5697 0.694663C22.3004 0.694663 24.0444 0.669735 25.7752 0.707127C26.2773 0.719591 26.7793 0.869156 27.2682 1.00626C28.1666 1.24307 29.065 0.909311 29.937 1.2209C31.2978 1.71946 32.6719 2.20554 33.9799 2.82873C34.984 3.30235 35.922 3.91308 36.8072 4.56119C37.8774 5.35888 38.9212 6.23134 39.8592 7.16612C40.6652 7.97627 41.3654 8.88612 42.0392 9.80844C42.5941 10.5563 43.0697 11.3664 43.519 12.1766C43.9285 12.8995 44.2985 13.6597 44.6156 14.42C44.8402 14.9684 44.9591 15.5418 45.1044 16.1151C45.329 16.9626 45.5668 17.8102 45.7782 18.6577C46.1523 20.1868 45.9667 22.1402 45.8443 23.6931C45.6293 26.4448 44.7329 29.3318 43.4661 31.7571C43.0697 32.505 42.5677 33.2154 42.1053 33.9258C41.339 35.085 39.8758 36.8435 39.8758 36.8435C39.8758 36.8435 43.0138 40.4761 43.3868 41.8601C43.585 42.5955 43.585 43.4555 43.4133 44.1909C43.2127 45.0172 40.7753 45.5034 39.9781 45.5951C38.974 45.6948 37.9567 45.645 36.9526 45.6574C36.3184 45.6699 36.0013 45.386 36.0013 45.9967C35.9881 46.8692 35.9617 45.5296 36.0145 46.402C36.0806 47.5612 35.7371 47.6983 34.6141 47.6858C30.7165 47.6733 26.8322 47.6858 22.9478 47.6858ZM33.7156 29.0774C33.927 29.3641 34.1913 29.6383 34.363 29.9499C34.5227 30.2271 35.3906 32.5161 36.0277 31.6574C37.5339 29.8003 38.6966 27.7687 39.2383 25.4505C39.3307 25.0766 39.6082 24.6777 40.0442 24.8647C40.3216 24.9769 40.6519 25.4879 40.5859 25.7247C40.3481 26.6096 39.9649 27.4821 39.6082 28.3296C38.8683 30.0496 38.5569 31.1021 37.1828 32.4607C36.599 33.0114 37.9202 34.4251 38.1605 34.8786C38.5569 35.6015 38.9664 35.7137 39.4949 35.0656C40.4594 33.8815 40.8105 33.2403 41.6957 31.9939C43.8671 28.9501 45.0769 24.4062 44.5627 20.6395C44.1513 17.6316 43.5004 14.6487 41.9071 12.027C40.8501 10.2821 39.661 8.61192 38.036 7.2783C35.7559 5.41037 33.5094 3.95955 30.7826 2.81627C29.8181 2.40496 28.7611 2.73872 27.7306 2.50191C26.5054 2.22995 26.2639 5.1568 26.1716 5.87959C26.0791 6.57756 25.7224 6.63988 25.1807 6.63988C23.8198 6.63988 22.459 6.63988 21.0982 6.63988C20.4508 6.63988 19.7109 6.73959 19.7902 5.75495C19.7902 5.71756 19.7505 5.68017 19.7505 5.64278C19.5127 4.87003 19.222 4.10974 19.0767 3.32452C18.9182 2.50191 18.72 2.29003 17.8348 2.55176C15.9983 3.07524 14.2147 3.14033 12.5103 4.03772C10.4096 5.14699 8.57316 6.54293 6.94808 8.20062C5.58724 9.59656 4.45101 11.1545 3.59222 12.8496C3.06374 13.8966 2.6806 15.0058 2.28424 16.1151C2.07284 16.7009 1.90109 17.2992 1.82181 17.9099C1.61042 19.4554 1.39903 21.0134 1.28012 22.5713C1.22727 23.2195 1.41224 23.88 1.53115 24.5406C1.67648 25.4131 1.74254 26.3229 2.03321 27.1455C2.56169 28.5913 3.20908 29.9873 3.85647 31.3957C4.63597 33.0908 5.95718 34.4618 7.17268 35.8826C7.4105 36.1693 7.76829 35.8541 8.03253 35.3929C8.58092 34.6753 8.31941 35.1028 8.92988 34.0879C9.33761 33.41 9.41873 33.0783 9.07521 32.7418C8.01825 31.7197 7.35765 30.4734 6.7499 29.1896C6.39317 28.4418 6.04966 27.694 5.67972 26.9461C5.22473 25.9855 6.18767 24.5673 6.77632 25.9864C6.94808 26.3977 7.02735 26.8589 7.22553 27.2702C7.93898 28.8157 8.75813 30.3238 9.88115 31.645C9.98684 31.7696 10.1982 31.8942 10.3304 31.8693C10.4757 31.8568 10.6342 31.6824 10.7135 31.5453C11.2023 30.7226 11.678 29.8876 12.18 29.0276C8.58637 23.6557 8.9431 16.7508 14.7696 12.2513C19.4467 8.64931 26.0923 8.26294 31.4564 12.4882C36.6487 16.5887 37.5075 23.4687 33.7156 29.0774ZM17.7819 29.738C17.6895 29.7006 17.597 29.6258 17.5045 29.6258C16.2493 29.6134 15.0074 29.6009 13.7523 29.6134C13.6334 29.6134 13.488 29.738 13.4088 29.8377C12.9728 30.4983 12.55 31.1713 12.114 31.8568C11.5062 32.829 10.8853 33.8012 10.2907 34.7858C9.55085 36.0197 8.60628 36.8588 7.74566 38.2941C7.17268 39.2497 5.16377 41.4823 5.16377 41.4823C5.16377 41.4823 29.1046 41.4613 40.6916 41.4738C42.6231 41.4738 37.9274 37.523 37.8676 37.4238C37.1146 36.1774 35.8824 35.1224 35.1425 33.876C34.4027 32.6421 33.6496 31.4206 32.8701 30.2116C32.6983 29.9499 32.3548 29.6508 32.0773 29.6258C30.9411 29.5635 29.7917 29.5884 28.6554 29.6009C28.4969 29.6009 28.3383 29.6757 28.1534 29.7255C28.2855 29.9748 28.4573 30.1742 28.4573 30.3737C28.4705 31.1963 28.6819 32.0064 28.1666 32.829C27.6645 33.6267 27.0171 34.0879 26.1055 34.1003C24.0048 34.1502 21.8909 34.1502 19.7902 34.0879C19.2749 34.0754 18.7068 33.7638 18.284 33.4397C17.2138 32.6545 17.2138 30.7476 17.7819 29.738ZM28.0213 27.9432C28.1785 28.24 28.669 28.2424 28.9989 28.2424C30.4748 28.2652 32.4815 28.7425 33.2796 27.1829C34.2309 25.3134 34.7594 23.3815 34.6273 21.2502C34.4687 18.7699 33.5175 16.6386 31.932 14.7566C30.1748 12.6626 27.7306 11.4537 24.9957 10.9551C22.7497 10.5438 20.4904 10.8055 18.3765 11.6905C16.3682 12.538 14.6639 13.7595 13.4088 15.5168C11.7705 17.8226 11.0306 20.3029 11.3345 23.0824C11.493 24.5032 11.9422 25.8119 12.5896 27.0708C13.4934 28.8347 16.1597 28.3926 17.8348 28.1053C17.8612 28.0429 17.8744 27.9931 17.9008 27.9308C15.8133 26.4102 14.8885 24.3163 14.8621 21.9731C14.8357 19.605 15.8133 17.536 17.8216 15.9531C20.6225 13.7595 25.0618 13.6473 28.008 15.8783C29.9898 17.3739 31.0468 19.4055 31.06 21.7363C31.0997 24.1667 30.188 26.3603 28.0213 27.9432ZM22.9478 28.1925C26.8454 28.4792 29.7652 25.1139 29.7388 21.836C29.7124 18.2464 26.5547 15.4545 22.961 15.4545C19.3806 15.4545 16.2229 18.2589 16.1965 21.8609C16.1833 25.1264 19.1031 28.4667 22.9478 28.1925ZM22.961 42.8074C17.7423 42.8074 12.5103 42.8074 7.29159 42.8074C6.35354 42.8074 5.40227 42.7825 4.46422 42.8199C4.26604 42.8323 4.01872 42.9286 3.90931 43.1564C3.77737 43.431 3.77719 43.2907 4.12071 43.907C4.46422 44.5232 5.97039 44.5232 7.43692 44.5232C15.5755 44.5232 23.7273 44.5232 31.866 44.5232C34.2177 44.5232 38.908 44.5108 38.908 44.5108C38.908 44.5108 41.6957 44.5232 41.9467 43.7449C42.1978 42.9667 42.0656 42.7949 40.9426 42.7949C34.9444 42.8074 28.9593 42.8074 22.961 42.8074ZM22.9743 46.3522C25.3392 46.3522 27.7174 46.3522 30.0823 46.3522C31.3771 46.3522 32.6719 46.3397 33.9667 46.3522C34.4951 46.3522 34.7462 46.1029 34.7594 46.2123C34.7858 45.7013 34.7462 46.8193 34.7462 46.2958C34.7594 45.199 34.6141 45.6325 33.3985 45.6325C26.8322 45.6325 20.279 45.6325 13.7126 45.6325C13.1445 45.6325 12.5764 45.62 11.9951 45.645C11.4402 45.6574 11.1759 45.9815 11.2024 46.505C11.242 46.4703 11.2948 45.3772 11.242 45.9132C11.1759 46.1652 11.2948 46.3397 12.1536 46.3397C15.7737 46.3522 19.3674 46.3522 22.9743 46.3522ZM23.0007 29.6009C22.0362 29.6009 21.0717 29.5884 20.1073 29.6134C19.8826 29.6258 19.592 29.7255 19.4466 29.8751C18.3349 31.0343 18.6017 32.9821 20.5432 33.016C22.1419 33.0284 23.7538 33.0409 25.3524 33.0035C25.7091 32.9911 26.1451 32.8664 26.3962 32.6421C27.225 31.8952 27.2319 29.6009 25.7884 29.6009C24.8372 29.6009 23.9255 29.6009 23.0007 29.6009ZM23.0007 2.05321C22.274 2.05321 21.5606 2.02829 20.8339 2.06568C20.2922 2.09061 20.094 2.4022 20.279 2.80104C20.4111 3.08771 20.4772 3.3993 20.5697 3.7109C20.7282 4.23437 20.8471 4.77032 21.0453 5.28133C21.0849 5.3935 21.3624 5.49321 21.5341 5.49321C22.4986 5.51814 23.4631 5.51814 24.4276 5.49321C24.5993 5.49321 24.89 5.34365 24.9296 5.21901C25.1278 4.59582 25.2467 3.96017 25.4053 3.33698C25.4449 3.19988 25.4845 3.06278 25.5506 2.93814C25.8809 2.38974 25.7356 2.09061 25.0485 2.06568C24.3483 2.04075 23.6745 2.05321 23.0007 2.05321Z" fill="#FF4445"/>
<path d="M11.9454 11.4092C11.8264 11.6087 11.7472 11.833 11.5886 11.9826C9.95034 13.553 8.90659 15.4724 8.02138 17.4791C7.79678 17.9901 7.63823 18.5261 7.54575 19.0745C7.45327 19.6229 7.09654 19.6229 6.68697 19.5855C6.19812 19.5356 6.29061 19.1991 6.31703 18.875C6.46236 17.3295 7.20224 15.9959 7.88926 14.6249C8.53665 13.3536 9.51434 12.3316 10.3731 11.2223C10.9861 10.4325 11.5206 10.6652 11.9454 11.4092Z" fill="#FF4445"/>
<path d="M41.2625 18.3267C41.2097 18.7878 41.3022 19.2988 40.5623 19.1991C40.3641 19.1742 40.0999 18.9872 40.0338 18.8127C39.0357 16.0289 37.6793 13.8408 35.687 11.7084C35.3964 11.3968 35.1057 11.0229 35.5021 10.7736C35.7927 10.5866 36.5062 10.5617 36.7044 10.7611C38.3306 12.3222 39.8669 14.3846 40.6548 16.5319C40.8662 17.1426 41.0643 17.7409 41.2625 18.3267Z" fill="#FF4445"/>
<path d="M40.9989 21.2431C42.003 21.7915 42.2805 22.7761 41.6199 23.4118C41.4613 23.5738 41.131 23.6984 40.9196 23.6486C40.7346 23.6112 40.51 23.3245 40.4836 23.1251C40.4176 22.7013 40.4043 22.2526 40.4836 21.8413C40.5233 21.6045 40.8271 21.43 40.9989 21.2431Z" fill="#FF4445"/>
<path d="M6.77899 24.0225C6.35621 24.222 5.89379 24.0101 5.78809 23.5988C5.68239 23.1625 5.73524 22.6765 5.84094 22.2278C5.94663 21.804 6.39584 21.7292 6.75257 21.8912C6.95075 21.9909 7.03002 22.3275 7.13572 22.5643C7.2662 22.872 7.03329 23.9026 6.77899 24.0225Z" fill="#FF4445"/>
</svg>
