<svg width="46" height="48" viewBox="0 0 46 48" fill="none" xmlns="http://www.w3.org/2000/svg">
<path d="M14.3375 38.0715C14.0561 38.3471 14.0561 38.7879 14.3281 39.0542C14.4688 39.1919 14.647 39.2562 14.8252 39.2562C15.0034 39.2562 15.1816 39.1919 15.3223 39.0542L15.3317 39.045C15.6037 38.7787 15.6131 38.3379 15.3317 38.0715C15.0597 37.8052 14.6189 37.8052 14.3375 38.0715Z" fill="#FF4445"/>
<path d="M20.0871 35.8676C19.8057 36.1431 19.8057 36.5839 20.0777 36.8502C20.2184 36.9879 20.3966 37.0522 20.5748 37.0522C20.753 37.0522 20.9312 36.9879 21.0719 36.8502L21.0812 36.841C21.3532 36.5747 21.3532 36.1339 21.0812 35.8676C20.7999 35.6012 20.3591 35.6012 20.0871 35.8676Z" fill="#FF4445"/>
<path d="M20.9589 24.4528C20.9589 23.0753 19.8147 21.9458 18.3984 21.9458C16.9822 21.9458 15.8379 23.0662 15.8379 24.4528C15.8379 25.8395 16.9916 26.9599 18.3984 26.9599C19.8053 26.9599 20.9589 25.8395 20.9589 24.4528ZM17.2448 24.4528C17.2448 23.8284 17.7607 23.3233 18.3984 23.3233C19.0362 23.3233 19.5521 23.8284 19.5521 24.4528C19.5521 25.0773 19.0362 25.5824 18.3984 25.5824C17.7607 25.5824 17.2448 25.0773 17.2448 24.4528Z" fill="#FF4445"/>
<path d="M25.6953 36.7953C23.7351 36.7953 22.1406 38.3564 22.1406 40.2757C22.1406 42.195 23.7351 43.7562 25.6953 43.7562C27.6555 43.7562 29.25 42.195 29.25 40.2757C29.25 38.3564 27.6555 36.7953 25.6953 36.7953ZM25.6953 42.3787C24.5135 42.3787 23.5475 41.4328 23.5475 40.2757C23.5475 39.1186 24.5135 38.1728 25.6953 38.1728C26.8771 38.1728 27.8431 39.1186 27.8431 40.2757C27.8431 41.4328 26.8771 42.3787 25.6953 42.3787Z" fill="#FF4445"/>
<path d="M9.63813 39.4492C8.29692 39.4492 7.19957 40.5144 7.19957 41.8368C7.19957 43.15 8.29692 44.2245 9.63813 44.2245C10.9793 44.2245 12.0767 43.15 12.0767 41.8368C12.0767 40.5236 10.9793 39.4492 9.63813 39.4492ZM9.63813 42.847C9.06601 42.847 8.60643 42.397 8.60643 41.8368C8.60643 41.2858 9.06601 40.8266 9.63813 40.8266C10.2103 40.8266 10.6698 41.2766 10.6698 41.8368C10.6698 42.3878 10.2009 42.847 9.63813 42.847Z" fill="#FF4445"/>
<path d="M36.9511 36.2442C36.6698 36.5197 36.6698 36.9605 36.9417 37.2268C37.0824 37.3645 37.2606 37.4288 37.4389 37.4288C37.6171 37.4288 37.7953 37.3645 37.9359 37.2268L37.9453 37.2176C38.2173 36.9513 38.2173 36.5105 37.9453 36.2442C37.6733 35.9778 37.2231 35.9778 36.9511 36.2442Z" fill="#FF4445"/>
<path d="M38.4515 41.5063C38.1702 41.7818 38.1702 42.2226 38.4422 42.4889C38.5828 42.6267 38.761 42.6909 38.9393 42.6909C39.1175 42.6909 39.2957 42.6267 39.4363 42.4889L39.4457 42.4797C39.7177 42.2134 39.7271 41.7726 39.4457 41.5063C39.1737 41.24 38.7235 41.24 38.4515 41.5063Z" fill="#FF4445"/>
<path d="M38.5261 33.1952C39.8298 33.1952 40.8896 32.1575 40.8896 30.881C40.8896 29.6045 39.8298 28.5668 38.5261 28.5668C37.2224 28.5668 36.1625 29.6045 36.1625 30.881C36.1625 32.1575 37.2224 33.1952 38.5261 33.1952ZM38.5261 29.9443C39.0513 29.9443 39.4827 30.3667 39.4827 30.881C39.4827 31.3953 39.0513 31.8177 38.5261 31.8177C38.0008 31.8177 37.5694 31.3953 37.5694 30.881C37.5694 30.3667 38.0008 29.9443 38.5261 29.9443Z" fill="#FF4445"/>
<path d="M43.3457 4.01087H33.704C32.2409 4.01087 31.0497 5.24143 31.0497 6.75667C31.0497 8.08824 31.9783 9.2086 33.1975 9.45655V32.2127L25.8256 22.708C24.8783 21.4958 23.9029 18.998 23.8935 16.9409L23.8653 6.16894C25.2816 6.03119 26.3977 4.85573 26.3977 3.43232C26.3977 1.91708 25.1315 0.686523 23.584 0.686523H13.2013C11.6538 0.686523 10.397 1.91708 10.397 3.43232C10.397 4.85573 11.5131 6.03119 12.9293 6.16894V16.9409C12.9199 18.998 11.9164 21.4958 10.9785 22.708L8.62432 25.7385C8.38984 26.0415 8.44611 26.4732 8.75562 26.7027C8.88693 26.7946 9.02762 26.8405 9.17768 26.8405C9.3934 26.8405 9.59974 26.7487 9.74043 26.565L12.0946 23.5345C13.1263 22.2029 14.2236 19.5673 14.308 17.1889H16.6903C17.0749 17.1889 17.3938 16.8766 17.3938 16.5001C17.3938 16.1236 17.0749 15.8114 16.6903 15.8114H14.308L14.3174 13.5156H16.6903C17.0749 13.5156 17.3938 13.2033 17.3938 12.8268C17.3938 12.4503 17.0749 12.1381 16.6903 12.1381H14.3174L14.3268 9.84225H16.6903C17.0749 9.84225 17.3938 9.53002 17.3938 9.1535C17.3938 8.77699 17.0749 8.46476 16.6903 8.46476H14.3268L14.3362 6.16894H22.4585V16.9317C22.4679 19.3745 23.6309 22.157 24.7001 23.5345L29.6616 29.9353C27.9828 29.4118 26.3414 29.32 24.625 29.6506C22.8336 29.9995 21.136 30.7617 19.2977 31.6893C15.6024 29.0904 10.1062 29.6598 6.42961 30.8719L7.80834 29.1179C8.04281 28.8149 7.98654 28.3833 7.67703 28.1537C7.36752 27.9241 6.9267 27.9792 6.69222 28.2823L2.42474 33.7279C1.32738 35.1238 0.5114 37.0431 0.173753 38.99C-0.192032 41.0929 0.0236876 43.0765 0.783394 44.5734C1.49621 45.9968 3.04376 47.6865 6.33582 47.6865H30.4588C32.2315 47.6865 33.704 47.1723 34.792 46.1897C35.758 47.1172 37.0711 47.6865 38.5249 47.6865C41.4605 47.6865 43.8616 45.3448 43.8616 42.4612V19.4112C43.8616 19.0347 43.5427 18.7225 43.1581 18.7225C42.7736 18.7225 42.4547 19.0347 42.4547 19.4112V23.8376C41.3949 24.3426 39.8661 24.2875 38.9188 23.6631C37.7276 22.8917 36.0206 22.7172 34.6044 23.158V20.504H36.9492C37.3337 20.504 37.6526 20.1918 37.6526 19.8153C37.6526 19.4388 37.3337 19.1265 36.9492 19.1265H34.595V16.8307H36.9492C37.3337 16.8307 37.6526 16.5185 37.6526 16.142C37.6526 15.7655 37.3337 15.4532 36.9492 15.4532H34.595V13.1574H36.9492C37.3337 13.1574 37.6526 12.8452 37.6526 12.4687C37.6526 12.0922 37.3337 11.7799 36.9492 11.7799H34.595V9.4841H42.4453V16.2338C42.4453 16.6103 42.7642 16.9226 43.1488 16.9226C43.5333 16.9226 43.8522 16.6103 43.8522 16.2338V9.43818C45.0715 9.19024 46 8.07906 46 6.7383C46 5.25061 44.8089 4.01087 43.3457 4.01087ZM13.2013 4.80981C12.4322 4.80981 11.8038 4.19453 11.8038 3.43232C11.8038 2.67929 12.4322 2.06401 13.2013 2.06401H23.584C24.3531 2.06401 24.9908 2.67929 24.9908 3.43232C24.9908 4.18535 24.3624 4.80981 23.584 4.80981H13.2013ZM3.53147 34.582L4.66634 33.131C7.48945 31.5423 13.8297 30.174 17.8721 32.4515C17.8158 32.479 17.7689 32.5066 17.7127 32.5341C13.6328 34.6738 9.037 37.0798 2.05895 37.3645C2.42474 36.3084 2.94059 35.335 3.53147 34.582ZM30.4588 46.3274H6.33582C4.27242 46.3274 2.82804 45.5376 2.04019 43.9765C1.29924 42.5163 1.26173 40.5879 1.66503 38.7512C9.22458 38.54 14.2987 35.886 18.388 33.7371C23.0869 31.276 26.4915 29.4853 31.4249 32.2035L33.1975 34.4902V42.4796C33.1975 43.4439 33.4602 44.3346 33.9291 45.1152C33.0944 45.9233 31.9314 46.3274 30.4588 46.3274ZM38.1309 24.8385C38.8907 25.3344 39.8661 25.5824 40.8321 25.5824C41.3855 25.5824 41.9295 25.4997 42.4453 25.3436V42.4796C42.4453 44.6009 40.6821 46.3274 38.5155 46.3274C36.3489 46.3274 34.5856 44.6009 34.5856 42.4796V24.6641C35.6549 24.1682 37.193 24.2233 38.1309 24.8385ZM43.3457 8.13416H33.704C33.01 8.13416 32.4566 7.51888 32.4566 6.76585C32.4566 6.01282 33.0193 5.39754 33.704 5.39754H43.3457C44.0398 5.39754 44.5931 6.01282 44.5931 6.76585C44.5931 7.51888 44.0304 8.13416 43.3457 8.13416Z" fill="#FF4445"/>
</svg>
