<svg width="48" height="49" viewBox="0 0 48 49" fill="none" xmlns="http://www.w3.org/2000/svg">
<path d="M8.67065 35.6285H10.5883V37.5761C10.5883 38.1117 11.0198 38.5499 11.5471 38.5499H15.3825C15.9098 38.5499 16.3413 38.1117 16.3413 37.5761V35.6285H18.259C18.7863 35.6285 19.2178 35.1903 19.2178 34.6547V30.7595C19.2178 30.2239 18.7863 29.7857 18.259 29.7857H16.3413V27.8381C16.3413 27.3025 15.9098 26.8642 15.3825 26.8642H11.5471C11.0198 26.8642 10.5883 27.3025 10.5883 27.8381V29.7857H8.67065C8.14329 29.7857 7.71182 30.2239 7.71182 30.7595V34.6547C7.71182 35.1903 8.14329 35.6285 8.67065 35.6285ZM9.62948 31.7333H11.5471C12.0745 31.7333 12.506 31.2951 12.506 30.7595V28.8119H14.4236V30.7595C14.4236 31.2951 14.8551 31.7333 15.3825 31.7333H17.3001V33.6809H15.3825C14.8551 33.6809 14.4236 34.1191 14.4236 34.6547V36.6023H12.506V34.6547C12.506 34.1191 12.0745 33.6809 11.5471 33.6809H9.62948V31.7333Z" fill="#FF4445"/>
<path d="M44.1474 39.7286C45.7415 39.7164 47.0119 38.4018 46.9999 36.7828C46.9879 35.5655 46.2328 34.47 45.1062 34.0561V9.57211C45.1062 7.96532 43.8118 6.65068 42.2297 6.65068H41.2709V5.67688C41.2709 4.07009 39.9765 2.75545 38.3944 2.75545L38.4064 1.69229C38.4064 1.20538 38.0708 0.767169 37.5914 0.694134C36.9921 0.621098 36.4887 1.08366 36.4887 1.66794L36.4767 2.75545C34.8947 2.75545 33.6003 4.07009 33.6003 5.67688V6.65068H32.6414C31.0593 6.65068 29.7649 7.96532 29.7649 9.57211V21.1604C29.7649 21.6838 30.1844 22.1221 30.6998 22.1099C31.2511 22.0977 31.6826 21.6352 31.6826 21.0752V9.57211C31.6826 9.03651 32.1141 8.5983 32.6414 8.5983H42.2297C42.7571 8.5983 43.1886 9.03651 43.1886 9.57211V10.5459H40.336C39.8566 10.5459 39.4252 10.8867 39.3532 11.3737C39.2693 11.9701 39.7248 12.4935 40.3001 12.4935H43.1766V14.4411H38.4064C37.927 14.4411 37.4955 14.782 37.4236 15.2689C37.3397 15.8653 37.7951 16.3888 38.3704 16.3888H43.1646V18.3364H40.3121C39.8327 18.3364 39.4012 18.6772 39.3293 19.1641C39.2454 19.7606 39.7008 20.284 40.2761 20.284H43.1526V22.2316H38.3824C37.903 22.2316 37.4715 22.5724 37.3996 23.0593C37.3157 23.6558 37.7712 24.1792 38.3465 24.1792H43.1406V26.1268H40.2881C39.8087 26.1268 39.3772 26.4677 39.3053 26.9546C39.2214 27.551 39.6768 28.0745 40.2521 28.0745H43.1286V30.0221H38.3585C37.879 30.0221 37.4476 30.3629 37.3756 30.8498C37.2918 31.4463 37.7472 31.9697 38.3225 31.9697H43.1166V33.8857H40.6477C40.1203 33.8857 39.6888 34.3239 39.6888 34.8595C39.6888 35.3951 40.1203 35.8333 40.6477 35.8333H44.0515C44.5669 35.8333 45.0103 36.2229 45.0463 36.7463C45.0823 37.3184 44.6388 37.781 44.0875 37.781H30.7597C30.2443 37.781 29.8009 37.3914 29.7649 36.868C29.729 36.2959 30.1724 35.8333 30.7238 35.8333H36.6925C37.2198 35.8333 37.6513 35.3951 37.6513 34.8595C37.6513 34.3239 37.2198 33.8857 36.6925 33.8857H31.6826V25.7617C31.6826 25.2504 31.2871 24.8 30.7837 24.7879C30.2204 24.7635 29.7649 25.2261 29.7649 25.786V34.0561C28.2668 34.6039 27.4997 36.2837 28.039 37.7931C28.4465 38.9374 29.5132 39.7042 30.7238 39.7164H33.6003V41.8437H32.7013C31.2271 41.8437 29.8848 43.0609 29.7769 44.546C29.6571 46.2623 30.9874 47.6865 32.6414 47.6865H42.1698C43.644 47.6865 44.9864 46.4693 45.0942 44.9842C45.2141 43.2679 43.8837 41.8437 42.2297 41.8437H41.2709V39.7164H44.1474V39.7286ZM39.3532 6.65068H35.5179V5.67688C35.5179 5.14128 35.9494 4.70307 36.4767 4.70307H38.3944C38.9218 4.70307 39.3532 5.14128 39.3532 5.67688V6.65068ZM35.5179 39.7286H39.3532V41.8559H35.5179V39.7286ZM42.2297 43.8035C42.7571 43.8035 43.1886 44.2417 43.1886 44.7773C43.1886 45.3129 42.7571 45.7511 42.2297 45.7511H32.6414C32.1141 45.7511 31.6826 45.3129 31.6826 44.7773C31.6826 44.2417 32.1141 43.8035 32.6414 43.8035H42.2297Z" fill="#FF4445"/>
<path d="M25.0307 34.5817C25.5461 34.5452 25.9296 34.0948 25.9296 33.5713V23.1738C25.9296 19.4125 22.9213 16.3693 19.2178 16.3572V14.4096H20.1646C20.692 14.4096 21.1235 13.9713 21.1235 13.4358V12.255C21.1235 11.7803 20.7399 11.3908 20.2725 11.3908H20.0688C19.6013 11.3908 19.2178 11.7803 19.2178 12.255V12.4619H7.71182V9.54052C7.71182 9.00493 8.14329 8.56671 8.67065 8.56671H18.259C18.7863 8.56671 19.2178 9.00493 19.2178 9.54052C19.2178 9.95439 19.5414 10.283 19.9489 10.283H20.3924C20.7999 10.283 21.1354 9.94221 21.1354 9.52835C21.1354 7.92156 19.841 6.60692 18.259 6.60692H8.67065C7.08858 6.60692 5.79416 7.92156 5.79416 9.52835V13.4236C5.79416 13.9592 6.22563 14.3974 6.75299 14.3974H7.71182V16.3572C4.00833 16.3693 1 19.4125 1 23.1738V44.188C1 45.7947 2.29442 47.1094 3.87649 47.1094H23.0531C24.6352 47.1094 25.9296 45.7947 25.9296 44.188V39.049C25.9296 38.5256 25.5461 38.0752 25.0307 38.0387C24.4794 38.0022 24.0119 38.4526 24.0119 39.0125V40.4976H2.91766V26.0953H24.0119V33.6079C24.0119 34.1678 24.4794 34.6182 25.0307 34.5817ZM24.0119 42.4452V44.188C24.0119 44.7236 23.5805 45.1618 23.0531 45.1618H3.87649C3.34914 45.1618 2.91766 44.7236 2.91766 44.188V42.4452H24.0119ZM2.91766 24.1476V23.1738C2.91766 20.4837 5.06305 18.3048 7.71182 18.3048C8.76653 18.3048 9.62948 17.4284 9.62948 16.3572V14.4096H17.3001V16.3572C17.3001 17.4284 18.1631 18.3048 19.2178 18.3048C21.8666 18.3048 24.0119 20.4837 24.0119 23.1738V24.1476H2.91766Z" fill="#FF4445"/>
<path d="M8.67065 35.6285H10.5883V37.5761C10.5883 38.1117 11.0198 38.5499 11.5471 38.5499H15.3825C15.9098 38.5499 16.3413 38.1117 16.3413 37.5761V35.6285H18.259C18.7863 35.6285 19.2178 35.1903 19.2178 34.6547V30.7595C19.2178 30.2239 18.7863 29.7857 18.259 29.7857H16.3413V27.8381C16.3413 27.3025 15.9098 26.8642 15.3825 26.8642H11.5471C11.0198 26.8642 10.5883 27.3025 10.5883 27.8381V29.7857H8.67065C8.14329 29.7857 7.71182 30.2239 7.71182 30.7595V34.6547C7.71182 35.1903 8.14329 35.6285 8.67065 35.6285ZM9.62948 31.7333H11.5471C12.0745 31.7333 12.506 31.2951 12.506 30.7595V28.8119H14.4236V30.7595C14.4236 31.2951 14.8551 31.7333 15.3825 31.7333H17.3001V33.6809H15.3825C14.8551 33.6809 14.4236 34.1191 14.4236 34.6547V36.6023H12.506V34.6547C12.506 34.1191 12.0745 33.6809 11.5471 33.6809H9.62948V31.7333Z" stroke="white"/>
<path d="M44.1474 39.7286C45.7415 39.7164 47.0119 38.4018 46.9999 36.7828C46.9879 35.5655 46.2328 34.47 45.1062 34.0561V9.57211C45.1062 7.96532 43.8118 6.65068 42.2297 6.65068H41.2709V5.67688C41.2709 4.07009 39.9765 2.75545 38.3944 2.75545L38.4064 1.69229C38.4064 1.20538 38.0708 0.767169 37.5914 0.694134C36.9921 0.621098 36.4887 1.08366 36.4887 1.66794L36.4767 2.75545C34.8947 2.75545 33.6003 4.07009 33.6003 5.67688V6.65068H32.6414C31.0593 6.65068 29.7649 7.96532 29.7649 9.57211V21.1604C29.7649 21.6838 30.1844 22.1221 30.6998 22.1099C31.2511 22.0977 31.6826 21.6352 31.6826 21.0752V9.57211C31.6826 9.03651 32.1141 8.5983 32.6414 8.5983H42.2297C42.7571 8.5983 43.1886 9.03651 43.1886 9.57211V10.5459H40.336C39.8566 10.5459 39.4252 10.8867 39.3532 11.3737C39.2693 11.9701 39.7248 12.4935 40.3001 12.4935H43.1766V14.4411H38.4064C37.927 14.4411 37.4955 14.782 37.4236 15.2689C37.3397 15.8653 37.7951 16.3888 38.3704 16.3888H43.1646V18.3364H40.3121C39.8327 18.3364 39.4012 18.6772 39.3293 19.1641C39.2454 19.7606 39.7008 20.284 40.2761 20.284H43.1526V22.2316H38.3824C37.903 22.2316 37.4715 22.5724 37.3996 23.0593C37.3157 23.6558 37.7712 24.1792 38.3465 24.1792H43.1406V26.1268H40.2881C39.8087 26.1268 39.3772 26.4677 39.3053 26.9546C39.2214 27.551 39.6768 28.0745 40.2521 28.0745H43.1286V30.0221H38.3585C37.879 30.0221 37.4476 30.3629 37.3756 30.8498C37.2918 31.4463 37.7472 31.9697 38.3225 31.9697H43.1166V33.8857H40.6477C40.1203 33.8857 39.6888 34.3239 39.6888 34.8595C39.6888 35.3951 40.1203 35.8333 40.6477 35.8333H44.0515C44.5669 35.8333 45.0103 36.2229 45.0463 36.7463C45.0823 37.3184 44.6388 37.781 44.0875 37.781H30.7597C30.2443 37.781 29.8009 37.3914 29.7649 36.868C29.729 36.2959 30.1724 35.8333 30.7238 35.8333H36.6925C37.2198 35.8333 37.6513 35.3951 37.6513 34.8595C37.6513 34.3239 37.2198 33.8857 36.6925 33.8857H31.6826V25.7617C31.6826 25.2504 31.2871 24.8 30.7837 24.7879C30.2204 24.7635 29.7649 25.2261 29.7649 25.786V34.0561C28.2668 34.6039 27.4997 36.2837 28.039 37.7931C28.4465 38.9374 29.5132 39.7042 30.7238 39.7164H33.6003V41.8437H32.7013C31.2271 41.8437 29.8848 43.0609 29.7769 44.546C29.6571 46.2623 30.9874 47.6865 32.6414 47.6865H42.1698C43.644 47.6865 44.9864 46.4693 45.0942 44.9842C45.2141 43.2679 43.8837 41.8437 42.2297 41.8437H41.2709V39.7164H44.1474V39.7286ZM39.3532 6.65068H35.5179V5.67688C35.5179 5.14128 35.9494 4.70307 36.4767 4.70307H38.3944C38.9218 4.70307 39.3532 5.14128 39.3532 5.67688V6.65068ZM35.5179 39.7286H39.3532V41.8559H35.5179V39.7286ZM42.2297 43.8035C42.7571 43.8035 43.1886 44.2417 43.1886 44.7773C43.1886 45.3129 42.7571 45.7511 42.2297 45.7511H32.6414C32.1141 45.7511 31.6826 45.3129 31.6826 44.7773C31.6826 44.2417 32.1141 43.8035 32.6414 43.8035H42.2297Z" stroke="white"/>
<path d="M25.0307 34.5817C25.5461 34.5452 25.9296 34.0948 25.9296 33.5713V23.1738C25.9296 19.4125 22.9213 16.3693 19.2178 16.3572V14.4096H20.1646C20.692 14.4096 21.1235 13.9713 21.1235 13.4358V12.255C21.1235 11.7803 20.7399 11.3908 20.2725 11.3908H20.0688C19.6013 11.3908 19.2178 11.7803 19.2178 12.255V12.4619H7.71182V9.54052C7.71182 9.00493 8.14329 8.56671 8.67065 8.56671H18.259C18.7863 8.56671 19.2178 9.00493 19.2178 9.54052C19.2178 9.95439 19.5414 10.283 19.9489 10.283H20.3924C20.7999 10.283 21.1354 9.94221 21.1354 9.52835C21.1354 7.92156 19.841 6.60692 18.259 6.60692H8.67065C7.08858 6.60692 5.79416 7.92156 5.79416 9.52835V13.4236C5.79416 13.9592 6.22563 14.3974 6.75299 14.3974H7.71182V16.3572C4.00833 16.3693 1 19.4125 1 23.1738V44.188C1 45.7947 2.29442 47.1094 3.87649 47.1094H23.0531C24.6352 47.1094 25.9296 45.7947 25.9296 44.188V39.049C25.9296 38.5256 25.5461 38.0752 25.0307 38.0387C24.4794 38.0022 24.0119 38.4526 24.0119 39.0125V40.4976H2.91766V26.0953H24.0119V33.6079C24.0119 34.1678 24.4794 34.6182 25.0307 34.5817ZM24.0119 42.4452V44.188C24.0119 44.7236 23.5805 45.1618 23.0531 45.1618H3.87649C3.34914 45.1618 2.91766 44.7236 2.91766 44.188V42.4452H24.0119ZM2.91766 24.1476V23.1738C2.91766 20.4837 5.06305 18.3048 7.71182 18.3048C8.76653 18.3048 9.62948 17.4284 9.62948 16.3572V14.4096H17.3001V16.3572C17.3001 17.4284 18.1631 18.3048 19.2178 18.3048C21.8666 18.3048 24.0119 20.4837 24.0119 23.1738V24.1476H2.91766Z" stroke="white"/>
</svg>
