<?xml version="1.0" encoding="utf-8"?>
<!-- Generator: Adobe Illustrator 25.2.3, SVG Export Plug-In . SVG Version: 6.00 Build 0)  -->
<svg version="1.1" id="Camada_1" xmlns="http://www.w3.org/2000/svg" xmlns:xlink="http://www.w3.org/1999/xlink" x="0px" y="0px"
	 viewBox="0 0 100 100" style="enable-background:new 0 0 100 100;" xml:space="preserve">
<style type="text/css">
	.st0{fill:#FFFFFF;}
</style>
<g id="Fitness_Event_Blue">
	<g id="Text_Top_1_">
	</g>
	<g id="Text_Bottom_1_">
	</g>
</g>
<g id="Fitness_Event_Yellow">
	<g id="Text_Top">
	</g>
	<g id="Text_Bottom">
	</g>
</g>
<g id="Live_Music_Promo_Dark">
	<g id="Text_1_">
	</g>
	<g id="Shapes_1_">
	</g>
</g>
<g id="Live_Music_Promo_Red">
	<g id="Text">
	</g>
	<g id="Shapes">
		<g>
			<path class="st0" d="M50.9,0.2c-27.6,0-50,22.4-50,50s22.4,50,50,50s50-22.4,50-50S78.5,0.2,50.9,0.2z M61.4,35.6
				c-2.1,0-4.3,0-6.3,0c-1,0-1.6,0.5-1.6,1.6c0,0.2,0,2,0,4.8h7.9l-1.6,9.5h-6.3c0,10.2,0,22.2,0,22.2H44c0,0,0-11.8,0-22.2h-4.8V42
				H44c0-3.5,0-6,0-6.3c0-1.2-0.2-9.6,10.1-9.6c1.4,0,4.5,0,7.3,0C61.4,29.7,61.4,34.5,61.4,35.6z"/>
		</g>
	</g>
</g>
</svg>
