<?xml version="1.0" encoding="utf-8"?>
<!-- Generator: Adobe Illustrator 25.2.3, SVG Export Plug-In . SVG Version: 6.00 Build 0)  -->
<svg version="1.1" id="Camada_1" xmlns="http://www.w3.org/2000/svg" xmlns:xlink="http://www.w3.org/1999/xlink" x="0px" y="0px"
	 viewBox="0 0 100 100" style="enable-background:new 0 0 100 100;" xml:space="preserve">
<style type="text/css">
	.st0{fill:#FFFFFF;}
</style>
<g id="Fitness_Event_Blue">
	<g id="Text_Top_1_">
	</g>
	<g id="Text_Bottom_1_">
	</g>
</g>
<g id="Fitness_Event_Yellow">
	<g id="Text_Top">
	</g>
	<g id="Text_Bottom">
	</g>
</g>
<g id="Live_Music_Promo_Dark">
	<g id="Text_1_">
	</g>
	<g id="Shapes_1_">
	</g>
</g>
<g id="Live_Music_Promo_Red">
	<g id="Text">
	</g>
	<g id="Shapes">
		<g>
			<path class="st0" d="M56.9,49.8c0,4.1-3.3,7.5-7.4,7.5s-7.3-3.4-7.3-7.5s3.3-7.5,7.4-7.5C53.6,42.3,56.9,45.6,56.9,49.8z
				 M68.2,39.6v20.3c0,4.7-3.7,8.5-8.3,8.5H39.2c-4.5,0-8.3-3.8-8.3-8.5V39.6c0-4.7,3.7-8.5,8.3-8.5h20.7
				C64.5,31.2,68.2,35,68.2,39.6z M61,49.8c0-6.4-5.1-11.6-11.4-11.6s-11.4,5.2-11.4,11.6s5.1,11.6,11.4,11.6
				C55.9,61.4,61,56.2,61,49.8z M64.2,37.5c0-1.5-1.1-2.6-2.6-2.6c-1.4,0-2.6,1.2-2.6,2.6s1.1,2.6,2.6,2.6
				C63,40.2,64.2,39,64.2,37.5z M100.4,50.1c0,27.6-22.4,50-50,50s-50-22.4-50-50s22.4-50,50-50C78,0.1,100.4,22.5,100.4,50.1z
				 M72.2,39.3c0-6.7-5.4-12.2-11.9-12.2H38.9c-6.6,0-11.9,5.5-11.9,12.2v20.9c0,6.7,5.4,12.2,11.9,12.2h21.4
				c6.6,0,11.9-5.5,11.9-12.2L72.2,39.3L72.2,39.3z"/>
		</g>
	</g>
</g>
</svg>
