<?xml version="1.0" encoding="utf-8"?>
<!-- Generator: Adobe Illustrator 25.2.3, SVG Export Plug-In . SVG Version: 6.00 Build 0)  -->
<svg version="1.1" id="Camada_1" xmlns="http://www.w3.org/2000/svg" xmlns:xlink="http://www.w3.org/1999/xlink" x="0px" y="0px"
	 viewBox="0 0 100 100" style="enable-background:new 0 0 100 100;" xml:space="preserve">
<style type="text/css">
	.st0{fill:#FFFFFF;}
</style>
<g id="Fitness_Event_Blue">
	<g id="Text_Top_1_">
	</g>
	<g id="Text_Bottom_1_">
	</g>
</g>
<g id="Fitness_Event_Yellow">
	<g id="Text_Top">
	</g>
	<g id="Text_Bottom">
	</g>
</g>
<g id="Live_Music_Promo_Dark">
	<g id="Text_1_">
	</g>
	<g id="Shapes_1_">
	</g>
</g>
<g id="Live_Music_Promo_Red">
	<g id="Text">
	</g>
	<g id="Shapes">
		<g>
			<path class="st0" d="M50,0C22.4,0,0,22.4,0,50s22.4,50,50,50s50-22.4,50-50S77.6,0,50,0z M38.5,70.3h-9.9V38.9h9.9V70.3z
				 M33.3,35L33.3,35c-3.6,0-6-2.4-6-5.4c0-3.1,2.4-5.4,6-5.4c3.7,0,5.9,2.3,6,5.4C39.4,32.6,37.1,35,33.3,35z M78.1,70.3H66.9V54
				c0-4.2-1.7-7.1-5.6-7.1c-2.9,0-4.6,2-5.3,3.8c-0.3,0.7-0.2,1.6-0.2,2.6v16.9H44.6c0,0,0.1-28.7,0-31.3h11.1v4.9
				c0.7-2.1,4.2-5.2,9.9-5.2c7,0,12.5,4.5,12.5,14.2V70.3z"/>
		</g>
	</g>
</g>
</svg>
