<svg width="52" height="48" viewBox="0 0 52 48" fill="none" xmlns="http://www.w3.org/2000/svg">
<path d="M17.7042 17.1078H13.308C12.6141 17.1078 12.0068 16.4991 12.0068 15.8034C12.0068 15.1077 12.6141 14.499 13.308 14.499H17.7042C18.3982 14.499 19.0054 15.1077 19.0054 15.8034C19.0054 16.4991 18.3982 17.1078 17.7042 17.1078Z" fill="#F7F8FC"/>
<path d="M33.7511 27.33C33.5776 27.417 33.3174 27.5039 33.1439 27.5039C33.0571 27.5039 32.8836 27.5039 32.7969 27.417L28.3727 26.1126C28.0257 26.0256 27.7655 25.7647 27.592 25.5038C27.4185 25.156 27.4185 24.8081 27.5053 24.5472C27.592 24.1994 27.8523 23.9385 28.1125 23.7646C28.3727 23.5907 28.8065 23.5907 29.0667 23.6776L33.4909 24.9821C33.8378 25.069 34.0981 25.3299 34.2716 25.5908C34.4451 25.9386 34.4451 26.2865 34.3583 26.5474C34.2716 26.8952 34.0113 27.1561 33.7511 27.33Z" fill="#F7F8FC"/>
<path d="M47.2294 13.053C46.9691 13.3139 46.7089 13.4009 46.3619 13.4009C46.1017 13.4009 45.7547 13.3139 45.4944 13.053L45.3209 12.8791C44.8872 12.4443 44.8872 11.6616 45.3209 11.2268L46.8824 9.57456C47.4029 9.13975 48.0969 9.13975 48.6173 9.57456L48.7908 9.74848C49.2246 10.1833 49.2246 10.9659 48.7908 11.4008L47.2294 13.053Z" fill="#F7F8FC"/>
<path d="M48.8477 20.1993C48.1537 20.1993 47.6332 19.6776 47.6332 18.9819V18.721C47.6332 18.1123 48.1537 17.5905 48.8477 17.5905H50.7855C51.4795 17.5905 52 18.1123 52 18.808V19.0689C52 19.6776 51.4795 20.1993 50.7855 20.1993H48.8477Z" fill="#F7F8FC"/>
<path d="M46.5922 24.2582C47.026 23.8234 47.8067 23.8234 48.2404 24.2582L49.8886 25.8235C50.3224 26.2583 50.3224 27.041 49.8886 27.4758L49.7151 27.7367C49.4549 27.9975 49.1947 28.0845 48.8477 28.0845C48.5007 28.0845 48.2404 27.9975 47.9802 27.7367L46.4187 26.1714C45.985 25.7366 45.985 24.9539 46.4187 24.5191L46.5922 24.2582Z" fill="#F7F8FC"/>
<path d="M4.37302 9.50291H8.71041C9.23089 9.50291 9.75138 9.85075 9.92487 10.3725H22.3298L36.3829 2.89384C37.0769 1.24157 39.0721 0.371953 40.8071 0.980684C42.195 1.50245 43.0625 2.80687 43.0625 4.28522V14.7206C44.971 14.8945 46.5324 16.5468 46.5324 18.4599V20.4601C46.5324 22.4602 44.971 24.1124 43.0625 24.1994V34.6348C43.0625 35.5914 42.7155 36.461 42.0215 37.0697C41.3275 37.6784 40.5468 38.2002 39.5926 38.2002C38.2046 38.2002 36.9902 37.3306 36.3829 36.1131L22.3298 28.6344H21.2021L20.5081 35.1565C20.4213 35.8522 20.5081 37.0144 19.0301 36.9298C17.5725 36.9298 16.3395 36.4782 16.084 37.7654C15.8285 39.0526 15.4767 41.5047 15.4767 41.5047L18.2527 43.5918C18.5996 43.8527 18.8599 44.2875 18.8599 44.7223V46.2876C18.8599 47.0703 18.2527 47.679 17.4719 47.679H10.0984C9.05739 47.679 8.10317 47.2442 7.58268 46.5485C7.0622 45.8528 6.80196 45.0702 6.8887 44.2005L8.8839 29.4171H4.45977C2.6061 29.4171 0.00273864 29.4228 0.00273864 27.3913C0.00273864 27.3913 0.104241 13.5638 0.00273864 11.5287C-0.098764 9.49364 2.64443 9.50291 4.37302 9.50291ZM2.78571 12.1118V26.8952H7.49594V12.1118H2.78571ZM10.0984 12.9814V26.0256H21.3756V12.9814H10.0984ZM13.308 43.244C12.8743 42.8961 12.7008 42.3743 12.7875 41.8526C12.7875 41.8526 13.3876 37.7629 13.4815 35.7853C13.5755 33.8078 16.3395 33.769 18.0792 33.8521L18.6864 28.6344H11.7466L9.57788 44.6353C9.57788 44.8093 9.57788 44.8962 9.66463 44.9832C9.75138 45.0701 9.83813 45.1571 10.0116 45.1571H15.9105L13.308 43.244ZM23.978 12.4596V26.5474L36.1227 32.9825V6.02445L23.978 12.4596ZM39.5926 35.5913C40.1131 35.5913 40.4601 35.2435 40.4601 34.7217V4.28522C40.4601 3.76345 40.1131 3.41561 39.5926 3.41561C39.0721 3.41561 38.7251 3.76345 38.7251 4.28522V34.7217C38.7251 35.2435 39.0721 35.5913 39.5926 35.5913ZM43.93 18.5469C43.93 18.0251 43.583 17.5034 43.0625 17.4164V21.6775C43.583 21.5036 43.93 21.0688 43.93 20.547V18.5469Z" fill="#F7F8FC"/>
</svg>
