<svg width="52" height="46" viewBox="0 0 52 46" fill="none" xmlns="http://www.w3.org/2000/svg">
<path d="M45.4624 43.955C42.9417 46.419 43.4966 40.6293 38.7088 38.7512C37.7417 38.2342 37.7734 36.804 38.7563 36.3216C43.0051 34.5984 42.7673 30.4457 44.4478 30.4285C46.0966 30.4457 45.8429 34.5295 50.0759 36.2871C51.0271 36.804 51.4076 38.4065 50.1076 38.8201C47.8563 39.785 46.4454 41.6115 45.4624 43.955ZM45.3198 39.0269C47.2856 37.8034 45.1612 34.5984 43.5283 36.1148C42.8466 36.7006 42.371 37.7345 43.0844 38.5271C43.6076 39.3026 44.6063 39.8195 45.3198 39.0269Z" fill="#F7F8FC"/>
<path d="M17.6075 8.79677C16.7989 8.24537 16.7831 6.88411 17.655 6.41887C19.827 5.40224 21.3648 3.76528 22.3002 1.38738C22.7282 0.422434 24.0599 0.319047 24.5038 1.37015C26.0733 5.9364 29.577 5.71239 29.9099 7.64228C29.5611 9.50325 26.0733 9.3654 24.5197 13.8283C24.0441 14.8449 22.5855 15.1551 22.2209 13.7938C21.3648 11.3987 19.7636 9.81341 17.6075 8.79677ZM22.4746 6.12594L22.0306 6.59118C20.7465 7.91798 23.0136 10.4682 24.266 9.12416C26.2794 7.86629 24.1233 4.66129 22.4746 6.12594Z" fill="#F7F8FC"/>
<path d="M51.7947 9.87065C51.2081 7.56168 49.4483 5.68348 47.2922 5.08039C45.1837 4.49453 43.091 5.23547 41.4422 7.1309C33.4996 15.7637 26.9361 22.8974 20.7691 29.6175C20.6422 29.7554 20.4837 29.8243 20.3093 29.8243C20.1349 29.8243 19.9764 29.7382 19.8654 29.6175C17.3288 26.8261 14.7447 24.0174 12.2398 21.3121L10.4642 19.3822C8.84711 17.5902 6.81785 16.9182 4.77272 17.4868C2.61663 18.0899 0.841017 19.9853 0.238578 22.3115C-0.3163 24.5171 0.254432 26.7055 1.8715 28.4631C5.20077 32.1161 8.59346 35.8208 11.8752 39.4048C13.1752 40.8178 14.491 42.248 15.791 43.6609C17.1386 45.1256 18.6922 45.901 20.3093 45.901C21.9105 45.901 23.4642 45.1428 24.7959 43.6954C28.3154 39.8701 31.8983 35.9758 35.3703 32.2022C40.1898 26.9639 45.1678 21.5534 50.0666 16.2289C51.7313 14.3852 52.3654 12.1279 51.7947 9.87065ZM48.3227 11.2491C48.3544 11.9728 48.0849 12.7138 47.5618 13.2824C42.1398 19.2099 36.6227 25.2064 31.28 31.0133C28.2996 34.2355 25.3349 37.475 22.3544 40.6972C21.6093 41.507 20.9435 41.9034 20.2935 41.9034C19.6435 41.9034 18.9618 41.507 18.2008 40.6799C16.2191 38.5261 14.2374 36.3549 12.2557 34.201C9.68736 31.4096 7.11907 28.6009 4.55077 25.7922L4.51907 25.7578C3.50443 24.7756 3.56785 23.5349 3.94833 22.6906C4.31297 21.9152 5.05809 21.226 6.02516 21.226C6.15199 21.226 6.27882 21.2432 6.40565 21.2604C9.02151 23.1042 11.241 25.6888 13.3971 28.1701C14.713 29.6865 16.0605 31.2545 17.5032 32.6675C17.6776 32.8398 17.8678 33.0465 18.0581 33.2705C18.6922 34.0115 19.4215 34.8558 20.3569 34.8558C20.3727 34.8558 20.3886 34.8558 20.4044 34.8558C20.9276 34.8386 21.4191 34.5629 21.863 33.9943C25.4142 30.1517 28.9496 26.2919 32.4849 22.4494C36.3057 18.2967 40.2532 13.9889 44.1532 9.78449C45.1679 8.6817 46.4361 8.54385 47.4349 9.43987C47.9739 9.92234 48.291 10.5599 48.3227 11.2491Z" fill="#F7F8FC"/>
</svg>
