<?xml version="1.0" encoding="utf-8"?>
<!-- Generator: Adobe Illustrator 25.2.3, SVG Export Plug-In . SVG Version: 6.00 Build 0)  -->
<svg version="1.1" id="Camada_1" xmlns="http://www.w3.org/2000/svg" xmlns:xlink="http://www.w3.org/1999/xlink" x="0px" y="0px"
	 viewBox="0 0 200 61.2" style="enable-background:new 0 0 200 61.2;" xml:space="preserve">
<style type="text/css">
	.st0{fill-rule:evenodd;clip-rule:evenodd;fill:#FFFFFF;}
</style>
<g id="Fitness_Event_Blue">
	<g id="Text_Top_1_">
	</g>
	<g id="Text_Bottom_1_">
	</g>
</g>
<g id="Fitness_Event_Yellow">
	<g id="Text_Top">
	</g>
	<g id="Text_Bottom">
	</g>
</g>
<g id="Live_Music_Promo_Dark">
	<g id="Text_1_">
	</g>
	<g id="Shapes_1_">
	</g>
</g>
<g id="Live_Music_Promo_Red">
	<g id="Text">
	</g>
	<g id="Shapes">
		<g>
			<path class="st0" d="M52.4,36.1c-2.3-4.3-0.9-9.7,3.4-12c-1.8-2.5-4.7-4-7.7-4.1c-3.6,0-5.2,1.8-7.7,1.8S35.9,20,32.7,20
				c-3.4,0.2-6.7,2-8.5,5c-2.9,4.5-2.5,12.9,2.3,20.1c1.8,2.7,4.1,5.6,7,5.6c2.5,0,3.4-1.8,7-1.8s4.1,1.8,6.8,1.8
				c3.1,0,5.4-3.2,7.2-5.8c0.9-1.4,1.8-3.2,2.5-4.9C55.1,39.3,53.3,37.9,52.4,36.1z"/>
			<path class="st0" d="M45.2,17c1.4-1.8,2.2-4.1,2-6.5c-2.3,0.4-4.7,1.4-6.1,3.2c-1.6,1.8-2.3,4.1-2,6.3C41.6,20.1,43.7,19,45.2,17
				z"/>
			<path class="st0" d="M71.5,25l-6.8,20h3.1l2-6.1h6.7l2.2,6.1h3.2l-6.8-20H71.5z M70.4,36.5l1.8-5.4c0.4-0.9,0.7-2,0.9-2.9
				c0.2,0.9,0.5,1.8,0.7,2.9l1.8,5.4H70.4z"/>
			<path class="st0" d="M95,32c-1.1-1.1-2.7-2-4.5-2c-2,0-3.8,0.7-4.9,2.3l-0.2-2h-2.7v0.2c0,1.3,0.2,2.5,0.2,4.5v15.5H86v-7.2
				c1.1,1.3,2.5,1.8,4.1,1.8c1.8,0,3.4-0.7,4.7-2c1.4-1.6,2.2-3.8,2-5.8C96.8,35.4,96.3,33.6,95,32z M89.8,42.8
				c-1.8,0-3.2-1.1-3.6-2.9c0-0.4,0-0.7,0-0.9v-2.5c0-0.2,0-0.5,0-0.7v-0.2c0.4-1.8,2-3.1,3.6-3.1c2.7,0,4,2.5,4,5
				C93.8,40.8,92.2,42.8,89.8,42.8z"/>
			<path class="st0" d="M110.7,32c-1.1-1.1-2.7-2-4.5-2s-3.8,0.7-4.9,2.3v-2h-2.9v0.2c0,1.3,0.2,2.5,0.2,4.5v15.5h3.1v-7.2
				c1.1,1.3,2.5,1.8,4.1,1.8c1.8,0,3.4-0.7,4.7-2c1.4-1.6,2.2-3.8,2-5.8C112.5,35.4,112,33.6,110.7,32z M105.5,42.8
				c-1.8,0-3.2-1.1-3.6-2.9c0-0.4-0.2-0.7-0.2-0.9v-2.5c0-0.2,0-0.5,0.2-0.7v-0.2c0.4-1.8,2-3.1,3.6-3.1c2.7,0,4,2.5,4,5
				C109.5,40.8,108,42.8,105.5,42.8z"/>
			<path class="st0" d="M126,33.4c-2.9-1.1-3.8-2-3.8-3.6c0-1.3,1.1-2.7,3.4-2.7c1.3,0,2.5,0.2,3.6,0.9l0.2,0.2l0.7-2.5l-0.2-0.2
				c-1.4-0.7-2.9-1.1-4.3-1.1c-4,0-6.7,2.3-6.7,5.6c0,2.7,1.6,4.5,5.4,5.8c2.5,0.9,3.6,2,3.6,3.6s-1.4,3.1-4,3.1
				c-1.6,0-3.1-0.4-4.3-1.3l-0.4-0.2l-0.5,2.9L119,44c1.6,0.9,3.4,1.3,5.2,1.3c5.2,0,7-3.2,7-5.8C131.2,37,129.6,34.8,126,33.4z"/>
			<path class="st0" d="M136.6,26.9l-2.9,0.9v2.5h-2.3v2.5h2.2v7.4c-0.2,1.4,0.2,2.7,1.1,3.8c0.7,0.7,1.8,1.3,2.9,1.1
				c0.7,0,1.6-0.2,2.3-0.4h0.2l-0.2-2.5h-0.4c-0.5,0.2-0.9,0.2-1.4,0.2c-1.3,0-1.6-0.7-1.6-2.5v-7h3.6v-2.5h-3.6L136.6,26.9z"/>
			<path class="st0" d="M147.8,30c-4,0-7.2,3.2-7.2,7.2c0,0.2,0,0.4,0,0.5c-0.4,3.8,2.5,7.2,6.3,7.4c0.2,0,0.5,0,0.7,0
				c4,0,7.2-3.2,7.2-7c0-0.2,0-0.4,0-0.7c0-2-0.5-4-2-5.4C151.6,30.7,149.8,30,147.8,30z M147.8,42.9c-2.3,0-4-2.2-4-5.2
				c-0.2-2.7,1.1-5.2,4-5.2c2.7,0,4,2.7,4,5.2C151.8,40.8,150,42.9,147.8,42.9z"/>
			<path class="st0" d="M164.2,30.2c-0.4,0-0.7-0.2-0.9,0c-1.6,0-3.1,0.9-3.8,2.5v-2.2h-2.9v0.2c0,1.3,0.2,2.5,0.2,4.3v9.9h3.1v-7.7
				c0-0.4,0-0.7,0.2-1.1c0.2-1.6,1.4-3.1,3.1-3.1h1.1v-2.8H164.2z"/>
			<path class="st0" d="M171,30c-4,0-6.8,3.2-6.8,7.9c-0.2,3.8,2.5,6.8,6.1,7.2c0.4,0,0.7,0,0.9,0c1.6,0,3.2-0.4,4.9-0.9h0.2
				l-0.5-2.3h-0.4c-1.3,0.5-2.5,0.7-3.8,0.7c-2.3,0.2-4.3-1.6-4.5-3.8c0-0.2,0-0.4,0-0.5h9.7v-0.2c0-0.4,0-0.9,0-1.3
				C177,33.8,175.3,30,171,30z M167.1,36.1c0.2-2.2,1.8-3.6,3.8-3.8c0.9,0,1.6,0.2,2.2,0.9c0.7,0.7,1.1,1.8,1.1,2.9
				C174.2,36.1,167.1,36.1,167.1,36.1z"/>
			<path class="st0" d="M76.4,18.6c1.2-1,1.8-2.5,1.8-4.5s-0.8-3.3-1.8-4.3s-2.5-1.6-4.7-1.6c-1.2,0-2.3,0-3.3,0.2v11.7
				c0.8,0.2,1.6,0.2,2.7,0.2C73.5,20.4,75.3,19.8,76.4,18.6z M70.2,9.5c0.4-0.2,1-0.2,1.8-0.2c3.1,0,4.7,1.8,4.7,4.5
				c0,3.3-1.8,5.1-5.1,5.1c-0.5,0-1,0-1.4,0V9.5z"/>
			<path class="st0" d="M80.7,10.2c0.6,0,1-0.4,1-1s-0.4-1-0.8-1c-0.6,0-1,0.4-1.2,1C79.7,9.8,80.1,10.2,80.7,10.2z"/>
			<rect x="80.1" y="11.6" class="st0" width="1.6" height="8.4"/>
			<path class="st0" d="M85.8,19c-0.8,0-1.6-0.2-2-0.6l-0.4,1.2c0.6,0.4,1.4,0.6,2.3,0.6c2,0,3.1-1,3.1-2.5c0-1.2-0.6-2-2.2-2.5
				c-1-0.4-1.6-0.6-1.6-1.4c0-0.6,0.4-1.2,1.4-1.2c0.8,0,1.4,0.4,1.8,0.6l0.4-1.2c-0.6-0.4-1.4-0.6-2.2-0.6c-1.8,0-2.9,1.2-2.9,2.5
				c0,1,0.6,1.8,2.2,2.3c1.2,0.4,1.6,0.8,1.6,1.6C87.4,18.4,87,19,85.8,19z"/>
			<path class="st0" d="M95.4,11.4C94,11.4,93,12,92.5,13v-1.4h-1.4c0,0.8,0,1.6,0,2.7h-0.2v9.2h1.6v-4.7c0.4,0.8,1.4,1.4,2.5,1.4
				c2.2,0,3.9-1.4,3.9-4.5C98.9,13.2,97.4,11.4,95.4,11.4z M95,19c-1.2,0-2.2-0.8-2.3-1.8c0-0.2,0-0.4,0-0.6V15c0-0.2,0-0.4,0-0.6
				c0.4-1.2,1.4-2,2.3-2c1.6,0,2.5,1.4,2.5,3.1C97.5,17.7,96.6,19,95,19z"/>
			<path class="st0" d="M104.4,20.2c2.2,0,4.3-1.4,4.3-4.5c0-2.5-1.6-4.3-4.3-4.3c-2.3,0-4.1,1.6-4.1,4.5
				C100.3,18.4,102,20.2,104.4,20.2z M104.6,12.6c1.8,0,2.5,2,2.5,3.3c0,2-1,3.3-2.5,3.3c-1.6,0-2.5-1.6-2.5-3.3
				C102,14.3,102.8,12.6,104.6,12.6z"/>
			<path class="st0" d="M114.8,11.4c-1.4,0-2.3,0.8-2.7,1.6v-1.4h-1.4c0,0.8,0,1.6,0,2.3V20h1.6v-5.1c0-0.2,0-0.4-0.2-0.8
				c0.4-0.8,1.2-1.6,2.2-1.6c1.4,0,2,1.2,2,2.5v5h1.6v-5.1C117.7,12.2,115.9,11.4,114.8,11.4z"/>
			<rect x="120.4" y="11.6" class="st0" width="1.6" height="8.4"/>
			<polygon class="st0" points="123.6,7.9 121.8,7.9 120.2,10.4 121.4,10.4 			"/>
			<path class="st0" d="M128.3,16.3c-0.4,0.8-0.6,1.4-0.8,2.1c0-0.6-0.4-1.4-0.6-2.1l-1.8-4.7h-1.8l3.1,8.4h1.6l3.3-8.4h-1.6
				L128.3,16.3z"/>
			<path class="st0" d="M136.3,20.4c1.2,0,2.2-0.4,2.7-0.6l-0.2-1.2c-0.6,0.2-1.2,0.4-2.3,0.4c-1.5,0-2.8-0.7-2.9-2.7h6
				c0-0.2,0-0.4,0-0.8c0-1.6-0.8-3.9-3.5-3.9c-2.3,0-3.9,2-3.9,4.5C132.2,18.6,133.7,20.4,136.3,20.4z M135.9,12.4
				c1.8,0,2.2,1.6,2.2,2.5h-4.5C133.7,13.7,134.3,12.4,135.9,12.4z"/>
			<rect x="141.6" y="7.7" class="st0" width="1.6" height="12.3"/>
			<path class="st0" d="M153.5,11.4c-1.4,0-2.3,0.8-2.7,1.6v-1.4h-1.4c0,0.8,0,1.6,0,2.3V20h1.2v-5.1c0-0.4,0.2-0.6,0.2-0.8
				c0.4-0.8,1.2-1.6,2.2-1.6c1.4,0,2,1.2,2,2.5v5h1.6v-5.1C156.4,12.2,154.7,11.4,153.5,11.4z"/>
			<path class="st0" d="M158.6,17.9c0,1.2,0.8,2.3,2.5,2.3c1.2,0,2.2-0.6,2.5-1.2l0.2,1h1.2c-0.2-0.6-0.2-1.2-0.2-2v-3.1
				c0-1.8-0.6-3.5-3.1-3.5c-1,0-2,0.4-2.7,0.8l0.6,1c0.6-0.4,1.4-0.6,2.2-0.6c1.8,0,2,1.2,2,2v0.2C160.3,14.7,158.6,15.9,158.6,17.9
				z M163.5,17.9c-0.2,0.6-0.8,1.4-2,1.4c-0.8,0-1.4-0.6-1.4-1.6c0-1.7,1.6-1.9,3.3-1.9v1.6C163.5,17.5,163.5,17.7,163.5,17.9z"/>
			<path class="st0" d="M190.1,0.5H9.9C4.4,0.5,0,4.9,0,10.3v40.6c0,5.4,4.4,9.8,9.9,9.8h180.2c5.5,0,9.9-4.4,9.9-9.8V10.3
				C200,4.9,195.6,0.5,190.1,0.5z M197.7,50.9c0,4.1-3.4,7.5-7.6,7.5H9.9c-4.2,0-7.6-3.4-7.6-7.5V10.3c0-4.1,3.4-7.5,7.6-7.5h180.2
				c4.2,0,7.6,3.4,7.6,7.5V50.9z"/>
		</g>
	</g>
</g>
</svg>
