<?xml version="1.0" encoding="utf-8"?>
<!-- Generator: Adobe Illustrator 25.2.3, SVG Export Plug-In . SVG Version: 6.00 Build 0)  -->
<svg version="1.1" id="Camada_1" xmlns="http://www.w3.org/2000/svg" xmlns:xlink="http://www.w3.org/1999/xlink" x="0px" y="0px"
	 viewBox="0 0 100 100" style="enable-background:new 0 0 100 100;" xml:space="preserve">
<style type="text/css">
	.st0{fill:#020203;}
</style>
<g id="Fitness_Event_Blue">
	<g id="Text_Top_1_">
	</g>
	<g id="Text_Bottom_1_">
	</g>
</g>
<g id="Fitness_Event_Yellow">
	<g id="Text_Top">
	</g>
	<g id="Text_Bottom">
	</g>
</g>
<g id="Live_Music_Promo_Dark">
	<g id="Text_1_">
	</g>
	<g id="Shapes_1_">
	</g>
</g>
<g id="Live_Music_Promo_Red">
	<g id="Text">
	</g>
	<g id="Shapes">
		<g>
			<path class="st0" d="M46.3,0c2.5,0,5,0,7.4,0c1.3,0.2,2.6,0.4,3.9,0.6c9.7,1.5,18.2,5.5,25.6,12c8.6,7.7,14,17.3,16.1,28.7
				c0.3,1.7,0.5,3.5,0.8,5.2c0,2.3,0,4.7,0,7c-0.1,0.3-0.1,0.6-0.2,0.9c-0.4,2.3-0.5,4.6-1.1,6.8c-6,25.1-29.3,41.4-54.9,38.4
				c-8.9-1-17-4.1-23.9-9.6C4.5,77.8-2,61.9,0.6,42.4C1.9,32.6,6.2,24,12.8,16.6c8-8.8,17.9-14.2,29.7-16C43.7,0.4,45,0.2,46.3,0z
				 M49.9,8.3c-16.4,0.8-29.1,7.8-36.7,22.4C5.3,45.9,6.6,61,16.7,74.9C24.8,86,36.2,91.2,49.9,91.6C49.9,63.8,49.9,36.2,49.9,8.3z"
				/>
		</g>
	</g>
</g>
</svg>
