<?xml version="1.0" encoding="utf-8"?>
<!-- Generator: Adobe Illustrator 25.2.1, SVG Export Plug-In . SVG Version: 6.00 Build 0)  -->
<svg version="1.1" id="Camada_1" xmlns="http://www.w3.org/2000/svg" xmlns:xlink="http://www.w3.org/1999/xlink" x="0px" y="0px"
	 viewBox="0 0 100 100" style="enable-background:new 0 0 100 100;" xml:space="preserve">
<style type="text/css">
	.st0{fill:#676767;}
</style>
<g id="Fitness_Event_Blue">
	<g id="Text_Top_1_">
	</g>
	<g id="Text_Bottom_1_">
	</g>
</g>
<g id="Fitness_Event_Yellow">
	<g id="Text_Top">
	</g>
	<g id="Text_Bottom">
	</g>
</g>
<g id="Live_Music_Promo_Dark">
	<g id="Text_1_">
	</g>
	<g id="Shapes_1_">
	</g>
</g>
<g id="Live_Music_Promo_Red">
	<g id="Text">
	</g>
	<g id="Shapes">
		<g>
			<path class="st0" d="M30.9,79.4c-0.6,0.6-0.6,1.5,0,2.1c0.3,0.3,0.7,0.4,1.1,0.4c0.4,0,0.8-0.1,1.1-0.4l0,0
				c0.6-0.6,0.6-1.5,0-2.1S31.5,78.8,30.9,79.4z"/>
			<path class="st0" d="M43.4,74.7c-0.6,0.6-0.6,1.5,0,2.1c0.3,0.3,0.7,0.4,1.1,0.4c0.4,0,0.8-0.1,1.1-0.4l0,0
				c0.6-0.6,0.6-1.5,0-2.1C44.9,74.1,44,74.1,43.4,74.7z"/>
			<path class="st0" d="M45.3,50.4c0-2.9-2.5-5.3-5.6-5.3s-5.6,2.4-5.6,5.3c0,3,2.5,5.3,5.6,5.3S45.3,53.4,45.3,50.4z M37.2,50.4
				c0-1.3,1.1-2.4,2.5-2.4s2.5,1.1,2.5,2.4c0,1.3-1.1,2.4-2.5,2.4C38.3,52.8,37.2,51.7,37.2,50.4z"/>
			<path class="st0" d="M55.6,76.7c-4.3,0-7.7,3.3-7.7,7.4s3.5,7.4,7.7,7.4s7.7-3.3,7.7-7.4S59.8,76.7,55.6,76.7z M55.6,88.5
				c-2.6,0-4.7-2-4.7-4.5s2.1-4.5,4.7-4.5c2.6,0,4.7,2,4.7,4.5S58.1,88.5,55.6,88.5z"/>
			<path class="st0" d="M20.7,82.3c-2.9,0-5.3,2.3-5.3,5.1c0,2.8,2.4,5.1,5.3,5.1s5.3-2.3,5.3-5.1C26,84.6,23.6,82.3,20.7,82.3z
				 M20.7,89.5c-1.2,0-2.2-1-2.2-2.1c0-1.2,1-2.1,2.2-2.1s2.2,1,2.2,2.1C22.9,88.6,21.9,89.5,20.7,89.5z"/>
			<path class="st0" d="M80,75.5c-0.6,0.6-0.6,1.5,0,2.1c0.3,0.3,0.7,0.4,1.1,0.4s0.8-0.1,1.1-0.4l0,0c0.6-0.6,0.6-1.5,0-2.1
				S80.6,74.9,80,75.5z"/>
			<path class="st0" d="M83.3,86.7c-0.6,0.6-0.6,1.5,0,2.1c0.3,0.3,0.7,0.4,1.1,0.4s0.8-0.1,1.1-0.4l0,0c0.6-0.6,0.6-1.5,0-2.1
				S83.9,86.1,83.3,86.7z"/>
			<path class="st0" d="M83.5,69c2.8,0,5.1-2.2,5.1-4.9c0-2.7-2.3-4.9-5.1-4.9c-2.8,0-5.1,2.2-5.1,4.9C78.3,66.8,80.6,69,83.5,69z
				 M83.5,62.1c1.1,0,2.1,0.9,2.1,2s-0.9,2-2.1,2s-2.1-0.9-2.1-2S82.3,62.1,83.5,62.1z"/>
			<path class="st0" d="M93.9,6.9H73c-3.2,0-5.8,2.6-5.8,5.8c0,2.8,2,5.2,4.7,5.7v48.4l-16-20.2c-2.1-2.6-4.2-7.9-4.2-12.3
				l-0.1-22.9c3.1-0.3,5.5-2.8,5.5-5.8c0-3.2-2.8-5.8-6.1-5.8H28.4c-3.4,0-6.1,2.6-6.1,5.8c0,3,2.4,5.5,5.5,5.8v22.9
				c0,4.4-2.2,9.7-4.2,12.3L18.5,53c-0.5,0.6-0.4,1.6,0.3,2.1c0.3,0.2,0.6,0.3,0.9,0.3c0.5,0,0.9-0.2,1.2-0.6l5.1-6.4
				c2.2-2.8,4.6-8.4,4.8-13.5H36c0.8,0,1.5-0.7,1.5-1.5s-0.7-1.5-1.5-1.5h-5.2V27H36c0.8,0,1.5-0.7,1.5-1.5S36.8,24,36,24h-5.2v-4.9
				H36c0.8,0,1.5-0.7,1.5-1.5s-0.7-1.5-1.5-1.5h-5.1v-4.9h17.7v22.9c0,5.2,2.5,11.1,4.9,14l10.8,13.6c-3.6-1.1-7.2-1.3-10.9-0.6
				c-3.9,0.7-7.6,2.4-11.6,4.3c-8-5.5-20-4.3-28-1.7l3-3.7c0.5-0.6,0.4-1.6-0.3-2.1c-0.7-0.5-1.6-0.4-2.1,0.3L5,70.1
				c-2.4,3-4.2,7.1-4.9,11.2c-0.8,4.5-0.3,8.7,1.3,11.9c1.5,3,4.9,6.6,12.1,6.6h52.4c3.9,0,7.1-1.1,9.4-3.2c2.1,2,5,3.2,8.1,3.2
				c6.4,0,11.6-5,11.6-11.1v-49c0-0.8-0.7-1.5-1.5-1.5S92,38.9,92,39.7v9.4c-2.3,1.1-5.6,1-7.7-0.4c-2.6-1.6-6.3-2-9.4-1.1V42H80
				c0.8,0,1.5-0.7,1.5-1.5S80.8,39,80,39h-5.1v-4.9H80c0.8,0,1.5-0.7,1.5-1.5s-0.7-1.5-1.5-1.5h-5.1v-4.9H80c0.8,0,1.5-0.7,1.5-1.5
				s-0.7-1.5-1.5-1.5h-5.1v-4.9H92v14.4c0,0.8,0.7,1.5,1.5,1.5s1.5-0.7,1.5-1.5V18.5c2.7-0.5,4.7-2.9,4.7-5.7
				C99.7,9.5,97.1,6.9,93.9,6.9z M28.4,8.6c-1.7,0-3-1.3-3-2.9s1.4-2.9,3-2.9H51c1.7,0,3.1,1.3,3.1,2.9S52.7,8.6,51,8.6H28.4z
				 M7.4,72l2.5-3.1c6.1-3.4,19.9-6.3,28.7-1.4c-0.1,0.1-0.2,0.1-0.3,0.2c-8.9,4.6-18.9,9.7-34,10.3C5,75.6,6.1,73.6,7.4,72z
				 M65.9,96.9H13.5c-4.5,0-7.6-1.7-9.3-5c-1.6-3.1-1.7-7.2-0.8-11.1c16.4-0.4,27.5-6.1,36.4-10.7c10.2-5.2,17.6-9,28.3-3.3l3.9,4.9
				v17c0,2.1,0.6,3.9,1.6,5.6C71.7,96.1,69.1,96.9,65.9,96.9z M82.6,51.2c1.7,1.1,3.8,1.6,5.9,1.6c1.2,0,2.4-0.2,3.5-0.5v36.5
				c0,4.5-3.8,8.2-8.5,8.2S75,93.3,75,88.8V50.9C77.2,49.8,80.6,49.9,82.6,51.2z M93.9,15.7H73c-1.5,0-2.7-1.3-2.7-2.9
				s1.2-2.9,2.7-2.9h21c1.5,0,2.7,1.3,2.7,2.9S95.4,15.7,93.9,15.7z"/>
		</g>
	</g>
</g>
</svg>
