<?xml version="1.0" encoding="utf-8"?>
<!-- Generator: Adobe Illustrator 25.2.3, SVG Export Plug-In . SVG Version: 6.00 Build 0)  -->
<svg version="1.1" id="Camada_1" xmlns="http://www.w3.org/2000/svg" xmlns:xlink="http://www.w3.org/1999/xlink" x="0px" y="0px"
	 viewBox="0 0 200 61.9" style="enable-background:new 0 0 200 61.9;" xml:space="preserve">
<style type="text/css">
	.st0{fill-rule:evenodd;clip-rule:evenodd;fill:#FFFFFF;}
</style>
<g id="Fitness_Event_Blue">
	<g id="Text_Top_1_">
	</g>
	<g id="Text_Bottom_1_">
	</g>
</g>
<g id="Fitness_Event_Yellow">
	<g id="Text_Top">
	</g>
	<g id="Text_Bottom">
	</g>
</g>
<g id="Live_Music_Promo_Dark">
	<g id="Text_1_">
	</g>
	<g id="Shapes_1_">
	</g>
</g>
<g id="Live_Music_Promo_Red">
	<g id="Text">
	</g>
	<g id="Shapes">
		<g>
			<path class="st0" d="M16.2,14c0,0.2-0.2,0.5-0.2,0.7v32.4c0,0.4,0,0.7,0.2,0.9l17.1-17.1L16.2,14z"/>
			<path class="st0" d="M17.5,49c0.5,0,0.9-0.2,1.4-0.4L39.3,37l-4.9-4.9L17.5,49z"/>
			<path class="st0" d="M39.3,24.9L18.7,13.3c-0.4-0.2-0.9-0.4-1.4-0.4l17.1,16.9L39.3,24.9z"/>
			<path class="st0" d="M47.6,29.8l-6.8-4L35.6,31l5.2,5.4l6.7-3.6c0.7-0.5,1.1-1.1,1.3-1.6C48.6,30.7,48.3,30.2,47.6,29.8z"/>
			<g>
				<path class="st0" d="M70.8,35.6v2.7h6.3c-0.2,1.3-0.5,2.5-1.4,3.4c-1.3,1.3-3.1,2-4.9,2c-3.8,0-6.8-3.1-6.8-6.8v-0.2
					c0-3.8,3.1-7,6.8-7c1.8,0,3.6,0.7,4.9,2l2-2c-1.8-2.2-4.3-3.1-6.8-3.1c-5.4,0-9.7,4.3-9.9,9.7c0.2,5.4,4.5,9.7,9.9,9.7
					c2.5,0.2,5-0.9,6.8-2.7c1.6-1.6,2.3-4,2.3-6.1c0-0.5,0-1.1-0.2-1.6C79.8,35.6,70.8,35.6,70.8,35.6z"/>
				<path class="st0" d="M167.6,33.4c-2-0.2-4,0.9-4.9,2.7l2.5,1.1c0.5-0.9,1.4-1.4,2.3-1.3c1.4-0.2,2.7,0.9,2.9,2.3v0.2
					c-0.9-0.5-1.8-0.7-2.9-0.7c-2.7,0-5.2,1.4-5.2,4.1c0.2,2.3,2.2,4.1,4.5,4.1c1.4,0,2.9-0.5,3.6-1.8h0.2v1.4h2.7v-7
					C173.2,35.6,170.6,33.2,167.6,33.4z M167.2,43.6c-0.9,0-2.2-0.4-2.2-1.6c0-1.4,1.6-2,2.9-2c0.9,0,1.8,0.2,2.5,0.5
					C170.3,42.2,169,43.5,167.2,43.6z"/>
				<path class="st0" d="M151.4,27.3c-0.5,0-0.7,0-0.9,0H144v18.3h2.9v-6.8h3.8c3.2,0.2,5.9-2.2,6.1-5.4
					C156.9,30.2,154.6,27.5,151.4,27.3z M150.5,35.9l-4,0.2v-6.3h4c1.8,0,3.1,1.4,3.2,3.1C153.7,34.7,152.3,35.9,150.5,35.9z"/>
				<polygon class="st0" points="158,27.3 158,45.6 160.9,45.6 160.7,27.3 				"/>
				<path class="st0" d="M137.5,37.5c-0.7-2.3-2.9-4-5.2-4c-3.2,0-5.9,2.7-5.9,5.9c0,0.2,0,0.2,0,0.4c0,3.4,2.5,6.3,5.9,6.3h0.2
					c2.2,0,4-1.1,5-2.7l-2-1.4c-0.7,1.1-1.8,1.8-3.1,1.8s-2.5-0.7-3.1-2l8.5-3.6L137.5,37.5z M129.2,39.7c0-1.8,1.4-3.4,3.2-3.6
					c0.9,0,1.8,0.5,2.3,1.3L129.2,39.7z"/>
				<polygon class="st0" points="182.7,33.9 179.6,41.8 179.5,41.8 176.2,33.9 173.3,33.9 178.2,45.1 175.3,51.2 178.2,51.2 
					185.8,33.9 				"/>
				<path class="st0" d="M117.8,35h-0.2c-0.9-1.1-2-1.4-3.2-1.4c-3.4,0.2-6.1,2.9-5.9,6.3c0,3.4,2.7,6.1,5.9,6.1
					c1.3,0,2.3-0.5,3.2-1.4h0.2v0.9c0.2,1.8-1.1,3.4-3.1,3.6c-1.4,0.2-2.9-0.7-3.4-2.2L109,48c0.9,2.2,3.2,3.6,5.6,3.6
					c3.2,0,5.9-2,5.9-6.5V33.9h-2.7V35z M114.6,43.6c-2.2-0.2-3.6-2.2-3.4-4.1c0.2-1.8,1.6-3.2,3.4-3.4c2,0.2,3.4,1.8,3.4,3.8
					C118,41.7,116.6,43.5,114.6,43.6z"/>
				<path class="st0" d="M87.6,33.6c0,0-0.2,0-0.4,0c-3.4,0-6.3,2.7-6.3,5.9c0,0.2,0,0.2,0,0.4c0,3.4,2.7,6.3,6.1,6.3c0,0,0,0,0.2,0
					c3.4,0,6.3-2.7,6.3-5.9c0-0.2,0-0.2,0-0.4C93.7,36.5,91,33.8,87.6,33.6z M90.8,39.9c0.2,2-1.4,3.8-3.4,3.8c0-0.2-0.2,0-0.2,0
					c-2.2-0.2-3.6-2.2-3.4-4.1c0.2-1.8,1.6-3.2,3.4-3.4C89.2,36.2,90.8,37.8,90.8,39.9L90.8,39.9z"/>
				<path class="st0" d="M101.3,33.6c0,0-0.2,0-0.4,0c-3.4,0-6.3,2.7-6.3,5.9c0,0.2,0,0.2,0,0.4c0,3.4,2.7,6.3,6.1,6.3
					c0,0,0,0,0.2,0c3.4,0,6.3-2.7,6.3-5.9c0-0.2,0-0.2,0-0.4C107.4,36.5,104.7,33.8,101.3,33.6z M104.5,39.9c0.2,2-1.4,3.8-3.4,3.8
					c0-0.2-0.2,0-0.2,0c-2.2-0.2-3.6-2.2-3.4-4.1c0.2-1.8,1.6-3.2,3.4-3.4C102.9,36.2,104.5,37.8,104.5,39.9L104.5,39.9z"/>
				<polygon class="st0" points="122.2,27.3 122.2,45.6 125,45.6 124.9,27.3 				"/>
				<path class="st0" d="M67.4,19.7c0.9-1.1,1.3-2.2,1.3-3.4s-0.4-2.5-1.3-3.4s-2-1.3-3.2-1.3h-2.9v9.2h2.9
					C65.4,20.8,66.5,20.4,67.4,19.7z M62.9,13h1.4c0.7,0,1.6,0.4,2.2,0.9c0.7,0.5,0.9,1.4,0.9,2.3s-0.4,1.7-0.9,2.4
					s-1.3,0.9-2.2,0.9h-1.4V13z"/>
				<polygon class="st0" points="71.7,11.6 70.3,11.6 70.3,11.8 70.3,20.6 70.3,20.8 71.7,20.8 				"/>
				<path class="st0" d="M73.9,20.3c0.2,0.1,0.3,0.2,0.5,0.3c0.5,0.3,0.8,0.4,1.3,0.4c0.4,0,0,0,1.4,0l0.9-0.2
					c0.4-0.2,0.7-0.4,0.9-0.7c0.2-0.4,0.4-0.9,0.4-1.3c0-0.5-0.2-0.9-0.4-1.4c0-0.4-0.4-0.7-0.7-0.9c-0.2-0.2-0.5-0.4-0.9-0.5
					c-0.4-0.2-0.7-0.2-1.1-0.4c-0.5-0.2-0.9-0.4-1.3-0.7c-0.2-0.2-0.4-0.4-0.4-0.7c0-0.2,0.1-0.6,0.2-0.9h0.1
					c0.3-0.1,0.4-0.3,0.6-0.4c0.1,0,0.2,0,0.3,0c0.5,0,0.9,0.2,1.3,0.4l0.1,0.1c0.1,0.1,0.3,0.3,0.4,0.6l0.3-0.3l0.8-0.3
					c-0.2-0.5-0.5-0.9-0.9-1.3c-0.1-0.1-0.2-0.2-0.3-0.3c-0.5-0.4-1.1-0.5-1.8-0.5c-0.7,0-1.4,0.2-2,0.7c-0.4,0.5-0.7,1.1-0.7,1.8
					c0,0.5,0.4,1.3,0.7,1.6c0.5,0.4,1.3,0.7,1.8,0.9c0.7,0,1.3,0.4,1.6,0.7c0.4,0.2,0.5,0.7,0.5,1.1s-0.2,0.7-0.4,0.9
					c-0.7,0.5-1.8,0.5-2.5,0c-0.4-0.4-0.5-0.7-0.7-1.1v-0.2l-1,0.7l-0.3,0.1C72.8,19.2,73.3,19.9,73.9,20.3z"/>
				<path class="st0" d="M81.7,17.2L81.7,17.2h1.7c0.6-0.1,1-0.3,1.5-0.5c0,0,0.1,0,0.1-0.1c0.1,0,0.1-0.1,0.2-0.1l0.1-0.1
					c0,0,0.1,0,0.1-0.1c0.5-0.5,0.9-1.3,0.9-2s-0.4-1.4-0.9-2c-0.5-0.4-1.3-0.7-2-0.7h-3.1v0.2v8.8v0.2h1.4
					C81.7,20.8,81.7,17.2,81.7,17.2z M81.8,13.3h1.8c0.4,0,0.7,0.2,1.1,0.4c0.2,0.2,0.4,0.5,0.4,0.9s-0.2,0.7-0.4,0.9
					c-0.2,0.2-0.7,0.4-1.1,0.4h-1.8V13.3z"/>
				<path class="st0" d="M91.5,21c1.3,0,2.5-0.5,3.2-1.1c0.9-0.9,1.4-2.2,1.4-3.4c0-1.3-0.5-2.5-1.4-3.4s-2-1.4-3.2-1.4
					c-2.5,0-4.7,2.2-4.7,4.7c0,0.2,0,0.2,0,0.2C86.8,19,89,21,91.5,21z M89.3,13.7c0.5-0.5,1.3-0.9,2.2-0.9c0.9,0,1.8,0.4,2.2,1.3
					c0.5,0.5,0.9,1.4,0.9,2.3s-0.2,1.6-0.9,2.3c-0.5,0.7-1.3,1-2.2,1c-0.7-0.2-1.6-0.5-2.2-1.1C88,17.2,88,15,89.3,13.7z"/>
				<polygon class="st0" points="98.9,14 103.2,20.8 104.7,20.8 104.7,11.6 103.2,11.6 103.2,18.3 99.3,11.6 97.7,11.6 97.7,20.8 
					98.9,20.8 				"/>
				<polygon class="st0" points="106.5,20.8 107.9,20.8 107.9,20.6 107.9,11.8 107.9,11.6 106.5,11.6 				"/>
				<polygon class="st0" points="107.7,11.3 108.6,9.3 107.2,9.3 107.1,9.5 106.5,11.1 106.6,11.1 106.5,11.3 				"/>
				<polygon class="st0" points="113.1,20.8 116.5,11.8 116.5,11.6 115,11.6 112.5,18.4 110.3,11.6 108.7,11.6 111.7,20.8 				"/>
				<polygon class="st0" points="122.9,20.6 122.9,19.7 122.9,19.2 118.9,19.2 118.9,16.9 122.5,16.9 122.5,16.7 122.5,15.8 
					122.5,15.4 118.9,15.4 118.9,12.9 122.9,12.9 122.9,11.8 122.9,11.6 117.5,11.6 117.5,20.8 122.9,20.8 				"/>
				<polygon class="st0" points="129.7,19.4 125.9,19.4 125.9,11.6 124.5,11.6 124.5,11.8 124.5,20.6 124.5,20.8 129.7,20.8 				"/>
				<polygon class="st0" points="139.5,11.8 139.5,18.1 135.5,11.6 133.9,11.6 133.9,11.8 133.9,20.6 133.9,20.8 135.1,20.8 
					135.1,14 139.5,20.8 140.9,20.8 140.9,11.6 139.5,11.6 				"/>
				<path class="st0" d="M150.1,19.5c0.9-1.1,1.3-2.2,1.4-3.4c0-1.3-0.5-2.5-1.4-3.4c-1.8-1.8-4.9-1.8-6.7,0
					c-0.9,0.9-1.4,2.2-1.4,3.4c0,1.3,0.5,2.5,1.4,3.4c0.7,0.9,2,1.4,3.2,1.4C147.9,21,149.2,20.4,150.1,19.5z M144.4,18.6
					c-1.2-1.4-1.2-3.5,0.1-4.8c0.5-0.5,1.3-0.9,2.2-0.9s1.6,0.4,2.3,1.3c0.5,0.5,0.9,1.4,0.9,2.3s-0.4,1.6-1.1,2.3
					c-0.5,0.5-1.3,0.9-2.2,0.9C145.9,19.5,145,19.2,144.4,18.6z"/>
			</g>
			<path class="st0" d="M190.1,0.8H9.9C4.4,0.8,0,5.2,0,10.6v40.6C0,56.6,4.4,61,9.9,61h180.2c5.5,0,9.9-4.4,9.9-9.8V10.6
				C200,5.2,195.6,0.8,190.1,0.8z M197.7,51.3c0,4.1-3.4,7.5-7.6,7.5H9.9c-4.2,0-7.6-3.4-7.6-7.5V10.6c0-4.1,3.4-7.5,7.6-7.5h180.2
				c4.2,0,7.6,3.4,7.6,7.5V51.3z"/>
		</g>
	</g>
</g>
</svg>
