<?xml version="1.0" encoding="utf-8"?>
<!-- Generator: Adobe Illustrator 25.2.1, SVG Export Plug-In . SVG Version: 6.00 Build 0)  -->
<svg version="1.1" id="Camada_1" xmlns="http://www.w3.org/2000/svg" xmlns:xlink="http://www.w3.org/1999/xlink" x="0px" y="0px"
	 viewBox="0 0 100 100" style="enable-background:new 0 0 100 100;" xml:space="preserve">
<style type="text/css">
	.st0{fill:#676767;}
</style>
<g id="Fitness_Event_Blue">
	<g id="Text_Top_1_">
	</g>
	<g id="Text_Bottom_1_">
	</g>
</g>
<g id="Fitness_Event_Yellow">
	<g id="Text_Top">
	</g>
	<g id="Text_Bottom">
	</g>
</g>
<g id="Live_Music_Promo_Dark">
	<g id="Text_1_">
	</g>
	<g id="Shapes_1_">
	</g>
</g>
<g id="Live_Music_Promo_Red">
	<g id="Text">
	</g>
	<g id="Shapes">
		<g>
			<path class="st0" d="M98.8,11.4c-1.4-4.5-3.4-7.8-3.5-7.9c-0.3-0.5-1-0.8-1.6-0.7c-0.2,0-3.9,0.9-8.1,3
				c-5.8,2.9-9.8,6.7-11.6,11.1c-1.5,3.6-1.8,8.1-0.7,13c-2.3-2.6-5-4.9-7.8-6.8c-0.9-1.7-3.2-6-6.8-10.4c-1.2-1.5-3.5,0.4-2.3,1.8
				c2.4,3,4.3,5.9,5.4,7.9l-13.4-2.6L35.8,2.7c1.2,0,2.5,0.1,3.7,0.4C43.4,3.9,47.2,5.9,51,9c1.5,1.2,3.3-1,1.9-2.2
				c-4.1-3.5-8.4-5.7-12.8-6.5c-6.7-1.3-14.6,0.4-22.7,5c-6,3.4-10.1,7.2-10.3,7.3c-0.5,0.5-0.6,1.4-0.2,2c0.6,1.2,2.8,5.6,6.6,10.3
				c2.2,2.8,4.5,5.2,6.9,7.1c-0.7,0.6-1.3,1.2-2,1.8c-3.4,3.4-6.1,7.3-7.8,11.7c-1.5,3.8-2.3,7.9-2.4,12.2C8.1,64.6,10.1,71.3,14,77
				c3.8,5.6,9.1,9.9,15.3,12.4c1.8,0.7,2.8-2,1.1-2.7c-2.3-0.9-4.4-2.1-6.3-3.5c0.3-1.4,0.8-6.4-2.5-11.6c-0.5-0.7,0.9-3.6,1.8-5.3
				c0.9-1.8,1.7-3.6,2.2-5.3c0.4-1.8-0.1-3.3-1.4-4.4c-1-0.8-2.3-1.2-3.5-1.5c-0.8-0.2-1.6-0.5-1.9-0.8c-0.6-0.5-1.7-2.5-2.5-4
				c-0.9-1.7-1.8-3.4-2.7-4.4c2-4.8,5.2-9,9.3-12.2c3.7,2.5,7.9,4.2,12.3,4.6c-5.2,4-6.9,9.1-4.5,14.1c2.8,5.7,8.6,4.8,13.6,4
				c0.9-0.1,1.8-0.3,2.7-0.4c0.3,0,0.4,0,0.5,0.1c1.1,1,1.1,5.7,1,9.2c0,4.8-0.1,9.3,1.7,11.6c0.9,1.2,2.2,1.8,3.7,1.8
				c0.9,0,1.9-0.2,2.9-0.7c4.4-1.9,9-7.6,8.3-12.1c-0.6-3.9-1-6.5-0.1-8.6c0.9-1.9,3-3.7,7.2-6c0.5,2.3,0.8,4.6,0.7,7.1
				c-0.1,8.3-3.4,16-9.3,21.8c-6.6,6.5-15.9,9.6-25.1,8.6c-1.9-0.2-2.2,2.7-0.3,2.9c10,1.1,20.2-2.4,27.4-9.4
				c6.5-6.3,10.1-14.8,10.2-23.8c0.1-12-6-22.6-15.4-28.7c1.9-1.4,3.4-2.6,4.2-3.3c3.4,2.5,6.4,5.5,9,9c6.1,8.4,8.5,18.7,6.8,29
				c-3.5,21.2-23.6,35.5-44.7,32C25.6,94.6,16.6,89,10.6,80.6c-6.1-8.4-8.5-18.7-6.8-29c0.3-1.8-2.6-2.3-2.9-0.5
				c-1.8,11,0.8,22.1,7.3,31.2s16.2,15.1,27.2,16.9c2.3,0.4,4.6,0.6,6.9,0.6c8.7,0,17.1-2.7,24.3-7.8c9-6.6,15-16.2,16.9-27.3
				c1.3-8.1,0.3-16.2-2.9-23.5c1.5-0.4,4-1.3,6.8-2.7c5.8-2.9,9.8-6.7,11.6-11.1C100.8,23.1,100.8,17.5,98.8,11.4z M13.7,51.7
				c1.1,2.1,2.1,4,3.2,4.9c0.8,0.6,1.8,1,2.9,1.3c2.9,0.9,3.2,1.3,2.9,2.4c-0.3,1.4-1.2,3-1.9,4.7c-1.5,3.1-2.9,6-1.6,8.1
				c1.9,3,2.3,5.9,2.2,7.8c-8.7-7.9-12.3-20.3-9-31.6C12.9,50.1,13.3,50.9,13.7,51.7z M84.7,22.9l-4.2-10.1c2-1.9,4.4-3.3,6.4-4.3
				c1.7-0.9,3.3-1.5,4.6-2L84.7,22.9z M94.2,7.7c0.6,1.3,1.3,2.9,1.8,4.7c0.6,2,1.2,4.5,1.3,7.1l-9.8,4L94.2,7.7z M76.7,18.1
				c0.4-1,1-2,1.6-2.8L83,26.8L78.7,37c-0.6-1.3-1.3-2.9-1.9-4.8C75.7,28.3,74.7,22.8,76.7,18.1z M86.1,35.9
				c-1.6,0.8-3.2,1.5-4.5,1.9L86,27.2l11.2-4.6c-0.2,1.3-0.5,2.5-1,3.7C94.3,31,89.6,34.1,86.1,35.9z M33.2,35.1
				c-0.5-0.1-1-0.2-1.5-0.4l16.2-11.9l13.4,2.6C56.4,29.3,44.6,37.3,33.2,35.1z M18.4,25.9c-3.5-3.7-6-7.7-7.5-10.3l17,3.3
				L18.4,25.9z M21.4,6.4l7.1,9.7l-17.1-3.3C13.5,11,17.1,8.5,21.4,6.4z M32.7,16.9L24.1,5.1c2.6-1.1,5.4-1.9,8.2-2.3l12,16.3
				L32.7,16.9z M31.8,19.7L44,22.1L28.4,33.5c-2.9-1.4-5.6-3.3-7.9-5.5L31.8,19.7z M71.6,48.3c-5.3,2.8-7.9,5-9.1,7.7
				c-1.3,2.9-0.8,6-0.2,10.3c0.4,2.5-2.6,7.3-6.6,8.9c-1.5,0.6-2.5,0.5-3.1-0.2c-1.2-1.5-1.1-6.1-1.1-9.8c0-5.1,0.1-9.5-2-11.4
				c-0.8-0.7-1.7-1-2.8-0.8c-0.9,0.1-1.9,0.3-2.8,0.4c-5.4,0.9-8.8,1.2-10.5-2.4c-2.8-5.8,2.9-10.2,5.5-11.8c0.5-0.3,1-0.7,1.5-1.1
				c6.3-0.8,12.3-3.5,17.6-6.8C64.4,35.2,69.3,41.2,71.6,48.3z"/>
		</g>
	</g>
</g>
</svg>
