<?xml version="1.0" encoding="utf-8"?>
<!-- Generator: Adobe Illustrator 25.2.1, SVG Export Plug-In . SVG Version: 6.00 Build 0)  -->
<svg version="1.1" id="Camada_1" xmlns="http://www.w3.org/2000/svg" xmlns:xlink="http://www.w3.org/1999/xlink" x="0px" y="0px"
	 viewBox="0 0 100 100" style="enable-background:new 0 0 100 100;" xml:space="preserve">
<style type="text/css">
	.st0{fill:#676767;}
</style>
<g id="Fitness_Event_Blue">
	<g id="Text_Top_1_">
	</g>
	<g id="Text_Bottom_1_">
	</g>
</g>
<g id="Fitness_Event_Yellow">
	<g id="Text_Top">
	</g>
	<g id="Text_Bottom">
	</g>
</g>
<g id="Live_Music_Promo_Dark">
	<g id="Text_1_">
	</g>
	<g id="Shapes_1_">
	</g>
</g>
<g id="Live_Music_Promo_Red">
	<g id="Text">
	</g>
	<g id="Shapes">
		<g>
			<path class="st0" d="M62.9,17.3c0.9,0.4,2,0.1,2.4-0.8c0.5-0.9,0.1-1.9-0.8-2.4C52,7.8,36.9,10.2,27,20.1
				c-11.5,11.4-12.7,29.7-2.7,42.4c0.4,0.4,0.9,0.7,1.4,0.7c0.4,0,0.8-0.1,1.1-0.4c0.8-0.6,0.9-1.7,0.3-2.5
				c-8.9-11.3-7.9-27.6,2.4-37.7C38.3,13.8,51.8,11.7,62.9,17.3z"/>
			<path class="st0" d="M76.5,27.5c-0.9,0.4-1.2,1.5-0.8,2.4c5.6,11,3.5,24.3-5.4,33.1C60,73.1,43.7,74.2,32.2,65.3
				c-0.8-0.6-1.9-0.5-2.5,0.3s-0.5,1.9,0.3,2.5c5.9,4.5,12.9,6.7,19.9,6.7c8.3,0,16.7-3.2,23-9.4c9.9-9.8,12.3-24.8,6-37.2
				C78.4,27.4,77.3,27,76.5,27.5z"/>
			<path class="st0" d="M70.3,22.6c0.4,0.4,0.8,0.9,1.2,1.3c0.4,0.4,0.8,0.6,1.3,0.6c0.4,0,0.8-0.2,1.2-0.4c0.8-0.7,0.8-1.8,0.2-2.5
				c-0.4-0.5-0.9-1-1.4-1.5s-1-0.9-1.5-1.4c-0.7-0.7-1.9-0.6-2.5,0.2c-0.7,0.7-0.6,1.9,0.2,2.5C69.4,21.8,69.9,22.2,70.3,22.6z"/>
			<path class="st0" d="M37.9,47.9l-2.1,10.6C35.5,59.8,36,61,37,61.7c0.6,0.4,1.2,0.6,1.9,0.6c0.5,0,1.1-0.1,1.6-0.4l9.5-5.3
				l9.5,5.3c1.1,0.6,2.4,0.6,3.5-0.2c1-0.7,1.5-2,1.3-3.2l-2.1-10.6l8-7.3c0.9-0.9,1.2-2.1,0.8-3.4c-0.4-1.2-1.4-2.1-2.7-2.2
				l-10.8-1.3L52.9,24c-0.5-1.1-1.7-1.9-2.9-1.9c-1.3,0-2.4,0.7-2.9,1.9l-4.6,9.8l-10.8,1.3c-1.3,0.2-2.3,1-2.7,2.2
				c-0.4,1.2-0.1,2.5,0.9,3.4L37.9,47.9z M44,37.2c0.6-0.1,1.2-0.5,1.4-1l4.7-10l4.7,10c0.3,0.6,0.8,0.9,1.4,1l11.1,1.3L59,46
				c-0.5,0.4-0.7,1-0.5,1.7l2.2,10.8L51,53.1c-0.3-0.2-0.6-0.2-0.9-0.2c-0.3,0-0.6,0.1-0.9,0.2l-9.7,5.4l2.2-10.8
				c0.1-0.6-0.1-1.2-0.5-1.7L33,38.5L44,37.2z"/>
			<path class="st0" d="M92.3,46c1.2-1.9,1.2-4.4,0-6.3l-2.4-3.8c-0.3-0.5-0.4-1.1-0.3-1.7l0.7-4.4c0.4-2.2-0.6-4.5-2.4-5.8
				l-3.7-2.6c-0.5-0.4-0.8-0.9-1-1.4l-1.1-4.4c-0.5-2.2-2.3-3.9-4.5-4.5L73.2,10c-0.6-0.1-1.1-0.5-1.4-1l-2.7-3.6
				c-1.4-1.9-3.6-2.8-5.9-2.4l-4.3,0.7c-0.7,0.1-1.4,0-2-0.4l-3.7-2.2c-2-1.2-4.4-1.2-6.4,0l-3.9,2.3c-0.5,0.3-1.1,0.4-1.7,0.3
				L37,2.9c-2.4-0.4-4.9,0.6-6.3,2.6l-2.5,3.4c-0.4,0.5-0.9,0.8-1.4,1L22.4,11c-2.2,0.5-4,2.2-4.5,4.5l-1.1,4.4
				c-0.1,0.6-0.5,1.1-1,1.4l-3.7,2.6c-1.9,1.3-2.8,3.6-2.4,5.8l0.7,4.3c0.1,0.7,0,1.4-0.4,2l-2.3,3.7c-1.2,1.9-1.2,4.4,0,6.3
				l2.4,3.8c0.3,0.5,0.4,1.1,0.3,1.7l-0.7,4.4c-0.4,2.2,0.6,4.5,2.4,5.8l3.7,2.6c0.5,0.4,0.8,0.9,1,1.4l1.1,4.4
				c0.5,2.2,2.3,3.9,4.5,4.5l1.3,0.3c0.3,0.1,0.4,0.4,0.3,0.6l-2.6,4.9c-0.1,0.2,0,0.5,0.2,0.6l2.5,1.1c0.2,0.1,0.5,0,0.6-0.2
				l2.7-5.2c0.1-0.3,0.5-0.4,0.7-0.1c0,0,0,0,0.1,0.1l2.7,3.6c0.2,0.3,0.4,0.5,0.6,0.7c0.1,0.1,0.2,0.3,0.1,0.5l-0.1,0.4
				c-0.4,0.9,0,1.9,0.9,2.4c0.2,0.1,0.5,0.2,0.7,0.2c0.7,0,1.3-0.4,1.6-1.1l0.1-0.3c0.1-0.2,0.2-0.3,0.4-0.3c0.5,0,1,0,1.5,0
				l4.5-0.7h0.1c0.3,0,0.6,0.3,0.4,0.6l-4.9,9.8c-0.1,0.3-0.6,0.4-0.8,0.1l-4-4.7c-0.4-0.5-1-0.8-1.7-0.7L21,88
				c-0.3,0-0.6-0.3-0.4-0.6l2.3-2.2c0.1-0.2,0-0.5-0.2-0.6l-2.5-1.1c-0.2-0.1-0.5,0-0.6,0.2l-3.9,5.7c-0.3,0.6-0.2,1.3,0.2,1.8
				c0.4,0.5,1,0.8,1.7,0.7l12-1.1c0.2,0,0.3,0,0.4,0.2l5.6,6.8c0.3,0.5,0.9,0.8,1.5,0.8c0.1,0,0.1,0,0.2,0c0.6-0.1,1.2-0.5,1.5-1
				L45,84.2c0.1-0.2,0.4-0.3,0.6-0.2l1.2,0.7c1,0.6,2.1,0.9,3.2,0.9c1.1,0,2.2-0.3,3.2-0.9l1.2-0.7c0.2-0.1,0.5,0,0.6,0.2L61.7,99
				c0.3,0.6,0.8,1,1.5,1c0.1,0,0.1,0,0.2,0c0.6,0,1.1-0.3,1.5-0.8l5.6-6.8c0.1-0.1,0.2-0.2,0.4-0.2l12,1.1c0.6,0.1,1.3-0.2,1.7-0.7
				c0.4-0.5,0.5-1.2,0.2-1.8l-8.6-15.3c-0.1-0.2,0-0.5,0.3-0.6l1-0.2c2.4-0.6,4.2-2.4,4.8-4.8l1-4.1c0.1-0.6,0.5-1.1,1-1.4l3.7-2.6
				c1.9-1.3,2.8-3.6,2.4-5.8l-0.7-4.3c-0.1-0.7,0-1.4,0.4-2L92.3,46z M79.8,88.8c0.1,0.3-0.1,0.6-0.4,0.6L70,88.5
				c-0.7-0.1-1.3,0.2-1.7,0.7L64.1,94c-0.2,0.3-0.6,0.2-0.8-0.1l-5.1-11.2c-0.1-0.3,0.1-0.7,0.4-0.6l4.5,0.7c0.5,0.1,1,0.1,1.6,0
				c0.2,0,0.4,0.1,0.4,0.3v1.1c0.3,0.7,1,1.1,1.6,1.1c0.2,0,0.5,0,0.7-0.2c0.9-0.4,1.3-1.5,0.9-2.4v-1.3c-0.1-0.2,0-0.4,0.1-0.5
				c0.2-0.2,0.4-0.4,0.6-0.7l2.7-3.6c0,0,0.1-0.1,0.1-0.2c0.2-0.2,0.6-0.2,0.7,0.1L79.8,88.8z M89.2,44.1l-2.4,3.8
				c-0.8,1.2-1,2.7-0.8,4.1l0.7,4.4c0.2,0.9-0.2,1.9-1,2.4L82,61.4c-1.2,0.8-2,2.1-2.3,3.5l-1,4.1c-0.3,1.1-1.1,1.9-2.2,2.2l-4,0.9
				c-1.5,0.4-2.8,1.2-3.8,2.5l-2.6,3.5c-0.6,0.8-1.5,1.1-2.4,1l-4.5-0.7c-1.4-0.2-2.9,0.1-4.1,0.8l-3.9,2.4c-0.8,0.5-1.8,0.5-2.6,0
				l-3.9-2.3c-1-0.6-2.1-0.9-3.2-0.9c-0.3,0-0.6,0-1,0.1L36,79.2c-0.9,0.2-1.9-0.2-2.4-1l-2.7-3.6c-0.8-1.2-2.1-2-3.5-2.3l-4.1-1
				c-1.1-0.3-1.9-1.1-2.2-2.2l-1-4.1c-0.3-1.4-1.2-2.6-2.3-3.5L14.4,59c-0.9-0.6-1.4-1.7-1.2-2.8l0.7-4.2c0.2-1.4-0.1-2.9-0.8-4.1
				l-2.2-3.6c-0.6-0.9-0.6-2.1,0-3.1l2.2-3.6c0.8-1.2,1-2.7,0.8-4.1l-0.7-4.4c-0.2-0.9,0.2-1.9,1-2.4l3.7-2.6c1.2-0.8,2-2.1,2.3-3.5
				l1-4.1c0.3-1.1,1.1-1.9,2.2-2.2l4.1-1c1.4-0.3,2.6-1.2,3.5-2.3l2.7-3.6c0.6-0.8,1.5-1.1,2.4-1l4.5,0.7C42,7.3,43.5,7,44.7,6.3
				l4-2.3c0.8-0.5,1.8-0.5,2.6,0l3.9,2.3c1.2,0.7,2.7,1,4.1,0.8l4.5-0.7c0.9-0.2,1.9,0.2,2.4,1l2.7,3.6c0.8,1.2,2.1,2,3.5,2.3l4.1,1
				c1.1,0.3,1.9,1.1,2.2,2.2l1,3.9c0.4,1.5,1.2,2.8,2.5,3.7l3.3,2.4c0.9,0.6,1.4,1.7,1.2,2.8L86,33.5c-0.2,1.4,0.1,2.9,0.8,4.1
				l2.4,3.8C89.7,42.3,89.7,43.3,89.2,44.1z"/>
		</g>
	</g>
</g>
</svg>
