<?xml version="1.0" encoding="utf-8"?>
<!-- Generator: Adobe Illustrator 25.2.1, SVG Export Plug-In . SVG Version: 6.00 Build 0)  -->
<svg version="1.1" id="Camada_1" xmlns="http://www.w3.org/2000/svg" xmlns:xlink="http://www.w3.org/1999/xlink" x="0px" y="0px"
	 viewBox="0 0 100 100" style="enable-background:new 0 0 100 100;" xml:space="preserve">
<style type="text/css">
	.st0{fill:#676767;}
</style>
<g id="Fitness_Event_Blue">
	<g id="Text_Top_1_">
	</g>
	<g id="Text_Bottom_1_">
	</g>
</g>
<g id="Fitness_Event_Yellow">
	<g id="Text_Top">
	</g>
	<g id="Text_Bottom">
	</g>
</g>
<g id="Live_Music_Promo_Dark">
	<g id="Text_1_">
	</g>
	<g id="Shapes_1_">
	</g>
</g>
<g id="Live_Music_Promo_Red">
	<g id="Text">
	</g>
	<g id="Shapes">
		<g>
			<path class="st0" d="M52.5,0c1.6,0.2,3.2,0.3,4.7,0.6c19.4,3.5,33,14.3,39.7,32.8c5.1,14,3.7,27.8-3.4,40.9
				c-1.8,3.3-4,6.4-6.6,9.2c-0.4,0.4-0.8,0.9-1.3,1.4c0.9,0.9,1.8,1.7,2.7,2.6c0.8,0.8,0.8,2.1,0,2.9c-0.5,0.5-1,1-1.5,1.4
				c-0.2,0.2-0.5,0.3-0.7,0.3c-5.7,0-11.5,0-17.3,0c0-0.3-0.1-0.6-0.1-0.9c0-5.3,0-10.7,0-16c0-0.7,0.2-1.2,0.7-1.6s0.9-0.9,1.4-1.4
				c0.5-0.6,1.5-0.6,2,0c0.7,0.8,1.3,1.5,2,2.2c0.1,0,0.1,0,0.3-0.1c0-0.3,0.1-0.5,0.1-0.8c0-2.1,0-4.2,0-6.3c0-2.3-1.3-4.1-3.4-4.8
				c-4.3-1.3-8.5-2.6-12.8-3.9c-0.2,0-0.3-0.1-0.6-0.1V62c0,0.9-0.7,1.6-1.6,1.6c-0.9,0-1.7,0-2.5,0c-0.4,0-0.8-0.7-1.2-0.8
				c-0.5-0.2-1-0.5-1.3-0.9c-0.9-1.2-1.5-1.5-2.3-0.9c-0.9,0.7-1.9,1.5-2.9,2.1c-0.5,0.3-1.1,0.5-1.7,0.5c-1,0.1-2.1,0-3.2,0v-5.2
				c-0.3,0-0.4,0-0.6,0.1c-4.2,1.3-8.4,2.5-12.6,3.9C26.4,63.1,25,65,25,67.3c0,3.3,0,6.6,0,10c0,0.5,0.3,1.1,0.6,1.4
				c6,5.1,12.9,8,20.7,8.7c0.6,0.1,1.3,0.1,1.9,0.1c0.9,0.1,1.7,0.8,1.7,1.8c0,0.7-0.6,1.3-1.4,1.3C37.1,90,27.4,85.6,19.8,77
				c-8.9-10-12-21.6-9.7-34.7c0.1-0.8,1-1.3,1.7-1.1h0.1H12c0.8,0.2,1.3,1,1.1,1.7c-0.9,4.3-0.9,8.7-0.3,13.1c0.1,1,0.4,1.9,0.6,3
				c1.7-0.6,3.3-1.2,4.9-1.8c0.2-0.1,0.4-0.4,0.4-0.7c0-1.1,0.1-2.3,0-3.4c0-0.3-0.2-0.7-0.5-0.9c-1.8-1.9-2.7-4.1-2.6-6.7
				c0-2-0.1-4,0.2-6c0.6-4.5,4.7-8.1,9-8.2c4.6,0,8.8,3.4,9.4,8c0.3,2.5,0.2,5.1,0,7.7c-0.1,2-1.2,3.7-2.5,5.2
				c-0.3,0.3-0.4,0.7-0.5,1.1c-0.1,1.2,0,2.3,0,3.5c0,1,0.6,1.4,1.5,1.1c2.8-0.8,5.5-1.7,8.3-2.5c0.4-0.1,0.7-0.5,0.7-1
				c0-1.7,0-3.4,0-5.2c0-0.4-0.2-0.9-0.5-1.2c-2.4-3-3.7-6.4-3.6-10.3c0.1-2.3-0.1-4.7,0.2-7c0.7-5.1,5.2-9.4,10.2-10.2
				c5.2-0.8,10.4,1.9,12.9,6.6c0.9,1.8,1.5,3.7,1.4,5.7c-0.1,2.7,0,5.3-0.2,8c-0.3,2.7-1.5,5-3.2,7.1c-0.3,0.3-0.5,0.8-0.5,1.2
				c-0.1,1.7,0,3.4,0,5.2c0,0.6,0.2,0.8,0.8,1c2.7,0.8,5.4,1.6,8.1,2.5c0.8,0.3,1.5-0.2,1.5-1.1c0-1.2,0-2.5,0-3.7
				c0-0.3-0.2-0.6-0.4-0.8c-1.9-2-2.8-4.4-2.7-7.2c0.1-2-0.1-4.1,0.2-6c0.7-4.4,4.8-7.7,9.2-7.7c4.3,0,8.5,3.4,9.1,7.8
				c0.4,2.8,0.2,5.7,0,8.5c-0.1,1.7-1.1,3.2-2.3,4.5c-0.3,0.3-0.5,0.8-0.5,1.3c-0.1,1,0,2,0,3c0,0.3,0.2,0.7,0.4,0.8
				c1.5,0.7,3.1,1.3,4.8,1.9c0.8-3,1.1-5.9,1.1-8.9c0-0.8,0.7-1.5,1.5-1.5l0,0c0.8,0,1.5,0.7,1.5,1.5c-0.3,11.4-4.4,21-12.5,29.1
				c-0.7,0.7-1.9,0.7-2.6,0c-1.2-1.2-2.4-2.4-3.6-3.6V89h13.4c-1-1-2-1.8-2.9-2.7c-0.6-0.6-0.7-1.6-0.1-2.3
				c13.9-14.7,18.7-31.6,11.3-50.7C86.4,14.3,71.5,4.6,51.2,3C50.5,2.9,50,2.3,50,1.6C50,0.7,50.7,0,51.6,0H52.5z M44.8,60.6
				c1.3-0.9,2.5-1.8,3.7-2.7c0.9-0.7,3-0.6,3.9,0.2s1.8,1.6,2.9,2.5V51c-1.8,0.9-3.6,1.8-5.6,1.6c-0.8-0.1-1.3-0.9-1.1-1.6l0.2-0.5
				c0.2-0.5,0.7-0.9,1.3-0.9c0.2,0,0.3,0,0.5,0c0.4-0.1,0.8-0.2,1.2-0.3c3.7-1.4,6.1-4,7.1-7.8c0.8-3.1,0.4-6.3,0.4-9.4
				c-0.1-4.6-3.7-8.3-8.3-8.6c-5-0.4-9.2,2.5-9.9,7.1c-0.4,2.4-0.2,4.9-0.3,7.4c0,3.3,1.1,6.2,3.5,8.6c0.3,0.3,0.5,0.9,0.6,1.3
				c0.1,1.9,0,3.7,0,5.6C44.8,55.8,44.8,58.1,44.8,60.6z M21.8,74.7c0-2.5,0-5,0-7.5c0-2.1,0.7-3.8,2.1-5.3c1.2-1.3,2.7-2.2,4.2-2.6
				v-4.8l-1.5,0.3c-0.7,0.1-1.4-0.5-1.4-1.2v-0.8c0-0.5,0.3-0.8,0.8-0.9c2.7-0.5,4.7-2.3,5.1-5c0.3-2.1,0.2-4.1,0.2-6.2
				c0-3.2-2.2-5.9-5.2-6.2c-3.6-0.4-6.6,1.6-7.1,4.9c-0.3,2.1-0.2,4.2-0.2,6.3c-0.1,2.2,0.8,3.9,2.6,5.2c0.3,0.2,0.5,0.6,0.5,0.9
				c0,2.3,0,4.6,0,6.9c0,0.3-0.3,0.7-0.6,0.8c-0.9,0.4-1.8,0.7-2.6,1c-1.4,0.5-2.8,1-4.2,1.5C15.9,66.8,18.3,71,21.8,74.7z
				 M78.3,74.4c3.3-3.6,5.7-7.6,7.3-12.3c-2.3-0.9-4.4-1.8-6.6-2.6c-0.7-0.3-1-0.6-0.8-1.7c0.3-1.7,0.3-3.5,0-5.2
				c-0.2-1.1-0.1-1.6,0.6-2c1.3-0.8,2.3-2.1,2.3-3.7c0.1-2.6,0.2-5.3-0.1-7.9c-0.5-3.2-3.6-5.1-7.2-4.7c-2.9,0.4-5.1,3-5.1,6.1
				c0,1.7,0,3.4,0,5.2c0,1.9,0.6,3.6,2.2,4.8c0.9,0.6,1.9,1.1,3,1.5c0.5,0.2,0.8,0.7,0.8,1.2v0.5c0,0.7-0.6,1.2-1.3,1.1
				c-0.5-0.1-1-0.2-1.5-0.3c-0.1,1.5-0.2,3.1-0.2,4.7c0,0,0.1,0.1,0.3,0.1c3.7,0.8,6.7,4.9,6.3,8.9c-0.1,1,0,2,0,2.9
				C78.3,72.2,78.3,73.3,78.3,74.4z"/>
			<path class="st0" d="M46.9,1.5c0,0.8-0.7,1.5-1.5,1.5h-0.1c-0.8,0-1.5-0.7-1.5-1.5S44.5,0,45.3,0h0.1C46.2,0,46.9,0.7,46.9,1.5z"
				/>
			<path class="st0" d="M49.9,98.5c0,0.9-0.7,1.6-1.6,1.5c-17.6-1.3-31.5-8.8-41-24c-6-9.7-8.2-20.4-6.9-31.7
				c1.2-10.8,5.6-20.2,13-28.2c0.6-0.6,0.5-1.5-0.1-2.1c-0.7-0.6-1.3-1.3-2-1.9c-0.6-0.6-0.6-1.6,0-2.2c0.7-0.6,1.3-1.2,1.9-1.8
				c0.2-0.2,0.5-0.2,0.7-0.2c5.7,0,11.4,0,17.1,0c0,0,0.1,0,0.2,0.1c0,0.3,0,0.6,0,0.9c0,5.3,0,10.6,0,15.9c0,0.6-0.2,1.1-0.6,1.5
				c-0.5,0.4-0.9,0.9-1.4,1.4c-0.6,0.6-1.5,0.6-2.1,0c-0.9-0.9-1.9-1.8-2.8-2.7c-0.6-0.6-1.6-0.5-2.2,0.1c-2,2.1-3.6,4.4-5.1,7
				c-0.4,0.7-1.3,1-2,0.6l0,0c-0.8-0.4-1.1-1.3-0.6-2.1c2-3.7,4.7-6.9,7.7-10c0.6-0.6,1.6-0.6,2.2,0.1c0.2,0.3,2.7,3,2.9,3.3
				c2.6-0.8,1.2-4.6,1.3-7.4l-0.4-4.1c0-0.8-0.7-1.5-1.5-1.5H16.3c-1.4,0-2,1,1.2,2.7l0.1,0.1c0.6,0.6,0.7,1.5,0.1,2.2
				C2.8,31.7-1.4,49.4,7.2,69.7c0,0,0,0.1,0.1,0.1c8.6,17,22.5,25.8,41.2,27.2C49.3,97,49.9,97.7,49.9,98.5z"/>
			<path class="st0" d="M85,32.6L85,32.6c-0.7,0.4-1.6,0.1-2-0.6c-7-12.1-17.5-18.6-31.6-19.5c-0.8-0.1-1.4-0.7-1.4-1.4
				c0-0.9,0.7-1.5,1.5-1.5c13,0.2,27.3,8.3,34.1,21.1C86.1,31.4,85.8,32.3,85,32.6z"/>
			<path class="st0" d="M50,84.3c-0.8,0-1.5-0.7-1.5-1.5V66.9c0-0.8,0.7-1.5,1.5-1.5s1.5,0.7,1.5,1.5v15.9
				C51.5,83.6,50.8,84.3,50,84.3z"/>
			<path class="st0" d="M40.6,7.8c-0.8,0-1.5-0.7-1.5-1.5V6.2c0-0.8,0.7-1.5,1.5-1.5s1.5,0.7,1.5,1.5v0.1
				C42.1,7.1,41.4,7.8,40.6,7.8z"/>
			<path class="st0" d="M43.8,10.9c0-0.8,0.7-1.5,1.5-1.5l0,0c0.8,0,1.5,0.7,1.5,1.5s-0.7,1.5-1.5,1.5l0,0
				C44.5,12.4,43.8,11.8,43.8,10.9z"/>
			<path class="st0" d="M54.7,90.5c-0.8,0-1.5-0.7-1.5-1.5l0,0c0-0.8,0.7-1.5,1.5-1.5s1.5,0.7,1.5,1.5l0,0
				C56.2,89.9,55.5,90.5,54.7,90.5z"/>
			<path class="st0" d="M59.4,92.2c0.8,0,1.5,0.7,1.5,1.5l0,0c0,0.8-0.7,1.5-1.5,1.5s-1.5-0.7-1.5-1.5l0,0
				C57.9,92.9,58.6,92.2,59.4,92.2z"/>
			<path class="st0" d="M54.7,99.9c-0.8,0-1.5-0.7-1.5-1.5s0.7-1.5,1.5-1.5s1.5,0.7,1.5,1.5l0,0C56.2,99.3,55.5,99.9,54.7,99.9z"/>
		</g>
	</g>
</g>
</svg>
