<?xml version="1.0" encoding="utf-8"?>
<!-- Generator: Adobe Illustrator 25.2.3, SVG Export Plug-In . SVG Version: 6.00 Build 0)  -->
<svg version="1.1" id="Camada_1" xmlns="http://www.w3.org/2000/svg" xmlns:xlink="http://www.w3.org/1999/xlink" x="0px" y="0px"
	 viewBox="0 0 100 100" style="enable-background:new 0 0 100 100;" xml:space="preserve">
<style type="text/css">
	.st0{fill:#FFFFFF;}
</style>
<g id="Fitness_Event_Blue">
	<g id="Text_Top_1_">
	</g>
	<g id="Text_Bottom_1_">
	</g>
</g>
<g id="Fitness_Event_Yellow">
	<g id="Text_Top">
	</g>
	<g id="Text_Bottom">
	</g>
</g>
<g id="Live_Music_Promo_Dark">
	<g id="Text_1_">
	</g>
	<g id="Shapes_1_">
	</g>
</g>
<g id="Live_Music_Promo_Red">
	<g id="Text">
	</g>
	<g id="Shapes">
		<g>
			<path class="st0" d="M91.9,57.7c-4.7-4.6-10.8-7-17.3-7c-0.1,0-0.1,0-0.2,0c-6.8,0.1-13.1,2.7-17.8,7.4
				C52,62.7,49.5,69,49.5,75.6c0.1,6.5,2.7,12.6,7.5,17.2s11.1,7.2,17.6,7.1c6.6,0,12.9-2.6,17.5-7.3c4.7-4.8,7.3-11.1,7.3-17.8
				C99.3,68.4,96.8,62.3,91.9,57.7z M89.1,70.5c-1.5,2-3.1,4-4.6,6l-3.3,4.3c-1.5,2-3.1,4.1-4.7,6.1c-1,1.3-2.1,1.9-3.2,1.9
				c0,0,0,0-0.1,0c-1.1,0-2.2-0.7-3.2-2.1c-2.4-3.3-4.9-6.8-8.2-11.4c-0.9-1.3-1.3-2.4-1-3.4c0.1-0.8,0.6-1.5,1.4-2
				c1.3-0.8,3.2-1.2,5.3,1.6c0.8,1.2,1.7,2.4,2.6,3.6c1.1,1.5,2.2,3,3.2,4.5l2.1-2.8c2.5-3.3,5.1-6.7,7.7-10
				c0.6-0.8,1.4-1.8,2.3-1.8c1.1-0.1,2.7,0.2,3.6,1C90.2,67.3,90.2,68.9,89.1,70.5z"/>
			<path class="st0" d="M87.9,15.3c0-4.3-1.6-8.2-4.4-11S76.8,0,72.3,0C53.6,0,35,0,16.3,0C11.9,0,8,1.5,5.1,4.3s-4.5,6.7-4.5,11
				v0.5c0,23.7,0,40.5,0,65.6c0,8.7,6.7,15.3,15.6,15.3H50l-2.4-3.9l0,0l-1-1.8l-0.1-0.1c-0.3-0.5-0.6-0.9-0.7-1.1
				c-0.6-1.5-2-3.2-5.1-3.2h-0.1h-4.8c-2.9,0-5.3,0-10.4,0h-8.8c-3.6,0-5.6-2-5.6-5.6c0-24.5,0-40.8,0-65.4c0-3.6,2-5.6,5.6-5.6
				c18.4,0,36.9,0,55.3,0c3.9,0,5.9,1.9,5.9,5.8v19.8c0,0.1,0,0.1,0,0.2c0,0.4-0.1,1.1,0.1,1.8c0.3,1.1,1.1,2.5,2.7,2.9
				c0.9,0.3,1.7,0.5,2.7,0.7c0.3,0.1,0.6,0.1,1,0.2l3.8,0.9v-11L87.9,15.3z"/>
			<path class="st0" d="M56.5,25.6c0.8,0,1.6,0,2.4,0H61c0.8,0,1.7,0,2.6,0c1,0,2.1,0,3,0c2.6,0,3-1.8,3-2.9c0-0.8-0.2-1.5-0.6-2
				c-0.5-0.6-1.3-1-2.4-1c-4.6,0-37.6,0-43.4,0c-1.1,0-1.9,0.3-2.4,1c-0.4,0.5-0.6,1.2-0.6,2c0,1.1,0.4,2.9,2.9,2.9
				C25,25.6,54.8,25.6,56.5,25.6z"/>
			<path class="st0" d="M56.5,41.4c0.8,0,1.6,0,2.4,0H61c0.8,0,1.7,0,2.6,0c1,0,2.1,0,3,0c2.6,0,3-1.8,3-2.9c0-0.8-0.2-1.5-0.6-2
				c-0.5-0.6-1.3-1-2.4-1c-4.6,0-37.6,0-43.4,0c-1.1,0-1.9,0.3-2.4,1c-0.4,0.5-0.6,1.2-0.6,2c0,1.1,0.4,2.9,2.9,2.9
				C25,41.4,54.8,41.4,56.5,41.4z"/>
			<path class="st0" d="M24,57.2c0.9,0,1.8,0,2.7,0h9.8c0.9,0,1.9,0,2.9,0c1.2,0,6,0,7.1,0c3,0,3.4-1.8,3.4-2.9c0-0.8-0.2-1.5-0.7-2
				c-0.6-0.6-1.5-1-2.7-1c-5.2,0-16.3,0-22.9,0c-1.2,0-2.1,0.3-2.7,1c-0.5,0.5-0.7,1.2-0.7,2c0,1.1,0.5,2.9,3.3,2.9
				C25.6,57.2,22.1,57.2,24,57.2z"/>
			<path class="st0" d="M23.6,73c0.8,0,8.2,0,9,0h2.1c0.8,0,1.7,0,2.6,0c1,0-1.2,0-0.2,0c2.6,0,3-1.8,3-2.9c0-0.8-0.2-1.5-0.6-2
				c-0.5-0.6-1.3-1-2.4-1c-4.6,0-7.9,0-13.8,0c-1.1,0-1.9,0.3-2.4,1c-0.4,0.5-0.6,1.2-0.6,2c0,1.1,0.4,2.9,2.9,2.9
				C25,73,21.9,73,23.6,73z"/>
		</g>
	</g>
</g>
</svg>
