
<svg width="149px" height="56px" viewBox="0 0 149 56" version="1.1" xmlns="http://www.w3.org/2000/svg" xmlns:xlink="http://www.w3.org/1999/xlink">
    <defs>
        <polygon id="path-1" points="0 55.5049 148.422 55.5049 148.422 -0.0001 0 -0.0001"></polygon>
    </defs>
    <g id="Symbols" stroke="none" stroke-width="1" fill="none" fill-rule="evenodd">
        <g id="Topo" transform="translate(-194.000000, -76.000000)">
            <g id="menu-nivel-2" transform="translate(194.000000, 76.000000)">
                <g id="Logo">
                    <path d="M76.5414,27.9883 C75.4584,27.1753 74.1924,26.6783 72.9704,26.1813 C71.7494,25.7283 70.4394,25.2323 69.4444,24.7803 C68.5414,24.3263 68.0894,23.8303 68.0894,23.0173 C68.0894,21.3443 69.7164,20.4393 71.4794,20.4393 C72.8354,20.4393 74.1474,20.8463 76.0014,21.8863 L77.5834,19.1293 C75.3674,17.8623 73.4224,17.1403 71.3434,17.1403 C67.7714,17.1403 64.1104,19.3103 64.1104,23.4223 C64.1104,27.0833 66.9124,28.1703 69.7164,29.2103 C70.3024,29.4823 70.9364,29.7523 71.5254,29.9803 C72.7894,30.4313 74.4174,30.9273 74.4624,32.5543 C74.5084,34.5433 72.4744,35.4943 70.3944,35.4943 C68.7214,35.4943 66.8674,34.8613 65.1944,33.5493 L63.5684,36.2183 C65.6914,37.8453 68.0444,38.7933 70.4394,38.7933 C74.1924,38.7933 78.4854,36.8043 78.5764,32.2393 C78.6214,30.2033 77.7194,28.8933 76.5414,27.9883" id="Fill-1" fill="#E42722"></path>
                    <path d="M92.6815,34.1836 C92.0925,34.7246 90.6015,35.5406 89.0195,35.5406 C86.7145,35.4946 85.0855,33.5936 85.0855,31.6046 C85.0855,29.4816 86.6685,28.1706 88.9285,28.1706 L92.6815,28.2156 L92.6815,34.1836 Z M96.7945,23.5116 C96.7945,19.5356 93.3145,17.2756 89.9235,17.2756 C87.1655,17.3216 85.3125,17.7716 82.5555,19.2646 L83.7295,21.9766 C85.9015,20.8916 87.2555,20.4386 89.1095,20.4386 C91.0085,20.4386 92.7725,21.7966 92.7725,23.6926 L92.7725,25.0956 L87.9795,25.0956 C84.0465,25.0956 80.8375,27.5826 80.7455,31.6966 C80.7455,35.4946 83.8645,38.5226 87.5725,38.6126 L87.5725,38.5686 C91.5955,38.6596 94.7605,37.0756 96.8395,34.9956 L96.7945,23.5116 Z" id="Fill-3" fill="#E42722"></path>
                    <path d="M105.2035,21.7515 C106.2895,21.1625 108.1425,20.3495 109.8605,20.4845 L109.9055,20.4845 C113.6575,20.7115 114.3355,24.3275 114.3355,27.7175 C114.3355,31.0635 113.3855,35.4045 110.1315,35.5395 C107.6915,35.6755 105.7455,34.6805 105.2035,34.2275 L105.2035,21.7515 Z M110.5835,38.6595 L110.5835,38.6125 C116.0085,38.7935 118.8125,33.2325 118.8565,27.4915 C118.8565,22.4285 116.3235,17.3655 110.5835,17.1845 C108.5945,17.1395 106.8315,17.6805 105.2035,18.5855 L105.2035,5.8835 L101.0895,7.2835 L101.0895,34.8605 C101.2255,35.0885 103.8475,38.4315 110.5835,38.6595 L110.5835,38.6595 Z" id="Fill-5" fill="#E42722"></path>
                    <path d="M125.2762,8.6397 C123.7392,8.6397 122.5182,9.8607 122.5182,11.3987 L122.4722,11.3987 C122.4722,12.9357 123.6932,14.1557 125.2282,14.1557 C126.7662,14.1557 127.9872,12.9357 127.9872,11.3987 C128.0332,9.8607 126.8112,8.6397 125.2762,8.6397" id="Fill-7" fill="#E42722"></path>
                    <polygon id="Fill-9" fill="#E42722" points="127.3993 17.0049 123.1503 18.4059 123.1963 38.2509 127.3993 38.2509"></polygon>
                    <path d="M143.6288,17.5025 C141.1868,16.9595 138.9268,17.4115 137.2998,17.8615 C135.2198,18.4515 133.6838,19.4445 131.8308,20.8015 L131.8308,38.2515 L136.0348,38.2515 L136.0348,21.7055 C136.9848,21.0735 138.4308,20.4405 139.9218,20.3945 C142.5448,20.3515 144.2168,21.7965 144.2168,24.4635 L144.2168,38.2515 L148.4218,38.2515 L148.4218,22.8815 C148.4218,19.8985 146.1158,18.0425 143.6288,17.5025" id="Fill-11" fill="#E42722"></path>
                    <path d="M38.576,2.1909 L38.473,2.1489 C30.447,15.4489 34.234,20.1059 34.897,21.7859 C35.569,23.4889 38.582,27.6339 39.432,28.8609 C39.949,29.6029 40.368,30.3779 40.807,31.1649 C43.494,35.9709 38.199,40.4269 34.557,42.7029 C29.53,45.8429 23.197,47.8789 17.198,47.4019 C16.674,47.3609 16.153,47.2959 15.635,47.2039 C14.217,46.9509 12.764,46.2449 11.965,45.0039 C11.233,43.8649 11.142,42.4099 11.407,41.0829 C11.991,38.1559 14.092,35.8049 16.05,33.5529 C18.342,30.9169 20.557,28.1909 22.309,25.1689 C24.062,22.1469 25.345,18.8039 25.647,15.3249 C26.019,20.7259 23.696,25.9569 20.849,30.5619 C19.045,33.4809 16.992,36.2949 15.823,39.5209 C15.508,40.3909 15.25,41.4009 15.506,42.3189 C15.772,43.2739 16.628,43.8189 17.501,44.1859 C22.161,46.1449 27.777,44.6239 31.927,42.1339 C33.737,41.0479 36.045,39.4729 36.725,37.3659 C37.242,35.7619 36.822,34.0279 36.257,32.4949 C35.328,29.9789 33.773,27.7659 32.557,25.3909 C31.749,23.8119 31.081,22.1379 30.886,20.3629 C30.854,20.0779 30.837,19.7919 30.839,19.5049 C30.883,12.2159 36.791,4.1679 38.393,2.1179 L38.42,2.1279 L38.294,2.0769 C35.044,0.7399 31.486,-0.0001 27.753,-0.0001 C12.425,-0.0001 0,12.4249 0,27.7529 C0,43.0799 12.425,55.5049 27.753,55.5049 C43.079,55.5049 55.505,43.0799 55.505,27.7529 C55.505,16.2659 48.526,6.4109 38.576,2.1909" id="Fill-13" fill="#E42722"></path>
                    <path d="M67.1908,42.2695 L66.2028,44.7655 C66.0888,45.0635 65.9538,45.5035 65.9538,45.5035 L65.9388,45.5035 C65.9388,45.5035 65.7968,45.0635 65.6838,44.7655 L64.6948,42.2695 L63.7138,42.2695 L63.3008,47.3185 L64.2188,47.3185 L64.4318,44.4955 C64.4528,44.1605 64.4388,43.7065 64.4388,43.7065 L64.4528,43.7065 C64.4528,43.7065 64.6098,44.2045 64.7308,44.4955 L65.5408,46.4505 L66.3448,46.4505 L67.1628,44.4955 C67.2838,44.2045 67.4328,43.7115 67.4328,43.7115 L67.4468,43.7115 C67.4468,43.7115 67.4328,44.1605 67.4538,44.4955 L67.6678,47.3185 L68.5778,47.3185 L68.1718,42.2695 L67.1908,42.2695 Z" id="Fill-15" fill="#020203"></path>
                    <polygon id="Fill-17" fill="#020203" points="70.619 45.1699 72.319 45.1699 72.319 44.3799 70.619 44.3799 70.619 43.0589 72.724 43.0589 72.724 42.2699 69.702 42.2699 69.702 47.3179 72.838 47.3179 72.838 46.5289 70.619 46.5289"></polygon>
                    <path d="M75.4623,46.5293 L74.7083,46.5293 L74.7083,43.0573 L75.4623,43.0573 C76.4723,43.0573 77.1403,43.6633 77.1403,44.7873 C77.1403,45.9253 76.4863,46.5293 75.4623,46.5293 M75.5113,42.2683 L73.7913,42.2683 L73.7913,47.3183 L75.5113,47.3183 C77.0693,47.3183 78.0863,46.3803 78.0863,44.7873 C78.0863,43.1933 77.0693,42.2683 75.5113,42.2683" id="Fill-19" fill="#020203"></path>
                    <path d="M83.5419,46.5645 C82.4889,46.5645 81.8419,45.7185 81.8419,44.7575 C81.8419,43.8195 82.4679,43.0225 83.5339,43.0225 C84.3389,43.0225 84.9139,43.5565 84.9139,43.5565 L85.3539,42.8725 C85.3539,42.8725 84.7219,42.1835 83.4919,42.1835 C82.0059,42.1835 80.8959,43.3075 80.8959,44.7725 C80.8959,46.2575 81.9629,47.4035 83.5059,47.4035 C84.7939,47.4035 85.4899,46.5855 85.4899,46.5855 L85.0069,45.9235 C85.0069,45.9235 84.4159,46.5645 83.5419,46.5645" id="Fill-21" fill="#020203"></path>
                    <mask id="mask-2" fill="white">
                        <use xlink:href="#path-1"></use>
                    </mask>
                    <g id="Clip-24"></g>
                    <polygon id="Fill-23" fill="#020203" mask="url(#mask-2)" points="79.047 47.3179 79.964 47.3179 79.964 42.2689 79.047 42.2689"></polygon>
                    <polygon id="Fill-25" fill="#020203" mask="url(#mask-2)" points="86.336 47.3179 87.253 47.3179 87.253 42.2689 86.336 42.2689"></polygon>
                    <path d="M91.7484,45.1856 C91.7484,45.4836 91.7984,45.9656 91.7984,45.9656 L91.7834,45.9656 C91.7834,45.9656 91.5564,45.4766 91.3644,45.1856 L89.4514,42.2696 L88.5334,42.2696 L88.5334,47.3186 L89.4514,47.3186 L89.4514,44.4106 C89.4514,44.1116 89.4014,43.6266 89.4014,43.6266 L89.4154,43.6266 C89.4154,43.6266 89.6434,44.1186 89.8354,44.4106 L91.7484,47.3186 L92.6584,47.3186 L92.6584,42.2696 L91.7484,42.2696 L91.7484,45.1856 Z" id="Fill-26" fill="#020203" mask="url(#mask-2)"></path>
                    <path d="M94.8983,45.2764 L95.3473,43.9244 C95.4463,43.6414 95.5603,43.1434 95.5603,43.1434 L95.5743,43.1434 C95.5743,43.1434 95.6813,43.6414 95.7733,43.9244 L96.2213,45.2764 L94.8983,45.2764 Z M95.0833,42.2694 L93.3063,47.3184 L94.2513,47.3184 L94.6783,46.0244 L96.4493,46.0244 L96.8753,47.3184 L97.8223,47.3184 L96.0433,42.2694 L95.0833,42.2694 Z" id="Fill-27" fill="#020203" mask="url(#mask-2)"></path>
                    <path d="M101.8685,46.5293 L101.1155,46.5293 L101.1155,43.0573 L101.8685,43.0573 C102.8785,43.0573 103.5465,43.6633 103.5465,44.7873 C103.5465,45.9253 102.8925,46.5293 101.8685,46.5293 M101.9185,42.2683 L100.1975,42.2683 L100.1975,47.3183 L101.9185,47.3183 C103.4755,47.3183 104.4925,46.3803 104.4925,44.7873 C104.4925,43.1933 103.4755,42.2683 101.9185,42.2683" id="Fill-28" fill="#020203" mask="url(#mask-2)"></path>
                    <path d="M108.6102,45.2764 L109.0582,43.9244 C109.1582,43.6414 109.2722,43.1434 109.2722,43.1434 L109.2862,43.1434 C109.2862,43.1434 109.3922,43.6414 109.4852,43.9244 L109.9332,45.2764 L108.6102,45.2764 Z M108.7952,42.2694 L107.0182,47.3184 L107.9632,47.3184 L108.3902,46.0244 L110.1602,46.0244 L110.5872,47.3184 L111.5332,47.3184 L109.7552,42.2694 L108.7952,42.2694 Z" id="Fill-29" fill="#020203" mask="url(#mask-2)"></path>
                    <path d="M114.9398,45.4483 L115.7148,45.4483 L115.7148,46.0373 C115.7148,46.0373 115.2098,46.5643 114.4498,46.5643 C113.5028,46.5643 112.7568,45.8533 112.7568,44.7583 C112.7568,43.8053 113.3608,43.0223 114.4918,43.0223 C115.2958,43.0223 115.8348,43.5053 115.8348,43.5053 L116.2908,42.8233 C116.2908,42.8233 115.6508,42.1833 114.4138,42.1833 C112.9138,42.1833 111.8108,43.3213 111.8108,44.7873 C111.8108,46.3713 112.9558,47.4033 114.2858,47.4033 C115.2248,47.4033 115.7508,46.8633 115.7508,46.8633 L115.7648,46.8633 C115.7648,46.8633 115.7578,46.9693 115.7578,47.0763 L115.7578,47.3183 L116.5398,47.3183 L116.5398,44.6583 L114.9398,44.6583 L114.9398,45.4483 Z" id="Fill-30" fill="#020203" mask="url(#mask-2)"></path>
                    <path d="M120.7714,45.1856 C120.7714,45.4836 120.8214,45.9656 120.8214,45.9656 L120.8074,45.9656 C120.8074,45.9656 120.5794,45.4766 120.3884,45.1856 L118.4744,42.2696 L117.5574,42.2696 L117.5574,47.3186 L118.4744,47.3186 L118.4744,44.4106 C118.4744,44.1116 118.4254,43.6266 118.4254,43.6266 L118.4384,43.6266 C118.4384,43.6266 118.6664,44.1186 118.8584,44.4106 L120.7714,47.3186 L121.6824,47.3186 L121.6824,42.2696 L120.7714,42.2696 L120.7714,45.1856 Z" id="Fill-31" fill="#020203" mask="url(#mask-2)"></path>
                    <polygon id="Fill-32" fill="#020203" mask="url(#mask-2)" points="125.558 41.9346 126.305 40.9676 125.373 40.9676 124.833 41.9346"></polygon>
                    <path d="M125.225,46.5645 C124.3,46.5645 123.56,45.7965 123.56,44.7575 C123.56,43.7625 124.3,43.0235 125.225,43.0235 C126.148,43.0235 126.889,43.7625 126.889,44.7575 C126.889,45.7965 126.148,46.5645 125.225,46.5645 M125.225,42.1835 C123.738,42.1835 122.615,43.3145 122.615,44.7575 C122.615,46.2445 123.738,47.4045 125.225,47.4045 C126.71,47.4045 127.834,46.2445 127.834,44.7575 C127.834,43.3145 126.71,42.1835 125.225,42.1835" id="Fill-33" fill="#020203" mask="url(#mask-2)"></path>
                    <polygon id="Fill-34" fill="#020203" mask="url(#mask-2)" points="132.0941 43.0586 133.7511 43.0586 133.7511 47.3186 134.6681 47.3186 134.6681 43.0586 136.3251 43.0586 136.3251 42.2686 132.0941 42.2686"></polygon>
                    <polygon id="Fill-35" fill="#020203" mask="url(#mask-2)" points="136.994 47.3179 137.911 47.3179 137.911 42.2689 136.994 42.2689"></polygon>
                    <path d="M141.4882,46.5645 C140.4362,46.5645 139.7892,45.7185 139.7892,44.7575 C139.7892,43.8195 140.4152,43.0225 141.4812,43.0225 C142.2852,43.0225 142.8612,43.5565 142.8612,43.5565 L143.3022,42.8725 C143.3022,42.8725 142.6692,42.1835 141.4392,42.1835 C139.9532,42.1835 138.8432,43.3075 138.8432,44.7725 C138.8432,46.2575 139.9102,47.4035 141.4532,47.4035 C142.7402,47.4035 143.4372,46.5855 143.4372,46.5855 L142.9542,45.9235 C142.9542,45.9235 142.3632,46.5645 141.4882,46.5645" id="Fill-36" fill="#020203" mask="url(#mask-2)"></path>
                    <path d="M145.244,45.2764 L145.692,43.9244 C145.792,43.6414 145.905,43.1434 145.905,43.1434 L145.919,43.1434 C145.919,43.1434 146.026,43.6414 146.118,43.9244 L146.566,45.2764 L145.244,45.2764 Z M145.428,42.2694 L143.651,47.3184 L144.597,47.3184 L145.023,46.0244 L146.794,46.0244 L147.22,47.3184 L148.167,47.3184 L146.389,42.2694 L145.428,42.2694 Z" id="Fill-37" fill="#020203" mask="url(#mask-2)"></path>
                    <polygon id="Fill-38" fill="#020203" mask="url(#mask-2)" points="105.372 47.3179 106.296 47.3179 106.296 42.2689 105.372 42.2689"></polygon>
                    <path d="M129.413,43.6338 C129.413,43.2798 129.748,43.0298 130.174,43.0298 C130.807,43.0298 131.291,43.4708 131.291,43.4708 L131.689,42.7248 C131.689,42.7248 131.177,42.1848 130.181,42.1848 C129.214,42.1848 128.489,42.8098 128.489,43.6498 C128.489,45.1988 130.871,45.0428 130.871,45.9458 C130.871,46.3588 130.523,46.5578 130.139,46.5578 C129.427,46.5578 128.88,46.0238 128.88,46.0238 L128.382,46.7128 C128.382,46.7128 129.001,47.4038 130.125,47.4038 C131.177,47.4038 131.789,46.7278 131.789,45.9238 C131.789,44.3098 129.413,44.5298 129.413,43.6338" id="Fill-39" fill="#020203" mask="url(#mask-2)"></path>
                </g>
            </g>
        </g>
    </g>
</svg>
