<svg width="52" height="45" viewBox="0 0 52 45" fill="none" xmlns="http://www.w3.org/2000/svg">
<path d="M50.9616 33.6054L32.8214 4.59919C32.0878 3.4928 31.0772 2.58226 29.8827 1.95155C28.6882 1.32083 27.3482 0.990234 25.9862 0.990234C24.6243 0.990234 23.2843 1.32083 22.0898 1.95155C20.8953 2.58226 19.8846 3.4928 19.1511 4.59919L1.01085 33.6054C0.370039 34.6354 0.0217438 35.8098 0.000985486 37.0107C-0.0197729 38.2116 0.287737 39.3966 0.892598 40.4465C1.59191 41.6283 2.60412 42.61 3.82579 43.2911C5.04746 43.9722 6.43478 44.3283 7.84597 44.3231H44.1265C45.5284 44.3376 46.9095 43.9952 48.1303 43.3306C49.3511 42.6659 50.3686 41.7026 51.0799 40.5377C51.7025 39.4768 52.0198 38.2748 51.999 37.0561C51.9782 35.8373 51.6201 34.646 50.9616 33.6054ZM46.941 38.2802C46.6567 38.7513 46.2442 39.1384 45.7481 39.3997C45.252 39.661 44.6912 39.7864 44.1265 39.7624H7.84597C7.28124 39.7864 6.72046 39.661 6.22437 39.3997C5.72827 39.1384 5.31576 38.7513 5.03151 38.2802C4.82393 37.9335 4.71465 37.5403 4.71465 37.14C4.71465 36.7397 4.82393 36.3465 5.03151 35.9998L23.1954 6.97077C23.5218 6.55507 23.9437 6.21794 24.4279 5.98582C24.9121 5.7537 25.4455 5.6329 25.9862 5.6329C26.527 5.6329 27.0604 5.7537 27.5446 5.98582C28.0288 6.21794 28.4507 6.55507 28.777 6.97077L46.9173 35.977C47.1329 36.3243 47.2487 36.7207 47.2529 37.1255C47.257 37.5303 47.1494 37.9288 46.941 38.2802Z" fill="#F7F8FC"/>
<path d="M25.986 35.2023C27.2922 35.2023 28.3511 34.1814 28.3511 32.922C28.3511 31.6626 27.2922 30.6416 25.986 30.6416C24.6798 30.6416 23.6209 31.6626 23.6209 32.922C23.6209 34.1814 24.6798 35.2023 25.986 35.2023Z" fill="#F7F8FC"/>
<path d="M25.986 14.6791C25.3588 14.6791 24.7572 14.9193 24.3136 15.347C23.8701 15.7746 23.6209 16.3546 23.6209 16.9594V26.0809C23.6209 26.6857 23.8701 27.2657 24.3136 27.6933C24.7572 28.121 25.3588 28.3612 25.986 28.3612C26.6133 28.3612 27.2148 28.121 27.6584 27.6933C28.1019 27.2657 28.3511 26.6857 28.3511 26.0809V16.9594C28.3511 16.3546 28.1019 15.7746 27.6584 15.347C27.2148 14.9193 26.6133 14.6791 25.986 14.6791Z" fill="#F7F8FC"/>
</svg>
