<?xml version="1.0" encoding="utf-8"?>
<!-- Generator: Adobe Illustrator 25.2.3, SVG Export Plug-In . SVG Version: 6.00 Build 0)  -->
<svg version="1.1" id="Camada_1" xmlns="http://www.w3.org/2000/svg" xmlns:xlink="http://www.w3.org/1999/xlink" x="0px" y="0px"
	 viewBox="0 0 100 100" style="enable-background:new 0 0 100 100;" xml:space="preserve">
<style type="text/css">
	.st0{fill:#676767;}
</style>
<g id="Fitness_Event_Blue">
	<g id="Text_Top_1_">
	</g>
	<g id="Text_Bottom_1_">
	</g>
</g>
<g id="Fitness_Event_Yellow">
	<g id="Text_Top">
	</g>
	<g id="Text_Bottom">
	</g>
</g>
<g id="Live_Music_Promo_Dark">
	<g id="Text_1_">
	</g>
	<g id="Shapes_1_">
	</g>
</g>
<g>
	<path class="st0" d="M24.4,52.2c13.2,0,23.9-10.7,23.9-23.9S37.6,4.4,24.4,4.4S0.5,15.1,0.5,28.3C0.5,41.5,11.2,52.2,24.4,52.2z
		 M24.4,8.1c11.2,0,20.2,9.1,20.2,20.2s-9,20.2-20.2,20.2S4.2,39.5,4.2,28.3C4.2,17.1,13.2,8.1,24.4,8.1z"/>
	<path class="st0" d="M24.4,44.8c0.5,0,1-0.2,1.3-0.5c1.2-1.2,11.6-11.8,11.6-19.7c0-7.1-5.8-12.9-12.9-12.9s-12.9,5.8-12.9,12.9
		c0,7.9,10.4,18.5,11.6,19.7C23.4,44.6,23.9,44.8,24.4,44.8z M24.4,15.4c5.1,0,9.2,4.1,9.2,9.2c0,4.7-5.8,12-9.2,15.7
		c-3.4-3.7-9.2-11-9.2-15.7C15.2,19.6,19.3,15.4,24.4,15.4z"/>
	<path class="st0" d="M22.5,24.6c0-1,0.8-1.8,1.8-1.8c1,0,1.8,0.8,1.8,1.8c0,1-0.8,1.8-1.8,1.8C23.4,26.5,22.5,25.6,22.5,24.6z"/>
	<path class="st0" d="M98.3,56L80.8,29.9c-0.9-0.9-5-1.5-6.3-1.5H52.2c-0.9,0-1.7,0.7-1.7,1.7c0,0.9,0.7,1.7,1.7,1.7h2.3v28.8
		c0,0.9,0.7,1.6,1.6,1.6c0.9,0,1.6-0.7,1.6-1.6V31.7h16.7c0.4,0,0.9,0.2,1.2,0.5l2.8,2.8h-7.5c-1.8,0-3.3,1.5-3.3,3.3v20.5
		c0,1.8,1.5,3.3,3.3,3.3h24.6v17.4c0,0.9-0.7,1.7-1.6,1.7h-3.4c-0.9-6.3-6.7-10.7-13-9.8c-5,0.7-9,4.7-9.7,9.8H44.6
		c-0.9-6.3-6.7-10.7-13-9.8c-5,0.7-9,4.7-9.7,9.8h-3.4c-0.9,0-1.6-0.7-1.6-1.7V56.5c0-0.9-0.7-1.6-1.6-1.6s-1.6,0.7-1.6,1.6v23.1
		c0,2.7,2.2,5,4.9,5h3.4c0.4,2.5,1.5,4.8,3.3,6.6H2.1c-0.9,0-1.7,0.7-1.7,1.7c0,0.9,0.7,1.7,1.7,1.7h77c5.7,0,10.5-4.2,11.3-9.9h3.4
		c2.7,0,4.9-2.2,4.9-5V57.2C98.8,56.8,98.6,56.3,98.3,56z M25.1,82.9c0-4.6,3.7-8.3,8.2-8.3c4.5,0,8.2,3.7,8.2,8.3
		c0,4.6-3.7,8.3-8.2,8.3C28.7,91.1,25.1,87.4,25.1,82.9z M41.3,91.1c1.8-1.8,3-4.1,3.3-6.6h23.2c0.4,2.5,1.5,4.8,3.3,6.6H41.3z
		 M79.1,91.1c-4.5,0-8.2-3.7-8.2-8.3c0-4.6,3.7-8.3,8.2-8.3c4.5,0,8.2,3.7,8.2,8.3C87.3,87.4,83.7,91.1,79.1,91.1z M70.9,58.8V38.4
		h10.8l13.8,19.5v1H70.9z"/>
	<path class="st0" d="M34.9,82.9c0-0.9-0.7-1.7-1.6-1.7c-0.9,0-1.6,0.7-1.6,1.7s0.7,1.7,1.6,1.7C34.2,84.5,34.9,83.8,34.9,82.9z"/>
	<path class="st0" d="M80.8,82.9c0-0.9-0.7-1.7-1.6-1.7s-1.6,0.7-1.6,1.7s0.7,1.7,1.6,1.7S80.8,83.8,80.8,82.9z"/>
	<path class="st0" d="M8.7,76.3H2.1c-0.9,0-1.7,0.7-1.7,1.7c0,0.9,0.7,1.7,1.7,1.7h6.5V76.3z"/>
	<path class="st0" d="M8.7,64H5.4c-0.9,0-1.7,0.7-1.7,1.7c0,0.9,0.7,1.7,1.7,1.7h3.3V64z"/>
	<path class="st0" d="M8.7,53.2H8.2c-1.6,0-2.8,1.3-2.8,2.8v0.5h3.3V53.2z"/>
	<path class="st0" d="M69.3,71.3c0-0.9-0.7-1.7-1.7-1.7H57.4c-0.9,0-1.7,0.7-1.7,1.7c0,0.9,0.7,1.7,1.7,1.7h10.3
		C68.6,73,69.3,72.2,69.3,71.3z"/>
</g>
</svg>
