<?xml version="1.0" encoding="utf-8"?>
<!-- Generator: Adobe Illustrator 25.2.3, SVG Export Plug-In . SVG Version: 6.00 Build 0)  -->
<svg version="1.1" id="Camada_1" xmlns="http://www.w3.org/2000/svg" xmlns:xlink="http://www.w3.org/1999/xlink" x="0px" y="0px"
	 viewBox="0 0 100 100" style="enable-background:new 0 0 100 100;" xml:space="preserve">
<style type="text/css">
	.st0{fill:#020203;}
</style>
<g id="Fitness_Event_Blue">
	<g id="Text_Top_1_">
	</g>
	<g id="Text_Bottom_1_">
	</g>
</g>
<g id="Fitness_Event_Yellow">
	<g id="Text_Top">
	</g>
	<g id="Text_Bottom">
	</g>
</g>
<g id="Live_Music_Promo_Dark">
	<g id="Text_1_">
	</g>
	<g id="Shapes_1_">
	</g>
</g>
<g id="Live_Music_Promo_Red">
	<g id="Text">
	</g>
	<g id="Shapes">
		<g>
			<path class="st0" d="M85.2,39c-3.3-1.7-6.2-3.8-8.8-6.5c-0.7-0.8-1.6-1.7-2.5-1.9c-2.2-0.4-4.7-0.9-6.8-0.3
				c-4.2,1.2-8.4,2.8-12.3,4.7c-6.3,3-12.4,6.4-19.6,6.8c-0.3,0-0.5,0.2-0.8,0.3c-1.2,0.5-1.5,1.6-0.5,2.4c0.9,0.8,1.9,1.5,3,1.9
				c3.2,1.2,6.6,0.5,9.9,0.4c1.2,0,2.4-0.1,3.6,0.1c1.9,0.4,2.8,1.7,2.2,3.5c-1.1,3-2.2,6.2-3.9,8.9c-3.5,5.4-7.5,10.5-11.3,15.7
				c-1.6,2.2-3.3,4.3-4.9,6.5c-1,1.4-0.7,2.9,0.6,4s2.3,1,3.7-0.4c3.2-3.3,6.4-6.6,9.6-9.8c2.1-2.1,4.1-4.3,6.3-6.4
				c0.5-0.4,1.3-0.5,2-0.7c0.1,0.7,0.2,1.5,0.2,2.2c0,0.2-0.1,0.5-0.2,0.7c-2,4.3-4,8.6-5.9,13c-1.4,3.1-2.7,6.1-4,9.2
				c-0.6,1.3,0.2,3.5,1.3,4c1.5,0.7,3.2,0.1,4-1.3c2.6-4.9,5.3-9.7,7.9-14.6c1.3-2.4,2.7-4.7,4.1-7c0.3-0.4,0.9-0.7,1.3-1
				c0.2,0.5,0.6,1,0.6,1.5c0,1-0.1,2-0.2,3.1c-0.7,6.3-1.4,12.7-2.1,19c-0.2,1.4,0.2,2.5,1.5,3.1c0.7,0,1.4,0,2,0
				c0.6-1.1,1.5-2.1,1.8-3.3c0.9-4.4,1.6-8.9,2.4-13.4c0.5-3,1.1-5.9,1.8-8.9c0.1-0.6,0.8-1.1,1.3-1.6c0.5,0.5,1,1,1.4,1.5
				c0.2,0.3,0.3,0.7,0.4,1.1c0.2,1.3,0.3,2.5,0.4,3.8c0.5,4.3,0.9,8.5,1.5,12.8c0.2,1.8,2.1,2.8,3.4,1.8c0.7-0.5,1.2-1.7,1.2-2.6
				c0.2-5,0.2-9.9,0.2-14.9c0-4.2,0-8.4,1.8-12.3c1.6-3.6,3-7.3,4.2-11c1.3-3.8,2-7.7,0.3-11.5C86.8,40.4,86.1,39.4,85.2,39z"/>
			<path class="st0" d="M35.8,69.4c3.2-4.4,6.4-8.8,9.4-13.2c1-1.4,1.6-3.1,2.3-4.5c-2.5,0-4.8,0-7.1,0c-3.2,0-6.1-0.9-8.6-2.8
				c-2.4-1.8-3.4-4.6-2.7-7c0.7-2.6,3-4.4,5.9-4.5c3.9-0.2,7.4-1.7,10.9-3c0.8-0.3,1-0.7,1-1.5c0.1-4.4,0.3-8.9,0.5-13.3
				c0.3-4.7,0.7-9.3,0.9-14c0.1-1.7-1-2.9-2.7-3.1C44,2.3,43.1,3,42.7,4.8C41.8,9,41,13.3,40.2,17.6c-0.6,3.3-1.2,6.5-1.9,9.8
				c-0.1,0.6-0.8,1-1.2,1.6c-0.5-0.5-1-1-1.4-1.5c-0.1-0.2-0.1-0.5-0.2-0.7c-0.6-3.7-1.1-7.4-1.7-11.1c-0.7-4.3-1.4-8.6-2.2-12.9
				c-0.5-2.5-3-3.5-4.9-2c-1.2,0.9-1,2.2-0.9,3.5c0.6,7.9,1.2,15.7,1.7,23.6c0,0.6-0.2,1.3-0.3,1.9c-0.2,0-0.3,0.1-0.5,0.1
				c-0.6-0.7-1.3-1.4-1.7-2.2c-3.3-6.2-6.4-12.5-9.7-18.8c-0.7-1.4-1.8-1.9-2.9-1.5c-1.7,0.6-2.2,1.3-1.9,3.1
				c0.1,0.9,0.4,1.7,0.8,2.5c2.5,5.9,5.1,11.8,7.7,17.6c0.4,0.9,0.7,1.8,0.9,2.8c0.1,0.5,0,1.4-0.3,1.6c-0.4,0.2-1.2,0.1-1.7-0.2
				c-0.7-0.4-1.4-1-1.9-1.7c-3.1-3.8-6.2-7.5-9.3-11.3c-1.6-1.9-3.2-1.9-4.7,0c0,0.5,0,1,0,1.5c3.2,5.1,6.4,10.2,9.7,15.2
				c2.4,3.7,4.1,7.6,4.7,12.1c0.4,2.8,1.1,5.6,1.9,8.4c0.9,3.3,1.9,6.6,4.4,9.1c1.6,1.6,3.4,2.8,5.9,2.4c1.9-0.3,3.8-0.2,5.7-0.3
				C34.9,70,35.5,69.8,35.8,69.4z"/>
			<path class="st0" d="M21.3,72.6c-2.2-1.8-3.8-4.1-4.9-6.7c-0.2-0.5-0.6-1-0.9-1.4c-1.4,0.2-1.5,1-1.2,1.8
				c1.7,4.3,4.3,7.7,8.4,9.7c0.4,0.2,1-0.3,1.6-0.4c-0.2-0.5-0.3-1.1-0.6-1.4C23,73.6,22.1,73.2,21.3,72.6z"/>
			<path class="st0" d="M89.7,38.3c-0.2,0.5-0.3,0.9-0.4,1.4c0,0.2,0.2,0.4,0.3,0.7c1.6,3.4,1.5,6.9,0.7,10.4
				c-0.2,0.8-0.5,1.7,0.5,1.9c0.4,0.1,1.3-0.7,1.5-1.3c0.4-1.7,0.6-3.4,0.8-5.2c-0.1-2.6-0.7-5-1.9-7.3
				C90.9,38.6,90.2,38.5,89.7,38.3z"/>
			<path class="st0" d="M96.7,40.5c-0.2-0.8-0.6-1.6-1.6-1.1c-0.9,0.4-0.6,1.2-0.3,1.9c1.3,3.6,0.9,7.1-0.3,10.6
				c-0.3,0.8-0.6,1.6,0.3,2c1,0.5,1.5-0.5,1.6-1.2c0.6-2.2,1-4.5,1.5-6.7C97.5,44,97.1,42.3,96.7,40.5z"/>
			<path class="st0" d="M12.4,67.4c-0.1-0.5-0.6-0.9-0.9-1.3c-0.2,0-0.4,0-0.7,0c-0.2,0.6-0.6,1.2-0.5,1.7c1.2,4.3,3.4,7.9,7.3,10.3
				c0.4,0.3,1.2,0,1.8-0.1c-0.2-0.5-0.2-1.3-0.6-1.5C15.5,74.4,13.5,71.3,12.4,67.4z"/>
		</g>
	</g>
</g>
</svg>
