<?xml version="1.0" encoding="utf-8"?>
<!-- Generator: Adobe Illustrator 25.2.3, SVG Export Plug-In . SVG Version: 6.00 Build 0)  -->
<svg version="1.1" id="Camada_1" xmlns="http://www.w3.org/2000/svg" xmlns:xlink="http://www.w3.org/1999/xlink" x="0px" y="0px"
	 viewBox="0 0 100 100" style="enable-background:new 0 0 100 100;" xml:space="preserve">
<style type="text/css">
	.st0{fill-rule:evenodd;clip-rule:evenodd;fill:#FFFFFF;}
</style>
<g id="Fitness_Event_Blue">
	<g id="Text_Top_1_">
	</g>
	<g id="Text_Bottom_1_">
	</g>
</g>
<g id="Fitness_Event_Yellow">
	<g id="Text_Top">
	</g>
	<g id="Text_Bottom">
	</g>
</g>
<g id="Live_Music_Promo_Dark">
	<g id="Text_1_">
	</g>
	<g id="Shapes_1_">
	</g>
</g>
<g id="Live_Music_Promo_Red">
	<g id="Text">
	</g>
	<g id="Shapes">
		<g>
			<path class="st0" d="M0,43.6C0,20.2,19.4,1.1,43.4,1.1L43.5,1c23.9,0,43.4,19.1,43.4,42.5c0,7.3-2.1,14.2-5.5,20.2
				c0.7,0.5,1.4,1,2,1.6l12.4,12.1c3.5,3.1,5,7.8,3.9,12.2c-1.1,4.5-4.7,7.9-9.2,9.1c-4.6,1.1-9.4-0.4-12.5-3.8L65.5,82.7
				c-0.6-0.5-1.1-1-1.6-1.6c-6.1,3.3-13.3,5-20.6,5C19.4,86.1,0,67,0,43.6z M74.3,43.6c0-16.9-13.8-30.4-31-30.4l-0.1,0.1
				c-17.2,0-31,13.5-31,30.4s13.8,30.4,31,30.4c8.1,0,15.5-2.8,20.9-7.6c0.5-0.6,1-1.1,1.6-1.6l0.4-0.4C71.4,59,74.3,51.6,74.3,43.6
				z"/>
		</g>
	</g>
</g>
</svg>
