<?xml version="1.0" encoding="utf-8"?>
<!-- Generator: Adobe Illustrator 25.2.3, SVG Export Plug-In . SVG Version: 6.00 Build 0)  -->
<svg version="1.1" id="Camada_1" xmlns="http://www.w3.org/2000/svg" xmlns:xlink="http://www.w3.org/1999/xlink" x="0px" y="0px"
	 viewBox="0 0 12.6 10" style="enable-background:new 0 0 12.6 10;" xml:space="preserve">
<style type="text/css">
	.st0{fill:#4B4B4B;}
</style>
<path class="st0" d="M12.3,9.7L12.3,9.7c0.4-0.4,0.4-1,0-1.4L9,5l3.4-3.4c0.4-0.4,0.4-1,0-1.4l0,0C11.9,0,11.4,0,11,0.3l-4,4
	c-0.4,0.4-0.4,1,0,1.3l4,4C11.4,10,11.9,10,12.3,9.7z"/>
<path class="st0" d="M5.6,9.7L5.6,9.7c0.4-0.4,0.4-1,0-1.4L2.3,5l3.4-3.4c0.4-0.4,0.4-1,0-1.4l0,0C5.2,0,4.6,0,4.3,0.3l-4,4
	c-0.4,0.4-0.4,1,0,1.3L1,6.4l3.3,3.3C4.6,10,5.2,10,5.6,9.7z"/>
</svg>
