<?xml version="1.0" encoding="utf-8"?>
<!-- Generator: Adobe Illustrator 25.2.1, SVG Export Plug-In . SVG Version: 6.00 Build 0)  -->
<svg version="1.1" id="Camada_1" xmlns="http://www.w3.org/2000/svg" xmlns:xlink="http://www.w3.org/1999/xlink" x="0px" y="0px"
	 viewBox="0 0 100 100" style="enable-background:new 0 0 100 100;" xml:space="preserve">
<style type="text/css">
	.st0{fill-rule:evenodd;clip-rule:evenodd;fill:#676767;}
</style>
<g id="Fitness_Event_Blue">
	<g id="Text_Top_1_">
	</g>
	<g id="Text_Bottom_1_">
	</g>
</g>
<g id="Fitness_Event_Yellow">
	<g id="Text_Top">
	</g>
	<g id="Text_Bottom">
	</g>
</g>
<g id="Live_Music_Promo_Dark">
	<g id="Text_1_">
	</g>
	<g id="Shapes_1_">
	</g>
</g>
<g id="Live_Music_Promo_Red">
	<g id="Text">
	</g>
	<g id="Shapes">
		<path class="st0" d="M35.4,19.5c0.3-8.3,7.1-14.9,15.3-14.9c2.2,0,4.1,0.3,6.1,1.1c0,0,0,0,0.1,0c5.2,2.2,9.2,7.6,9.2,13.9h12.6
			c2.1,0,3.8,1.8,3.8,3.8v17.2h9.9c2.1,0,3.4,1.8,3.4,3.5V69c0,1-0.8,1.7-1.7,1.7c-1,0-1.7-0.8-1.7-1.7V44.2l0,0h-9.8v25.1
			c0,1-0.8,1.7-1.7,1.7c-1,0-1.7-0.8-1.7-1.7V43.1c-0.1-0.2-0.1-0.4-0.1-0.7c0-0.2,0-0.5,0.1-0.7V23.4c0,0,0-0.1-0.1-0.2
			s-0.2-0.1-0.2-0.1H65.7c-1.4,7.2-7.6,12.6-15,12.6c-7.5,0-13.7-5.5-15-12.7H23.1c0,0-0.1,0-0.2,0.1s-0.1,0.2-0.1,0.2v62.6h8.4
			V70.4c0-1,0.8-1.7,1.7-1.7h35.8c1,0,1.7,0.8,1.7,1.7v15.5h8.4v-9.4c0-1,0.8-1.7,1.7-1.7c1,0,1.7,0.8,1.7,1.7v9.4l9.8-0.1v-9.7
			c0-1,0.8-1.7,1.7-1.7c1,0,1.7,0.8,1.7,1.7v9.8c1.2,0,2.3,0.6,3,1.4c0.8,0.8,1.3,2,1.3,3.3c0,2.4-1.8,4.8-4.5,4.8H79
			c-1,0-1.7-0.8-1.7-1.7c0-1,0.8-1.7,1.7-1.7h16.5c0.4,0,1-0.4,1-1.3c0-0.3-0.1-0.7-0.4-0.9c-0.2-0.3-0.5-0.3-0.6-0.3h-15l0,0H69.2
			c-0.1,0-0.3,0.1-0.4,0.1H33c-0.1,0-0.3,0-0.4-0.1H21L6.9,89.4c-0.1,0-0.3,0-0.4-0.1H6.2c0,0,0,0-0.1,0c-1.4-0.1-2,0.2-2.3,0.5
			c-0.2,0.2-0.3,0.4-0.3,0.8s0.1,0.6,0.3,0.7c0.3,0.2,1,0.5,2.4,0.5h57c1,0,1.7,0.8,1.7,1.7c0,1-0.8,1.7-1.7,1.7h-57
			c-1.8,0-3.4-0.4-4.5-1.3c-1.2-0.7-1.7-2-1.7-3.3s0.5-2.6,1.7-3.5c0.9-0.7,2.1-1.1,3.5-1.2V44.2c0-1,0.4-1.8,1-2.4
			c0.6-0.6,1.4-1.1,2.4-1.1h10.7V23.3c0-2,1.7-3.8,3.8-3.8H35.4z M19.3,44.2H8.7l0,0l0,0v41.7h10.6V44.2z M67,85.9V72.2H34.7v13.7
			C34.7,85.9,67,85.9,67,85.9z M50.7,8.1c-6.5,0-11.8,5.3-11.8,12.1c0,6.7,5.3,12.1,11.8,12.1S62.5,27,62.5,20.2v-0.1
			c0.2-4.9-2.9-9.3-7-11.1C53.9,8.3,52.5,8.1,50.7,8.1z M53.7,8.8c0.9,0.4,1.3,1.4,0.9,2.3c-0.4,0.9-0.6,1.5-0.7,2.4
			c-0.1,0.9-0.1,1.5,0.3,2.4c0.1,0.1,0.1,0.3,0.1,0.4s0.1,0.1,0.1,0.2c0,0,0,0.1,0.1,0.1l0.2,0.5c0.1,0.2,0.3,0.5,0.3,0.6l0,0
			c0.1,0.2,0.2,0.3,0.2,0.4c0,0,0,0,0,0.1c0.2,0.3,0.5,0.8,0.7,1.3c0.1,0.2,0.2,0.3,0.2,0.4s0,0.1,0.1,0.1c0,0,0,0,0,0.1l0,0
			c0.1,0.1,0.1,0.3,0.2,0.5l0,0c0,0.1,0.1,0.2,0.2,0.5c0.1,0.3,0.2,0.6,0.2,0.8c0,0.3,0,0.5,0,0.6l0,0c0,0.2,0,0.4-0.1,0.5
			c0,0,0,0,0,0.1c-0.1,0.3-0.3,0.8-0.4,1.2c-0.4,1-1.2,1.9-2,2.6c-0.8,0.6-1.5,1.1-2.2,1.5l0,0c-0.8,0.5-1.6,0.8-2.6,1
			c-0.3,0.1-0.6,0.2-0.8,0.2c-0.3,0-0.5,0-0.7,0h-1c-0.1,0-0.3,0-0.4-0.1c-0.6-0.2-1.3-0.5-1.7-1.2c-0.4-0.6-0.5-1.3-0.5-1.8
			c0-0.7,0.2-1.3,0.3-1.5v-0.1c0-0.1,0.1-0.2,0.1-0.2c0-0.1,0-0.1,0.1-0.1c0-0.1,0.1-0.1,0.1-0.3c0.1-0.2,0.2-0.4,0.3-0.7
			c0.2-0.5,0.5-1,0.8-1.4c0,0,0,0,0-0.1c0,0,0.1-0.1,0.2-0.4l0,0c0.1-0.2,0.2-0.5,0.4-0.8c0.1-0.2,0.2-0.4,0.3-0.6
			c0.3-0.7,0.5-1.2,0.7-1.8c0.3-0.9,1.2-1.5,2.2-1.2c0.9,0.3,1.5,1.2,1.2,2.2c-0.2,0.9-0.6,1.7-0.9,2.4c-0.1,0.2-0.2,0.4-0.2,0.6
			c0,0.1-0.1,0.2-0.2,0.3c0,0-0.1,0.1-0.2,0.4l0,0c-0.1,0.2-0.2,0.6-0.5,0.9c-0.3,0.5-0.4,0.7-0.5,0.8c0,0.1-0.1,0.3-0.2,0.4
			c-0.1,0.1-0.1,0.2-0.2,0.4c0,0.1-0.1,0.1-0.1,0.2c0,0,0,0,0,0.1S48,26.1,48,26.2c0,0,0,0,0,0.1c0.1,0,0.1,0,0.2,0
			c0.1,0,0.1,0,0.2,0c0.1,0,0.2-0.1,0.4-0.1c0.6-0.1,1-0.3,1.6-0.6c0.7-0.4,1.3-0.8,1.8-1.2c0.5-0.4,0.8-0.9,1-1.2
			c0,0,0-0.1,0.1-0.1c0.1-0.1,0.1-0.3,0.2-0.6l0,0c0-0.1-0.1-0.2-0.1-0.3c0,0,0,0,0-0.1s-0.1-0.1-0.1-0.2c-0.1-0.1-0.1-0.2-0.1-0.3
			l0,0c-0.1-0.1-0.2-0.3-0.2-0.4s-0.2-0.4-0.5-0.8c-0.2-0.3-0.3-0.6-0.4-0.8l0,0c-0.1-0.2-0.2-0.3-0.2-0.4c-0.1-0.1-0.1-0.2-0.2-0.3
			L51.3,18l0,0l0,0c0,0-0.1-0.1-0.1-0.2c-0.1-0.2-0.2-0.4-0.2-0.7c-0.6-1.5-0.6-2.7-0.4-3.9c0.2-1.3,0.5-2.3,0.9-3.3
			C51.8,8.9,52.8,8.5,53.7,8.8z M31.2,43c0-1,0.8-1.7,1.7-1.7h8.3c1,0,1.7,0.8,1.7,1.7v8.3c0,1-0.8,1.7-1.7,1.7H33
			c-1,0-1.7-0.8-1.7-1.7L31.2,43L31.2,43z M34.7,44.7v4.8h4.8v-4.8H34.7z M44.9,43c0-1,0.8-1.7,1.7-1.7h8.1c1,0,1.7,0.8,1.7,1.7v8.3
			c0,1-0.8,1.7-1.7,1.7h-8.1c-1,0-1.7-0.8-1.7-1.7C44.9,51.3,44.9,43,44.9,43z M48.4,44.7v4.8H53v-4.8H48.4z M58.7,43
			c0-1,0.8-1.7,1.7-1.7h8.3c1,0,1.7,0.8,1.7,1.7v8.3c0,1-0.8,1.7-1.7,1.7h-8.3c-1,0-1.7-0.8-1.7-1.7C58.7,51.3,58.7,43,58.7,43z
			 M62.2,44.7v4.8H67v-4.8H62.2z M31.2,56.9c0-1,0.8-1.7,1.7-1.7h8.3c1,0,1.7,0.8,1.7,1.7v8.3c0,1-0.8,1.7-1.7,1.7H33
			c-1,0-1.7-0.8-1.7-1.7L31.2,56.9L31.2,56.9z M34.7,58.6v4.8h4.8v-4.8H34.7z M44.9,56.9c0-1,0.8-1.7,1.7-1.7h8.1
			c1,0,1.7,0.8,1.7,1.7v8.3c0,1-0.8,1.7-1.7,1.7h-8.1c-1,0-1.7-0.8-1.7-1.7C44.9,65.2,44.9,56.9,44.9,56.9z M48.4,58.6v4.8H53v-4.8
			H48.4z M58.7,56.9c0-1,0.8-1.7,1.7-1.7h8.3c1,0,1.7,0.8,1.7,1.7v8.3c0,1-0.8,1.7-1.7,1.7h-8.3c-1,0-1.7-0.8-1.7-1.7
			C58.7,65.2,58.7,56.9,58.7,56.9z M62.2,58.6v4.8H67v-4.8H62.2z"/>
	</g>
</g>
</svg>
