<?xml version="1.0" encoding="utf-8"?>
<!-- Generator: Adobe Illustrator 25.2.1, SVG Export Plug-In . SVG Version: 6.00 Build 0)  -->
<svg version="1.1" xmlns="http://www.w3.org/2000/svg" xmlns:xlink="http://www.w3.org/1999/xlink" x="0px" y="0px"
	 viewBox="0 0 100 100" style="enable-background:new 0 0 100 100;" xml:space="preserve">
<style type="text/css">
	.st0{fill-rule:evenodd;clip-rule:evenodd;fill:#676767;}
	.st1{fill-rule:evenodd;clip-rule:evenodd;fill:#FFFFFF;}
	.st2{opacity:0.6;}
	.st3{fill-rule:evenodd;clip-rule:evenodd;fill:#1E1E1C;}
	.st4{fill-rule:evenodd;clip-rule:evenodd;fill:#FFFFFF;filter:url(#Adobe_OpacityMaskFilter);}
	.st5{mask:url(#mask0_1_);}
	.st6{fill:#676767;}
	.st7{fill:#E9484A;}
	.st8{fill-rule:evenodd;clip-rule:evenodd;fill:#E9484A;}
	.st9{fill:none;stroke:#E9484A;stroke-width:0.5;}
	.st10{fill:#616160;}
	.st11{fill:#4D4C4C;}
	.st12{fill-rule:evenodd;clip-rule:evenodd;fill:#EB585B;}
	.st13{fill:#030304;}
</style>
<g id="Fitness_Event_Blue">
	<g id="Text_Top_1_">
	</g>
	<g id="Text_Bottom_1_">
	</g>
</g>
<g id="Fitness_Event_Yellow">
	<g id="Text_Top">
	</g>
	<g id="Text_Bottom">
	</g>
</g>
<g id="Live_Music_Promo_Dark">
	<g id="Text_1_">
	</g>
	<g id="Shapes_1_">
	</g>
</g>
<g id="Live_Music_Promo_Red">
	<g id="Text">
	</g>
	<g id="Shapes">
		<g>
			<path class="st10" d="M22.9,78.3h8.3c0.9,0,1.6-0.7,1.6-1.6v-4.6h4.6c0.9,0,1.6-0.7,1.6-1.6v-8.2c0-0.9-0.7-1.6-1.6-1.6h-4.6
				v-4.6c0-0.9-0.7-1.6-1.6-1.6h-8.3c-0.9,0-1.6,0.7-1.6,1.6v4.6h-4.6c-0.9,0-1.6,0.7-1.6,1.6v8.2c0,0.9,0.7,1.6,1.6,1.6h4.6v4.6
				C21.4,77.6,22.1,78.3,22.9,78.3z M18.3,69.1V64h4.6c0.9,0,1.6-0.7,1.6-1.6v-4.6h5.1v4.6c0,0.9,0.7,1.6,1.6,1.6h4.6v5.1h-4.6
				c-0.9,0-1.6,0.7-1.6,1.6v4.6h-5.1v-4.6c0-0.9-0.7-1.6-1.6-1.6H18.3z"/>
			<path class="st10" d="M95,69.8l-0.3-0.1V17.8c0-3.1-2.6-5.7-5.7-5.7h-2.6V9.6c0-3.1-2.6-5.7-5.7-5.7h-0.5l0-2.7
				c0-0.8-0.6-1.5-1.3-1.6C78.5-0.4,78-0.3,77.6,0c-0.3,0.3-0.5,0.7-0.5,1.2l0,2.8h-0.5c-3.1,0-5.7,2.5-5.7,5.7v2.6h-2.6
				c-3.1,0-5.7,2.5-5.7,5.7v24.4c0,0.4,0.2,0.8,0.5,1.1c0.3,0.3,0.7,0.4,1,0.4c0.9,0,1.6-0.8,1.6-1.7V17.8c0-1.4,1.2-2.6,2.6-2.6H89
				c1.4,0,2.6,1.1,2.6,2.6v2.6h-6.6c-0.8,0-1.5,0.6-1.6,1.3c-0.1,0.5,0.1,0.9,0.4,1.2c0.3,0.3,0.7,0.5,1.2,0.5h6.7v5.1H80.7
				c-0.8,0-1.5,0.6-1.6,1.3c-0.1,0.5,0.1,0.9,0.4,1.2c0.3,0.3,0.7,0.5,1.2,0.5h10.8v5.1h-6.6c-0.8,0-1.5,0.6-1.6,1.3
				c-0.1,0.5,0.1,0.9,0.4,1.2c0.3,0.3,0.7,0.5,1.2,0.5h6.7V45H80.7c-0.8,0-1.5,0.6-1.6,1.3c-0.1,0.5,0.1,0.9,0.4,1.2
				c0.3,0.3,0.7,0.5,1.2,0.5h10.8v5.1h-6.6c-0.8,0-1.5,0.6-1.6,1.3c-0.1,0.5,0.1,0.9,0.4,1.2c0.3,0.3,0.7,0.5,1.2,0.5h6.7v5.1H80.6
				c-0.8,0-1.5,0.6-1.6,1.3c-0.1,0.5,0.1,0.9,0.4,1.2c0.3,0.3,0.7,0.5,1.2,0.5h10.8v5h-5.8c-0.9,0-1.6,0.7-1.6,1.6s0.7,1.6,1.6,1.6
				h7.3c1.4,0,2.5,1,2.6,2.4c0,0.7-0.2,1.4-0.7,1.9c-0.5,0.5-1.2,0.8-1.9,0.8H64.3c-1.4,0-2.5-1-2.6-2.4c0-0.7,0.2-1.4,0.7-1.9
				c0.5-0.5,1.2-0.8,1.9-0.8h12.8c0.9,0,1.6-0.7,1.6-1.6s-0.7-1.6-1.6-1.6H65.8V51.9c0-0.8-0.7-1.5-1.4-1.6c-0.4,0-0.9,0.1-1.2,0.4
				c-0.3,0.3-0.5,0.7-0.5,1.2v17.8l-0.3,0.1c-1.4,0.5-2.6,1.5-3.2,2.9c-0.6,1.4-0.7,2.9-0.2,4.3c0.8,2.2,2.9,3.7,5.3,3.7h6.7v5.5
				h-2.4c-2.9,0-5.6,2.4-5.8,5.2c-0.1,1.6,0.4,3.1,1.5,4.3c1.1,1.2,2.6,1.8,4.2,1.8h20.5c2.9,0,5.6-2.4,5.8-5.2
				c0.1-1.6-0.4-3.1-1.5-4.3c-1.1-1.2-2.6-1.8-4.2-1.8h-2.6v-5.5h7.2c1.3-0.1,2.6-0.7,3.5-1.7c1.1-1.1,1.6-2.5,1.6-4
				C98.7,72.8,97.2,70.6,95,69.8z M83.3,12.2H74V9.6c0-1.4,1.2-2.6,2.6-2.6h4.1c1.4,0,2.6,1.1,2.6,2.6V12.2z M74,80.8h9.3v5.5H74
				V80.8z M89,89.4c1.4,0,2.6,1.1,2.6,2.6s-1.2,2.6-2.6,2.6H68.3c-1.4,0-2.6-1.1-2.6-2.6s1.2-2.6,2.6-2.6H89z"/>
			<path class="st10" d="M0.8,90.7c0,3.1,2.6,5.7,5.7,5.7h41.3c3.1,0,5.7-2.5,5.7-5.7V79.9c0-0.9-0.6-1.6-1.5-1.6
				c-0.4,0-0.8,0.1-1.2,0.4c-0.3,0.3-0.5,0.7-0.5,1.1v3.6H3.9V52.1h46.4v16.3c0,0.4,0.2,0.8,0.5,1.1c0.3,0.3,0.7,0.4,1.2,0.4
				c0.8-0.1,1.5-0.8,1.5-1.6V46.5c0-7.6-6.3-13.8-13.9-13.9l-0.5,0v-5.1h2.5c0.9,0,1.6-0.7,1.6-1.6v-2.5c0-0.7-0.6-1.3-1.3-1.3h-0.4
				c-0.7,0-1.3,0.6-1.3,1.3v0.9H14.2v-6.7c0-1.4,1.1-2.6,2.6-2.6h20.6c1.4,0,2.6,1.1,2.6,2.6c0,0.6,0.5,1.1,1.1,1.1h1
				c0.6,0,1.1-0.5,1.1-1.1c0-3.1-2.6-5.7-5.7-5.7H16.8c-3.1,0-5.7,2.5-5.7,5.7v8.2c0,0.9,0.7,1.6,1.6,1.6h2.6v5.1l-0.5,0
				C7,32.6,0.8,38.8,0.8,46.5V90.7z M3.9,46.5c0-5.9,4.9-10.8,10.8-10.8c2,0,3.6-1.6,3.6-3.6v-4.6h17.5v4.6c0,2,1.6,3.6,3.6,3.6
				c6,0,10.8,4.8,10.8,10.8V49H3.9V46.5z M3.9,86.5h46.4v4.2c0,1.4-1.2,2.6-2.6,2.6H6.4c-1.4,0-2.6-1.1-2.6-2.6V86.5z"/>
		</g>
	</g>
</g>
</svg>
