<svg width="100" height="120" viewBox="0 0 100 120" fill="#ffffff" xmlns="http://www.w3.org/2000/svg">
<path d="M31.1685 95.385C30.5568 96.0852 30.5568 97.2056 31.1481 97.8824C31.454 98.2325 31.8414 98.3959 32.2288 98.3959C32.6162 98.3959 33.0036 98.2325 33.3094 97.8824L33.3298 97.8591C33.9211 97.1822 33.9415 96.0619 33.3298 95.385C32.7385 94.7082 31.7802 94.7082 31.1685 95.385Z" fill="#FF4445"/>
<path d="M43.6675 89.7836C43.0558 90.4838 43.0558 91.6041 43.6471 92.281C43.953 92.6311 44.3404 92.7944 44.7278 92.7944C45.1152 92.7944 45.5026 92.6311 45.8084 92.281L45.8288 92.2576C46.4201 91.5808 46.4201 90.4605 45.8288 89.7836C45.2171 89.1067 44.2588 89.1067 43.6675 89.7836Z" fill="#FF4445"/>
<path d="M45.5629 60.773C45.5629 57.2721 43.0754 54.4013 39.9966 54.4013C36.9178 54.4013 34.4303 57.2487 34.4303 60.773C34.4303 64.2972 36.9382 67.1446 39.9966 67.1446C43.055 67.1446 45.5629 64.2972 45.5629 60.773ZM37.4887 60.773C37.4887 59.1859 38.6101 57.9023 39.9966 57.9023C41.3831 57.9023 42.5045 59.1859 42.5045 60.773C42.5045 62.3601 41.3831 63.6437 39.9966 63.6437C38.6101 63.6437 37.4887 62.3601 37.4887 60.773Z" fill="#FF4445"/>
<path d="M55.8594 92.1414C51.598 92.1414 48.1318 96.1091 48.1318 100.987C48.1318 105.865 51.598 109.833 55.8594 109.833C60.1208 109.833 63.5869 105.865 63.5869 100.987C63.5869 96.1091 60.1208 92.1414 55.8594 92.1414ZM55.8594 106.332C53.2903 106.332 51.1902 103.928 51.1902 100.987C51.1902 98.0462 53.2903 95.6423 55.8594 95.6423C58.4284 95.6423 60.5285 98.0462 60.5285 100.987C60.5285 103.928 58.4284 106.332 55.8594 106.332Z" fill="#FF4445"/>
<path d="M20.9525 98.8863C18.0368 98.8863 15.6512 101.594 15.6512 104.954C15.6512 108.292 18.0368 111.023 20.9525 111.023C23.8681 111.023 26.2537 108.292 26.2537 104.954C26.2537 101.617 23.8681 98.8863 20.9525 98.8863ZM20.9525 107.522C19.7087 107.522 18.7096 106.378 18.7096 104.954C18.7096 103.554 19.7087 102.387 20.9525 102.387C22.1962 102.387 23.1953 103.531 23.1953 104.954C23.1953 106.355 22.1758 107.522 20.9525 107.522Z" fill="#FF4445"/>
<path d="M80.3286 90.7407C79.7169 91.4409 79.7169 92.5612 80.3082 93.2381C80.614 93.5882 81.0014 93.7516 81.3888 93.7516C81.7762 93.7516 82.1636 93.5882 82.4694 93.2381L82.4898 93.2147C83.0811 92.5379 83.0811 91.4176 82.4898 90.7407C81.8985 90.0639 80.9198 90.0639 80.3286 90.7407Z" fill="#FF4445"/>
<path d="M83.5903 104.114C82.9786 104.815 82.9786 105.935 83.5699 106.612C83.8757 106.962 84.2631 107.125 84.6506 107.125C85.038 107.125 85.4254 106.962 85.7312 106.612L85.7516 106.588C86.3429 105.912 86.3633 104.791 85.7516 104.114C85.1603 103.438 84.1816 103.438 83.5903 104.114Z" fill="#FF4445"/>
<path d="M83.7523 82.9918C86.5865 82.9918 88.8905 80.3544 88.8905 77.1102C88.8905 73.8661 86.5865 71.2287 83.7523 71.2287C80.9182 71.2287 78.6142 73.8661 78.6142 77.1102C78.6142 80.3544 80.9182 82.9918 83.7523 82.9918ZM83.7523 74.7296C84.8941 74.7296 85.8321 75.8032 85.8321 77.1102C85.8321 78.4172 84.8941 79.4909 83.7523 79.4909C82.6105 79.4909 81.6726 78.4172 81.6726 77.1102C81.6726 75.8032 82.6105 74.7296 83.7523 74.7296Z" fill="#FF4445"/>
<path d="M94.2298 8.81958H73.2696C70.0889 8.81958 67.4994 11.9471 67.4994 15.798C67.4994 19.1823 69.518 22.0297 72.1686 22.6598V80.4948L56.1425 56.3385C54.0832 53.2577 51.9627 46.9094 51.9424 41.6814L51.8812 14.3043C54.96 13.9542 57.3863 10.9668 57.3863 7.3492C57.3863 3.4982 54.6337 0.370728 51.2695 0.370728H28.6985C25.3343 0.370728 22.6021 3.4982 22.6021 7.3492C22.6021 10.9668 25.0284 13.9542 28.1072 14.3043V41.6814C28.0868 46.9094 25.9052 53.2577 23.8662 56.3385L18.7485 64.0405C18.2388 64.8107 18.3611 65.9076 19.034 66.4911C19.3194 66.7245 19.6253 66.8412 19.9515 66.8412C20.4204 66.8412 20.869 66.6078 21.1748 66.141L26.2926 58.4391C28.5354 55.0548 30.9209 48.3565 31.1045 42.3116H36.2833C37.1193 42.3116 37.8125 41.518 37.8125 40.5611C37.8125 39.6042 37.1193 38.8107 36.2833 38.8107H31.1045L31.1248 32.9758H36.2833C37.1193 32.9758 37.8125 32.1823 37.8125 31.2254C37.8125 30.2684 37.1193 29.4749 36.2833 29.4749H31.1248L31.1452 23.6401H36.2833C37.1193 23.6401 37.8125 22.8465 37.8125 21.8896C37.8125 20.9327 37.1193 20.1392 36.2833 20.1392H31.1452L31.1656 14.3043H48.8228V41.6581C48.8432 47.8663 51.3714 54.9382 53.6958 58.4391L64.4818 74.7066C60.8321 73.3762 57.264 73.1429 53.5327 73.9831C49.6384 74.87 45.9479 76.8071 41.9516 79.1644C33.9182 72.5594 21.97 74.0064 13.9774 77.0872L16.9746 72.6294C17.4844 71.8592 17.362 70.7622 16.6892 70.1788C16.0163 69.5953 15.058 69.7353 14.5483 70.5055L5.27116 84.3457C2.88561 87.8933 1.11174 92.7713 0.377724 97.7192C-0.41746 103.064 0.0514947 108.105 1.70303 111.91C3.25262 115.527 6.61686 119.822 13.7735 119.822H66.2149C70.0685 119.822 73.2696 118.515 75.6348 116.017C77.7349 118.375 80.5894 119.822 83.7497 119.822C90.1316 119.822 95.3512 113.87 95.3512 106.541V47.9597C95.3512 47.0028 94.658 46.2092 93.822 46.2092C92.9861 46.2092 92.2928 47.0028 92.2928 47.9597V59.2093C89.9888 60.4929 86.6654 60.3529 84.6061 58.7658C82.0166 56.8053 78.3058 56.3619 75.227 57.4821V50.7371H80.3243C81.1603 50.7371 81.8535 49.9435 81.8535 48.9866C81.8535 48.0297 81.1603 47.2362 80.3243 47.2362H75.2066V41.4013H80.3243C81.1603 41.4013 81.8535 40.6078 81.8535 39.6509C81.8535 38.694 81.1603 37.9004 80.3243 37.9004H75.2066V32.0656H80.3243C81.1603 32.0656 81.8535 31.272 81.8535 30.3151C81.8535 29.3582 81.1603 28.5647 80.3243 28.5647H75.2066V22.7298H92.2725V39.8843C92.2725 40.8412 92.9657 41.6347 93.8017 41.6347C94.6376 41.6347 95.3308 40.8412 95.3308 39.8843V22.6131C97.9815 21.983 100 19.1589 100 15.7514C100 11.9704 97.4106 8.81958 94.2298 8.81958ZM28.6985 10.8501C27.0266 10.8501 25.6605 9.28636 25.6605 7.3492C25.6605 5.43537 27.0266 3.87163 28.6985 3.87163H51.2695C52.9414 3.87163 54.3279 5.43537 54.3279 7.3492C54.3279 9.26302 52.9618 10.8501 51.2695 10.8501H28.6985ZM7.67711 86.5163L10.1442 82.8287C16.2814 78.791 30.0646 75.3134 38.8524 81.1016C38.7301 81.1716 38.6281 81.2416 38.5058 81.3116C29.6364 86.7497 19.6456 92.8646 4.47598 93.5881C5.27116 90.9041 6.39258 88.4301 7.67711 86.5163ZM66.2149 116.367H13.7735C9.28786 116.367 6.14791 114.36 4.4352 110.392C2.82444 106.682 2.74289 101.78 3.61963 97.1124C20.0534 96.5756 31.0841 89.8305 39.9738 84.3691C50.1889 78.1141 57.5902 73.563 68.315 80.4714L72.1686 86.2829V106.588C72.1686 109.039 72.7395 111.303 73.7589 113.287C71.9443 115.34 69.416 116.367 66.2149 116.367ZM82.8934 61.7532C84.5449 63.0136 86.6654 63.6437 88.7655 63.6437C89.9685 63.6437 91.151 63.4337 92.2725 63.0369V106.588C92.2725 111.98 88.4393 116.367 83.7293 116.367C79.0194 116.367 75.1862 111.98 75.1862 106.588V61.3098C77.5106 60.0495 80.8544 60.1895 82.8934 61.7532ZM94.2298 19.2989H73.2696C71.7608 19.2989 70.5578 17.7352 70.5578 15.8214C70.5578 13.9076 71.7812 12.3438 73.2696 12.3438H94.2298C95.7386 12.3438 96.9416 13.9076 96.9416 15.8214C96.9416 17.7352 95.7183 19.2989 94.2298 19.2989Z" fill="#FF4445"/>
</svg>
